<mxfile host="app.diagrams.net" agent="Mozilla/5.0 (Windows NT 10.0; Win64; x64) AppleWebKit/537.36 (KHTML, like Gecko) Chrome/140.0.0.0 Safari/537.36 Edg/140.0.0.0" version="28.2.5">
  <diagram name="Page-1" id="GVXFa4LhprFnRf1Q96Ms">
    <mxGraphModel dx="2592" dy="3513" grid="1" gridSize="10" guides="1" tooltips="1" connect="1" arrows="1" fold="1" page="1" pageScale="1" pageWidth="850" pageHeight="1100" math="0" shadow="0">
      <root>
        <mxCell id="0" />
        <mxCell id="1" parent="0" />
        <UserObject label="" plantUmlData="{&#xa;  &quot;data&quot;: &quot;@startuml\ntitle Statechart Diagram - Game Lifecycle (GameSonnet)\n\n[*] --&gt; Draft : User enters game name\n\nstate Draft {\n  [*] --&gt; NameEntered\n  NameEntered --&gt; AutoFetched : RAWG API data found\n  NameEntered --&gt; ManualEntry : RAWG API data not found\n  AutoFetched --&gt; PendingApproval : Data saved in PendingGames\n  ManualEntry --&gt; PendingApproval : User submits details\n}\n\nstate PendingApproval {\n  [*] --&gt; Waiting\n  Waiting --&gt; Approved : Admin approves\n  Waiting --&gt; Rejected : Admin rejects\n  Waiting --&gt; Edited : Admin edits details\n  Edited --&gt; PendingApproval : Resubmitted for approval\n}\n\nApproved --&gt; Live : Move to Games collection\nRejected --&gt; [*] : Game request closed\n\nstate Live {\n  [*] --&gt; Available\n  Available --&gt; WithReviews : User submits review\n  WithReviews --&gt; WithReviews : More reviews submitted\n}\n\nLive --&gt; [*] : Game archived or removed (optional abnormal exit)\n\n@enduml\n&quot;,&#xa;  &quot;format&quot;: &quot;svg&quot;&#xa;}" id="5_kCgBCr4Gi-t9478Dj4-1">
          <mxCell style="shape=image;noLabel=1;verticalAlign=top;aspect=fixed;imageAspect=0;image=data:image/svg+xml,PHN2ZyB4bWxucz0iaHR0cDovL3d3dy53My5vcmcvMjAwMC9zdmciIHhtbG5zOnhsaW5rPSJodHRwOi8vd3d3LnczLm9yZy8xOTk5L3hsaW5rIiBjb250ZW50U3R5bGVUeXBlPSJ0ZXh0L2NzcyIgZGF0YS1kaWFncmFtLXR5cGU9IlNUQVRFIiBoZWlnaHQ9Ijg3N3B4IiBwcmVzZXJ2ZUFzcGVjdFJhdGlvPSJub25lIiBzdHlsZT0id2lkdGg6MTUyMHB4O2hlaWdodDo4NzdweDtiYWNrZ3JvdW5kOiNGRkZGRkY7IiB2ZXJzaW9uPSIxLjEiIHZpZXdCb3g9IjAgMCAxNTIwIDg3NyIgd2lkdGg9IjE1MjBweCIgem9vbUFuZFBhbj0ibWFnbmlmeSI+PHRpdGxlPlN0YXRlY2hhcnQgRGlhZ3JhbSAtIEdhbWUgTGlmZWN5Y2xlIChHYW1lU29ubmV0KTwvdGl0bGU+PGRlZnMvPjxnPjx0ZXh0IGZpbGw9IiMwMDAwMDAiIGZvbnQtZmFtaWx5PSJzYW5zLXNlcmlmIiBmb250LXNpemU9IjE0IiBmb250LXdlaWdodD0iYm9sZCIgbGVuZ3RoQWRqdXN0PSJzcGFjaW5nIiB0ZXh0TGVuZ3RoPSIzMzYiIHg9IjU4NS4yNSIgeT0iMjMuMjM0NCI+U3RhdGVjaGFydCBEaWFncmFtIC0gR2FtZSBMaWZlY3ljbGUgKEdhbWVTb25uZXQpPC90ZXh0PjwhLS1jbHVzdGVyIERyYWZ0LS0+PGcgY2xhc3M9ImNsdXN0ZXIiIGRhdGEtZW50aXR5PSJEcmFmdCIgZGF0YS1zb3VyY2UtbGluZT0iNSIgZGF0YS11aWQ9ImVudDAwMDIiIGlkPSJjbHVzdGVyX0RyYWZ0Ij48cGF0aCBkPSJNMjQuNSwxMzAuOTg0NCBMNDA2LjUsMTMwLjk4NDQgQTEyLjUsMTIuNSAwIDAgMSA0MTksMTQzLjQ4NDQgTDQxOSwxNTAuOTY4OCBMMTIsMTUwLjk2ODggTDEyLDE0My40ODQ0IEExMi41LDEyLjUgMCAwIDEgMjQuNSwxMzAuOTg0NCIgZmlsbD0iI0YxRjFGMSIgc3R5bGU9InN0cm9rZTojRjFGMUYxO3N0cm9rZS13aWR0aDoxOyIvPjxyZWN0IGZpbGw9Im5vbmUiIGhlaWdodD0iMzIxIiByeD0iMTIuNSIgcnk9IjEyLjUiIHN0eWxlPSJzdHJva2U6IzE4MTgxODtzdHJva2Utd2lkdGg6MC41OyIgd2lkdGg9IjQwNyIgeD0iMTIiIHk9IjEzMC45ODQ0Ii8+PGxpbmUgc3R5bGU9InN0cm9rZTojMTgxODE4O3N0cm9rZS13aWR0aDowLjU7IiB4MT0iMTIiIHgyPSI0MTkiIHkxPSIxNTAuOTY4OCIgeTI9IjE1MC45Njg4Ii8+PHRleHQgZmlsbD0iIzAwMDAwMCIgZm9udC1mYW1pbHk9InNhbnMtc2VyaWYiIGZvbnQtc2l6ZT0iMTQiIGxlbmd0aEFkanVzdD0ic3BhY2luZyIgdGV4dExlbmd0aD0iMzUiIHg9IjE5OCIgeT0iMTQ4LjIxODgiPkRyYWZ0PC90ZXh0PjwvZz48IS0tY2x1c3RlciBQZW5kaW5nQXBwcm92YWwtLT48ZyBjbGFzcz0iY2x1c3RlciIgZGF0YS1lbnRpdHk9IlBlbmRpbmdBcHByb3ZhbCIgZGF0YS1zb3VyY2UtbGluZT0iMTMiIGRhdGEtdWlkPSJlbnQwMDAzIiBpZD0iY2x1c3Rlcl9QZW5kaW5nQXBwcm92YWwiPjxwYXRoIGQ9Ik00NzEuNSwxMzAuOTg0NCBMOTEzLjUsMTMwLjk4NDQgQTEyLjUsMTIuNSAwIDAgMSA5MjYsMTQzLjQ4NDQgTDkyNiwxNTAuOTY4OCBMNDU5LDE1MC45Njg4IEw0NTksMTQzLjQ4NDQgQTEyLjUsMTIuNSAwIDAgMSA0NzEuNSwxMzAuOTg0NCIgZmlsbD0iI0YxRjFGMSIgc3R5bGU9InN0cm9rZTojRjFGMUYxO3N0cm9rZS13aWR0aDoxOyIvPjxyZWN0IGZpbGw9Im5vbmUiIGhlaWdodD0iNTI1LjM2IiByeD0iMTIuNSIgcnk9IjEyLjUiIHN0eWxlPSJzdHJva2U6IzE4MTgxODtzdHJva2Utd2lkdGg6MC41OyIgd2lkdGg9IjQ2NyIgeD0iNDU5IiB5PSIxMzAuOTg0NCIvPjxsaW5lIHN0eWxlPSJzdHJva2U6IzE4MTgxODtzdHJva2Utd2lkdGg6MC41OyIgeDE9IjQ1OSIgeDI9IjkyNiIgeTE9IjE1MC45Njg4IiB5Mj0iMTUwLjk2ODgiLz48dGV4dCBmaWxsPSIjMDAwMDAwIiBmb250LWZhbWlseT0ic2Fucy1zZXJpZiIgZm9udC1zaXplPSIxNCIgbGVuZ3RoQWRqdXN0PSJzcGFjaW5nIiB0ZXh0TGVuZ3RoPSIxMDUiIHg9IjY0MCIgeT0iMTQ4LjIxODgiPlBlbmRpbmdBcHByb3ZhbDwvdGV4dD48L2c+PGVsbGlwc2UgY3g9IjE2OCIgY3k9IjE4MS45ODQ0IiBmaWxsPSIjMjIyMjIyIiByeD0iMTAiIHJ5PSIxMCIgc3R5bGU9InN0cm9rZTojMjIyMjIyO3N0cm9rZS13aWR0aDoxOyIvPjxnIGlkPSJEcmFmdC5OYW1lRW50ZXJlZCI+PHJlY3QgZmlsbD0iI0YxRjFGMSIgaGVpZ2h0PSI1MCIgcng9IjEyLjUiIHJ5PSIxMi41IiBzdHlsZT0ic3Ryb2tlOiMxODE4MTg7c3Ryb2tlLXdpZHRoOjAuNTsiIHdpZHRoPSI5NyIgeD0iMTE5LjUiIHk9IjI1Mi45ODQ0Ii8+PGxpbmUgc3R5bGU9InN0cm9rZTojMTgxODE4O3N0cm9rZS13aWR0aDowLjU7IiB4MT0iMTE5LjUiIHgyPSIyMTYuNSIgeTE9IjI3Ny45Njg4IiB5Mj0iMjc3Ljk2ODgiLz48dGV4dCBmaWxsPSIjMDAwMDAwIiBmb250LWZhbWlseT0ic2Fucy1zZXJpZiIgZm9udC1zaXplPSIxNCIgbGVuZ3RoQWRqdXN0PSJzcGFjaW5nIiB0ZXh0TGVuZ3RoPSI3NyIgeD0iMTI5LjUiIHk9IjI3MS4yMTg4Ij5OYW1lRW50ZXJlZDwvdGV4dD48L2c+PGcgaWQ9IkRyYWZ0LkF1dG9GZXRjaGVkIj48cmVjdCBmaWxsPSIjRjFGMUYxIiBoZWlnaHQ9IjUwIiByeD0iMTIuNSIgcnk9IjEyLjUiIHN0eWxlPSJzdHJva2U6IzE4MTgxODtzdHJva2Utd2lkdGg6MC41OyIgd2lkdGg9Ijk3IiB4PSI2NC41IiB5PSIzNzcuOTg0NCIvPjxsaW5lIHN0eWxlPSJzdHJva2U6IzE4MTgxODtzdHJva2Utd2lkdGg6MC41OyIgeDE9IjY0LjUiIHgyPSIxNjEuNSIgeTE9IjQwMi45Njg4IiB5Mj0iNDAyLjk2ODgiLz48dGV4dCBmaWxsPSIjMDAwMDAwIiBmb250LWZhbWlseT0ic2Fucy1zZXJpZiIgZm9udC1zaXplPSIxNCIgbGVuZ3RoQWRqdXN0PSJzcGFjaW5nIiB0ZXh0TGVuZ3RoPSI3NyIgeD0iNzQuNSIgeT0iMzk2LjIxODgiPkF1dG9GZXRjaGVkPC90ZXh0PjwvZz48ZyBpZD0iRHJhZnQuTWFudWFsRW50cnkiPjxyZWN0IGZpbGw9IiNGMUYxRjEiIGhlaWdodD0iNTAiIHJ4PSIxMi41IiByeT0iMTIuNSIgc3R5bGU9InN0cm9rZTojMTgxODE4O3N0cm9rZS13aWR0aDowLjU7IiB3aWR0aD0iOTciIHg9IjI0MC41IiB5PSIzNzcuOTg0NCIvPjxsaW5lIHN0eWxlPSJzdHJva2U6IzE4MTgxODtzdHJva2Utd2lkdGg6MC41OyIgeDE9IjI0MC41IiB4Mj0iMzM3LjUiIHkxPSI0MDIuOTY4OCIgeTI9IjQwMi45Njg4Ii8+PHRleHQgZmlsbD0iIzAwMDAwMCIgZm9udC1mYW1pbHk9InNhbnMtc2VyaWYiIGZvbnQtc2l6ZT0iMTQiIGxlbmd0aEFkanVzdD0ic3BhY2luZyIgdGV4dExlbmd0aD0iNzciIHg9IjI1MC41IiB5PSIzOTYuMjE4OCI+TWFudWFsRW50cnk8L3RleHQ+PC9nPjxlbGxpcHNlIGN4PSI2ODMiIGN5PSIxODEuOTg0NCIgZmlsbD0iIzIyMjIyMiIgcng9IjEwIiByeT0iMTAiIHN0eWxlPSJzdHJva2U6IzIyMjIyMjtzdHJva2Utd2lkdGg6MTsiLz48ZyBpZD0iUGVuZGluZ0FwcHJvdmFsLldhaXRpbmciPjxyZWN0IGZpbGw9IiNGMUYxRjEiIGhlaWdodD0iNTAiIHJ4PSIxMi41IiByeT0iMTIuNSIgc3R5bGU9InN0cm9rZTojMTgxODE4O3N0cm9rZS13aWR0aDowLjU7IiB3aWR0aD0iNjkiIHg9IjY0OC41IiB5PSIyNTIuOTg0NCIvPjxsaW5lIHN0eWxlPSJzdHJva2U6IzE4MTgxODtzdHJva2Utd2lkdGg6MC41OyIgeDE9IjY0OC41IiB4Mj0iNzE3LjUiIHkxPSIyNzcuOTY4OCIgeTI9IjI3Ny45Njg4Ii8+PHRleHQgZmlsbD0iIzAwMDAwMCIgZm9udC1mYW1pbHk9InNhbnMtc2VyaWYiIGZvbnQtc2l6ZT0iMTQiIGxlbmd0aEFkanVzdD0ic3BhY2luZyIgdGV4dExlbmd0aD0iNDkiIHg9IjY1OC41IiB5PSIyNzEuMjE4OCI+V2FpdGluZzwvdGV4dD48L2c+PGcgaWQ9IlBlbmRpbmdBcHByb3ZhbC5BcHByb3ZlZCI+PHJlY3QgZmlsbD0iI0YxRjFGMSIgaGVpZ2h0PSI1MCIgcng9IjEyLjUiIHJ5PSIxMi41IiBzdHlsZT0ic3Ryb2tlOiMxODE4MTg7c3Ryb2tlLXdpZHRoOjAuNTsiIHdpZHRoPSI3NiIgeD0iNjY4IiB5PSIzNzcuOTg0NCIvPjxsaW5lIHN0eWxlPSJzdHJva2U6IzE4MTgxODtzdHJva2Utd2lkdGg6MC41OyIgeDE9IjY2OCIgeDI9Ijc0NCIgeTE9IjQwMi45Njg4IiB5Mj0iNDAyLjk2ODgiLz48dGV4dCBmaWxsPSIjMDAwMDAwIiBmb250LWZhbWlseT0ic2Fucy1zZXJpZiIgZm9udC1zaXplPSIxNCIgbGVuZ3RoQWRqdXN0PSJzcGFjaW5nIiB0ZXh0TGVuZ3RoPSI1NiIgeD0iNjc4IiB5PSIzOTYuMjE4OCI+QXBwcm92ZWQ8L3RleHQ+PC9nPjxnIGlkPSJQZW5kaW5nQXBwcm92YWwuUmVqZWN0ZWQiPjxyZWN0IGZpbGw9IiNGMUYxRjEiIGhlaWdodD0iNTAiIHJ4PSIxMi41IiByeT0iMTIuNSIgc3R5bGU9InN0cm9rZTojMTgxODE4O3N0cm9rZS13aWR0aDowLjU7IiB3aWR0aD0iNzYiIHg9IjgwMiIgeT0iMzc3Ljk4NDQiLz48bGluZSBzdHlsZT0ic3Ryb2tlOiMxODE4MTg7c3Ryb2tlLXdpZHRoOjAuNTsiIHgxPSI4MDIiIHgyPSI4NzgiIHkxPSI0MDIuOTY4OCIgeTI9IjQwMi45Njg4Ii8+PHRleHQgZmlsbD0iIzAwMDAwMCIgZm9udC1mYW1pbHk9InNhbnMtc2VyaWYiIGZvbnQtc2l6ZT0iMTQiIGxlbmd0aEFkanVzdD0ic3BhY2luZyIgdGV4dExlbmd0aD0iNTYiIHg9IjgxMiIgeT0iMzk2LjIxODgiPlJlamVjdGVkPC90ZXh0PjwvZz48ZyBpZD0iUGVuZGluZ0FwcHJvdmFsLkVkaXRlZCI+PHJlY3QgZmlsbD0iI0YxRjFGMSIgaGVpZ2h0PSI1MCIgcng9IjEyLjUiIHJ5PSIxMi41IiBzdHlsZT0ic3Ryb2tlOiMxODE4MTg7c3Ryb2tlLXdpZHRoOjAuNTsiIHdpZHRoPSI2MiIgeD0iNDg1IiB5PSIzNzcuOTg0NCIvPjxsaW5lIHN0eWxlPSJzdHJva2U6IzE4MTgxODtzdHJva2Utd2lkdGg6MC41OyIgeDE9IjQ4NSIgeDI9IjU0NyIgeTE9IjQwMi45Njg4IiB5Mj0iNDAyLjk2ODgiLz48dGV4dCBmaWxsPSIjMDAwMDAwIiBmb250LWZhbWlseT0ic2Fucy1zZXJpZiIgZm9udC1zaXplPSIxNCIgbGVuZ3RoQWRqdXN0PSJzcGFjaW5nIiB0ZXh0TGVuZ3RoPSI0MiIgeD0iNDk1IiB5PSIzOTYuMjE4OCI+RWRpdGVkPC90ZXh0PjwvZz48cGF0aCBkPSJNOTYyLDUyMC45ODQ0IEwxMjI4LDUyMC45ODQ0IEExMi41LDEyLjUgMCAwIDEgMTI0MC41LDUzMy40ODQ0IEwxMjQwLjUsNTQ1Ljk2ODggTDk0OS41LDU0NS45Njg4IEw5NDkuNSw1MzMuNDg0NCBBMTIuNSwxMi41IDAgMCAxIDk2Miw1MjAuOTg0NCIgZmlsbD0iI0YxRjFGMSIgc3R5bGU9InN0cm9rZTojRjFGMUYxO3N0cm9rZS13aWR0aDoxOyIvPjxyZWN0IGZpbGw9Im5vbmUiIGhlaWdodD0iMjUzLjk4NDQiIHJ4PSIxMi41IiByeT0iMTIuNSIgc3R5bGU9InN0cm9rZTojMTgxODE4O3N0cm9rZS13aWR0aDowLjU7IiB3aWR0aD0iMjkxIiB4PSI5NDkuNSIgeT0iNTIwLjk4NDQiLz48bGluZSBzdHlsZT0ic3Ryb2tlOiMxODE4MTg7c3Ryb2tlLXdpZHRoOjAuNTsiIHgxPSI5NDkuNSIgeDI9IjEyNDAuNSIgeTE9IjU0NS45Njg4IiB5Mj0iNTQ1Ljk2ODgiLz48dGV4dCBmaWxsPSIjMDAwMDAwIiBmb250LWZhbWlseT0ic2Fucy1zZXJpZiIgZm9udC1zaXplPSIxNCIgbGVuZ3RoQWRqdXN0PSJzcGFjaW5nIiB0ZXh0TGVuZ3RoPSIyOCIgeD0iMTA4MSIgeT0iNTM5LjIxODgiPkxpdmU8L3RleHQ+PGVsbGlwc2UgY3g9IjEwMTAiIGN5PSI1NjYuOTY4OCIgZmlsbD0iIzIyMjIyMiIgcng9IjEwIiByeT0iMTAiIHN0eWxlPSJzdHJva2U6IzIyMjIyMjtzdHJva2Utd2lkdGg6MTsiLz48ZyBpZD0iTGl2ZS5BdmFpbGFibGUiPjxyZWN0IGZpbGw9IiNGMUYxRjEiIGhlaWdodD0iNTAiIHJ4PSIxMi41IiByeT0iMTIuNSIgc3R5bGU9InN0cm9rZTojMTgxODE4O3N0cm9rZS13aWR0aDowLjU7IiB3aWR0aD0iODMiIHg9Ijk2OC41IiB5PSI2MTMuOTY4OCIvPjxsaW5lIHN0eWxlPSJzdHJva2U6IzE4MTgxODtzdHJva2Utd2lkdGg6MC41OyIgeDE9Ijk2OC41IiB4Mj0iMTA1MS41IiB5MT0iNjM4Ljk1MzEiIHkyPSI2MzguOTUzMSIvPjx0ZXh0IGZpbGw9IiMwMDAwMDAiIGZvbnQtZmFtaWx5PSJzYW5zLXNlcmlmIiBmb250LXNpemU9IjE0IiBsZW5ndGhBZGp1c3Q9InNwYWNpbmciIHRleHRMZW5ndGg9IjYzIiB4PSI5NzguNSIgeT0iNjMyLjIwMzEiPkF2YWlsYWJsZTwvdGV4dD48L2c+PGcgaWQ9IkxpdmUuV2l0aFJldmlld3MiPjxyZWN0IGZpbGw9IiNGMUYxRjEiIGhlaWdodD0iNTAiIHJ4PSIxMi41IiByeT0iMTIuNSIgc3R5bGU9InN0cm9rZTojMTgxODE4O3N0cm9rZS13aWR0aDowLjU7IiB3aWR0aD0iOTciIHg9Ijk2MS41IiB5PSI3MTQuOTY4OCIvPjxsaW5lIHN0eWxlPSJzdHJva2U6IzE4MTgxODtzdHJva2Utd2lkdGg6MC41OyIgeDE9Ijk2MS41IiB4Mj0iMTA1OC41IiB5MT0iNzM5Ljk1MzEiIHkyPSI3MzkuOTUzMSIvPjx0ZXh0IGZpbGw9IiMwMDAwMDAiIGZvbnQtZmFtaWx5PSJzYW5zLXNlcmlmIiBmb250LXNpemU9IjE0IiBsZW5ndGhBZGp1c3Q9InNwYWNpbmciIHRleHRMZW5ndGg9Ijc3IiB4PSI5NzEuNSIgeT0iNzMzLjIwMzEiPldpdGhSZXZpZXdzPC90ZXh0PjwvZz48IS0tbGluayAqc3RhcnQqTGl2ZSB0byBBdmFpbGFibGUtLT48ZyBjbGFzcz0ibGluayIgZGF0YS1lbnRpdHktMT0iKnN0YXJ0KkxpdmUiIGRhdGEtZW50aXR5LTI9IkF2YWlsYWJsZSIgZGF0YS1zb3VyY2UtbGluZT0iMjUiIGRhdGEtdWlkPSJsbmsyOCIgaWQ9ImxpbmtfKnN0YXJ0KkxpdmVfQXZhaWxhYmxlIj48cGF0aCBkPSJNMTAxMCw1NzcuMTE4OCBDMTAxMCw1ODYuMzg4OCAxMDEwLDU5NS4xMDg4IDEwMTAsNjA3Ljc0ODgiIGZpbGw9Im5vbmUiIGlkPSIqc3RhcnQqTGl2ZS10by1BdmFpbGFibGUiIHN0eWxlPSJzdHJva2U6IzE4MTgxODtzdHJva2Utd2lkdGg6MTsiLz48cG9seWdvbiBmaWxsPSIjMTgxODE4IiBwb2ludHM9IjEwMTAsNjEzLjc0ODgsMTAxNCw2MDQuNzQ4OCwxMDEwLDYwOC43NDg4LDEwMDYsNjA0Ljc0ODgsMTAxMCw2MTMuNzQ4OCIgc3R5bGU9InN0cm9rZTojMTgxODE4O3N0cm9rZS13aWR0aDoxOyIvPjwvZz48IS0tbGluayBBdmFpbGFibGUgdG8gV2l0aFJldmlld3MtLT48ZyBjbGFzcz0ibGluayIgZGF0YS1lbnRpdHktMT0iQXZhaWxhYmxlIiBkYXRhLWVudGl0eS0yPSJXaXRoUmV2aWV3cyIgZGF0YS1zb3VyY2UtbGluZT0iMjYiIGRhdGEtdWlkPSJsbmszMCIgaWQ9ImxpbmtfQXZhaWxhYmxlX1dpdGhSZXZpZXdzIj48cGF0aCBkPSJNMTAxMCw2NjQuMTg4OCBDMTAxMCw2NzkuNTI4OCAxMDEwLDY5My4yOTg3IDEwMTAsNzA4LjY1ODgiIGZpbGw9Im5vbmUiIGlkPSJBdmFpbGFibGUtdG8tV2l0aFJldmlld3MiIHN0eWxlPSJzdHJva2U6IzE4MTgxODtzdHJva2Utd2lkdGg6MTsiLz48cG9seWdvbiBmaWxsPSIjMTgxODE4IiBwb2ludHM9IjEwMTAsNzE0LjY1ODgsMTAxNCw3MDUuNjU4OCwxMDEwLDcwOS42NTg4LDEwMDYsNzA1LjY1ODgsMTAxMCw3MTQuNjU4OCIgc3R5bGU9InN0cm9rZTojMTgxODE4O3N0cm9rZS13aWR0aDoxOyIvPjx0ZXh0IGZpbGw9IiMwMDAwMDAiIGZvbnQtZmFtaWx5PSJzYW5zLXNlcmlmIiBmb250LXNpemU9IjEzIiBsZW5ndGhBZGp1c3Q9InNwYWNpbmciIHRleHRMZW5ndGg9IjEyMy41IiB4PSIxMDExIiB5PSI2OTUuMjU3OCI+VXNlciBzdWJtaXRzIHJldmlldzwvdGV4dD48L2c+PCEtLWxpbmsgV2l0aFJldmlld3MgdG8gV2l0aFJldmlld3MtLT48ZyBjbGFzcz0ibGluayIgZGF0YS1lbnRpdHktMT0iV2l0aFJldmlld3MiIGRhdGEtZW50aXR5LTI9IldpdGhSZXZpZXdzIiBkYXRhLXNvdXJjZS1saW5lPSIyNyIgZGF0YS11aWQ9ImxuazMxIiBpZD0ibGlua19XaXRoUmV2aWV3c19XaXRoUmV2aWV3cyI+PHBhdGggZD0iTTEwNTguNzEsNzMwLjg5ODggQzEwNjkuMDQsNzMxLjgxODggMTA3Ni41LDczNC44Mzg4IDEwNzYuNSw3MzkuOTY4OCBDMTA3Ni41LDc0NS4wOTg4IDEwNzUuMDE2Myw3NDcuNTg2NSAxMDY0LjY4NjMsNzQ4LjUwNjUiIGZpbGw9Im5vbmUiIGlkPSJXaXRoUmV2aWV3cy10by1XaXRoUmV2aWV3cyIgc3R5bGU9InN0cm9rZTojMTgxODE4O3N0cm9rZS13aWR0aDoxOyIvPjxwb2x5Z29uIGZpbGw9IiMxODE4MTgiIHBvaW50cz0iMTA1OC43MSw3NDkuMDM4NywxMDY4LjAyOTQsNzUyLjIyNDYsMTA2My42OTAzLDc0OC41OTUyLDEwNjcuMzE5Nyw3NDQuMjU2MSwxMDU4LjcxLDc0OS4wMzg3IiBzdHlsZT0ic3Ryb2tlOiMxODE4MTg7c3Ryb2tlLXdpZHRoOjE7Ii8+PHRleHQgZmlsbD0iIzAwMDAwMCIgZm9udC1mYW1pbHk9InNhbnMtc2VyaWYiIGZvbnQtc2l6ZT0iMTMiIGxlbmd0aEFkanVzdD0ic3BhY2luZyIgdGV4dExlbmd0aD0iMTQzIiB4PSIxMDgyLjUiIHk9Ijc0NS43NTc4Ij5Nb3JlIHJldmlld3Mgc3VibWl0dGVkPC90ZXh0PjwvZz48ZWxsaXBzZSBjeD0iMjAiIGN5PSI1MS45ODQ0IiBmaWxsPSIjMjIyMjIyIiByeD0iMTAiIHJ5PSIxMCIgc3R5bGU9InN0cm9rZTojMjIyMjIyO3N0cm9rZS13aWR0aDoxOyIvPjxlbGxpcHNlIGN4PSIxMjAyIiBjeT0iODYwLjk4NDQiIGZpbGw9Im5vbmUiIHJ4PSIxMSIgcnk9IjExIiBzdHlsZT0ic3Ryb2tlOiMyMjIyMjI7c3Ryb2tlLXdpZHRoOjE7Ii8+PGVsbGlwc2UgY3g9IjEyMDIiIGN5PSI4NjAuOTg0NCIgZmlsbD0iIzIyMjIyMiIgcng9IjYiIHJ5PSI2IiBzdHlsZT0ic3Ryb2tlOiMyMjIyMjI7c3Ryb2tlLXdpZHRoOjE7Ii8+PCEtLWxpbmsgKnN0YXJ0KiB0byBEcmFmdC0tPjxnIGNsYXNzPSJsaW5rIiBkYXRhLWVudGl0eS0xPSIqc3RhcnQqIiBkYXRhLWVudGl0eS0yPSJEcmFmdCIgZGF0YS1zb3VyY2UtbGluZT0iMyIgZGF0YS11aWQ9ImxuazMiIGlkPSJsaW5rXypzdGFydCpfRHJhZnQiPjxwYXRoIGQ9Ik0yMCw2Mi4xOTQ0IEMyMCw2OS40MTY5IDIwLDgwLjI3ODggMjAsOTIuNTUxNCBDMjAsOTguNjg3NyAyMCwxMDUuMTc2OCAyMCwxMTEuNzM5OSBDMjAsMTE1LjAyMTUgMjAsMTE4LjMyMTYgMjAsMTIxLjYwNTQgQzIwLDEyMy4yNDczIDIwLDEyNC44ODUxIDIwLDEyNi41MTQ1IEMyMCwxMjcuMzI5MiAyMCwxMjguMTQxOCAyMCwxMjguOTUxOCBDMjAsMTI5LjM1NjggMjAsMTI5Ljc2MTEgMjAsMTMwLjE2NDYgQzIwLDEzMC4zNjY0IDIwLDEyNC41NjggMjAsMTI0Ljc2OTUiIGZpbGw9Im5vbmUiIGlkPSIqc3RhcnQqLXRvLURyYWZ0IiBzdHlsZT0ic3Ryb2tlOiMxODE4MTg7c3Ryb2tlLXdpZHRoOjE7Ii8+PHBvbHlnb24gZmlsbD0iIzE4MTgxOCIgcG9pbnRzPSIyMCwxMzAuNzY5NSwyNCwxMjEuNzY5NSwyMCwxMjUuNzY5NSwxNiwxMjEuNzY5NSwyMCwxMzAuNzY5NSIgc3R5bGU9InN0cm9rZTojMTgxODE4O3N0cm9rZS13aWR0aDoxOyIvPjx0ZXh0IGZpbGw9IiMwMDAwMDAiIGZvbnQtZmFtaWx5PSJzYW5zLXNlcmlmIiBmb250LXNpemU9IjEzIiBsZW5ndGhBZGp1c3Q9InNwYWNpbmciIHRleHRMZW5ndGg9IjEzNi41IiB4PSIyMSIgeT0iMTA1LjI3MzQiPlVzZXIgZW50ZXJzIGdhbWUgbmFtZTwvdGV4dD48L2c+PCEtLWxpbmsgKnN0YXJ0KkRyYWZ0IHRvIE5hbWVFbnRlcmVkLS0+PGcgY2xhc3M9ImxpbmsiIGRhdGEtZW50aXR5LTE9IipzdGFydCpEcmFmdCIgZGF0YS1lbnRpdHktMj0iTmFtZUVudGVyZWQiIGRhdGEtc291cmNlLWxpbmU9IjYiIGRhdGEtdWlkPSJsbms2IiBpZD0ibGlua18qc3RhcnQqRHJhZnRfTmFtZUVudGVyZWQiPjxwYXRoIGQ9Ik0xNjgsMTkxLjk5NDQgQzE2OCwyMDUuODc0NCAxNjgsMjI2Ljk1NDQgMTY4LDI0Ni44MjQ0IiBmaWxsPSJub25lIiBpZD0iKnN0YXJ0KkRyYWZ0LXRvLU5hbWVFbnRlcmVkIiBzdHlsZT0ic3Ryb2tlOiMxODE4MTg7c3Ryb2tlLXdpZHRoOjE7Ii8+PHBvbHlnb24gZmlsbD0iIzE4MTgxOCIgcG9pbnRzPSIxNjgsMjUyLjgyNDQsMTcyLDI0My44MjQ0LDE2OCwyNDcuODI0NCwxNjQsMjQzLjgyNDQsMTY4LDI1Mi44MjQ0IiBzdHlsZT0ic3Ryb2tlOiMxODE4MTg7c3Ryb2tlLXdpZHRoOjE7Ii8+PC9nPjwhLS1saW5rIE5hbWVFbnRlcmVkIHRvIEF1dG9GZXRjaGVkLS0+PGcgY2xhc3M9ImxpbmsiIGRhdGEtZW50aXR5LTE9Ik5hbWVFbnRlcmVkIiBkYXRhLWVudGl0eS0yPSJBdXRvRmV0Y2hlZCIgZGF0YS1zb3VyY2UtbGluZT0iNyIgZGF0YS11aWQ9ImxuazgiIGlkPSJsaW5rX05hbWVFbnRlcmVkX0F1dG9GZXRjaGVkIj48cGF0aCBkPSJNMTE5LjM0LDI5NS44MTQ0IEMxMDIuNTUsMzA0LjIyNDQgODUuNTcsMzE2LjI2NDQgNzYsMzMyLjk4NDQgQzY3LjU2LDM0Ny43MjQ0IDcyLjM1MjksMzU5LjkwMzQgODMuMzkyOSwzNzMuMjMzNCIgZmlsbD0ibm9uZSIgaWQ9Ik5hbWVFbnRlcmVkLXRvLUF1dG9GZXRjaGVkIiBzdHlsZT0ic3Ryb2tlOiMxODE4MTg7c3Ryb2tlLXdpZHRoOjE7Ii8+PHBvbHlnb24gZmlsbD0iIzE4MTgxOCIgcG9pbnRzPSI4Ny4yMiwzNzcuODU0NCw4NC41NiwzNjguMzcxNSw4NC4wMzA3LDM3NC4wMDM2LDc4LjM5ODcsMzczLjQ3NDMsODcuMjIsMzc3Ljg1NDQiIHN0eWxlPSJzdHJva2U6IzE4MTgxODtzdHJva2Utd2lkdGg6MTsiLz48dGV4dCBmaWxsPSIjMDAwMDAwIiBmb250LWZhbWlseT0ic2Fucy1zZXJpZiIgZm9udC1zaXplPSIxMyIgbGVuZ3RoQWRqdXN0PSJzcGFjaW5nIiB0ZXh0TGVuZ3RoPSIxMjMuNSIgeD0iNzciIHk9IjM0Ni4yNzM0Ij5SQVdHIEFQSSBkYXRhIGZvdW5kPC90ZXh0PjwvZz48IS0tbGluayBOYW1lRW50ZXJlZCB0byBNYW51YWxFbnRyeS0tPjxnIGNsYXNzPSJsaW5rIiBkYXRhLWVudGl0eS0xPSJOYW1lRW50ZXJlZCIgZGF0YS1lbnRpdHktMj0iTWFudWFsRW50cnkiIGRhdGEtc291cmNlLWxpbmU9IjgiIGRhdGEtdWlkPSJsbmsxMCIgaWQ9ImxpbmtfTmFtZUVudGVyZWRfTWFudWFsRW50cnkiPjxwYXRoIGQ9Ik0xOTEuNjIsMzAyLjk5NDQgQzIxMi44LDMyNC41MjQ0IDIzOS41MzIxLDM1MS42OTczIDI2MC44MjIxLDM3My4zMzczIiBmaWxsPSJub25lIiBpZD0iTmFtZUVudGVyZWQtdG8tTWFudWFsRW50cnkiIHN0eWxlPSJzdHJva2U6IzE4MTgxODtzdHJva2Utd2lkdGg6MTsiLz48cG9seWdvbiBmaWxsPSIjMTgxODE4IiBwb2ludHM9IjI2NS4wMywzNzcuNjE0NCwyNjEuNTY5NSwzNjguMzkzNSwyNjEuNTIzNCwzNzQuMDUwMSwyNTUuODY2NywzNzQuMDA0LDI2NS4wMywzNzcuNjE0NCIgc3R5bGU9InN0cm9rZTojMTgxODE4O3N0cm9rZS13aWR0aDoxOyIvPjx0ZXh0IGZpbGw9IiMwMDAwMDAiIGZvbnQtZmFtaWx5PSJzYW5zLXNlcmlmIiBmb250LXNpemU9IjEzIiBsZW5ndGhBZGp1c3Q9InNwYWNpbmciIHRleHRMZW5ndGg9IjE0OS41IiB4PSIyMzciIHk9IjM0Ni4yNzM0Ij5SQVdHIEFQSSBkYXRhIG5vdCBmb3VuZDwvdGV4dD48L2c+PCEtLWxpbmsgQXV0b0ZldGNoZWQgdG8gUGVuZGluZ0FwcHJvdmFsLS0+PGcgY2xhc3M9ImxpbmsiIGRhdGEtZW50aXR5LTE9IkF1dG9GZXRjaGVkIiBkYXRhLWVudGl0eS0yPSJQZW5kaW5nQXBwcm92YWwiIGRhdGEtc291cmNlLWxpbmU9IjkiIGRhdGEtdWlkPSJsbmsxMSIgaWQ9ImxpbmtfQXV0b0ZldGNoZWRfUGVuZGluZ0FwcHJvdmFsIj48cGF0aCBkPSJNMTIzLjkxLDQyOC4xOTQ0IEMxMzMuNDEsNDQ3LjE1NDQgMTQ4LjY3LDQ3My4xOTQ0IDE2OCw0OTAuOTg0NCBDMjIyLjI4LDU0MC45NDQ0IDI5NS41Niw1NzkuNTE2OSAzNTUuOTg3NSw2MDUuODA4MSBDMzg2LjIwMTMsNjE4Ljk1MzggNDEzLjIwMTksNjI5LjAyOTEgNDMzLjAwNzgsNjM1LjkyMjMgQzQ0Mi45MTA4LDYzOS4zNjkgNDUxLjAxNTEsNjQyLjAyMDEgNDU2LjgyMyw2NDMuODYxOCBDNDU3LjU0OSw2NDQuMDkyIDQ1Mi41MTQxLDY0Mi41MTQgNDUzLjE2NzMsNjQyLjcxODkiIGZpbGw9Im5vbmUiIGlkPSJBdXRvRmV0Y2hlZC10by1QZW5kaW5nQXBwcm92YWwiIHN0eWxlPSJzdHJva2U6IzE4MTgxODtzdHJva2Utd2lkdGg6MTsiLz48cG9seWdvbiBmaWxsPSIjMTgxODE4IiBwb2ludHM9IjQ1OC44OTI0LDY0NC41MTQ0LDQ1MS41MDE5LDYzOC4wMDQ0LDQ1NC4xMjE1LDY0My4wMTgxLDQ0OS4xMDc4LDY0NS42Mzc4LDQ1OC44OTI0LDY0NC41MTQ0IiBzdHlsZT0ic3Ryb2tlOiMxODE4MTg7c3Ryb2tlLXdpZHRoOjE7Ii8+PHRleHQgZmlsbD0iIzAwMDAwMCIgZm9udC1mYW1pbHk9InNhbnMtc2VyaWYiIGZvbnQtc2l6ZT0iMTMiIGxlbmd0aEFkanVzdD0ic3BhY2luZyIgdGV4dExlbmd0aD0iMTY5IiB4PSIxNjkiIHk9IjQ4OS4yNzM0Ij5EYXRhIHNhdmVkIGluIFBlbmRpbmdHYW1lczwvdGV4dD48L2c+PCEtLWxpbmsgTWFudWFsRW50cnkgdG8gUGVuZGluZ0FwcHJvdmFsLS0+PGcgY2xhc3M9ImxpbmsiIGRhdGEtZW50aXR5LTE9Ik1hbnVhbEVudHJ5IiBkYXRhLWVudGl0eS0yPSJQZW5kaW5nQXBwcm92YWwiIGRhdGEtc291cmNlLWxpbmU9IjEwIiBkYXRhLXVpZD0ibG5rMTIiIGlkPSJsaW5rX01hbnVhbEVudHJ5X1BlbmRpbmdBcHByb3ZhbCI+PHBhdGggZD0iTTMwNi43Miw0MjguMTc0NCBDMzI4Ljg4LDQ1OC40MjQ0IDM2OC4wNTUsNTExLjkwNDQgNDAyLjEyNzUsNTU4LjQxOTQgQzQxOS4xNjM4LDU4MS42NzY5IDQzNC45MjQ0LDYwMy4xOTMxIDQ0Ni42NDQ3LDYxOS4xOTM4IEM0NDkuNTc0OCw2MjMuMTkzOSA0NTIuMjUyMyw2MjYuODQ5MyA0NTQuNjM0Miw2MzAuMTAxMSBDNDU1LjgyNTEsNjMxLjcyNjkgNDU2Ljk0MjEsNjMzLjI1MTkgNDU3Ljk3OTcsNjM0LjY2ODUgQzQ1OC4yMzkyLDYzNS4wMjI3IDQ1NC45NDgxLDYzMC41Mjk3IDQ1NS4xOTc1LDYzMC44NzAyIiBmaWxsPSJub25lIiBpZD0iTWFudWFsRW50cnktdG8tUGVuZGluZ0FwcHJvdmFsIiBzdHlsZT0ic3Ryb2tlOiMxODE4MTg7c3Ryb2tlLXdpZHRoOjE7Ii8+PHBvbHlnb24gZmlsbD0iIzE4MTgxOCIgcG9pbnRzPSI0NTguNzQzLDYzNS43MTA2LDQ1Ni42NTE3LDYyNi4wODYzLDQ1NS43ODg1LDYzMS42NzY5LDQ1MC4xOTc5LDYzMC44MTM2LDQ1OC43NDMsNjM1LjcxMDYiIHN0eWxlPSJzdHJva2U6IzE4MTgxODtzdHJva2Utd2lkdGg6MTsiLz48dGV4dCBmaWxsPSIjMDAwMDAwIiBmb250LWZhbWlseT0ic2Fucy1zZXJpZiIgZm9udC1zaXplPSIxMyIgbGVuZ3RoQWRqdXN0PSJzcGFjaW5nIiB0ZXh0TGVuZ3RoPSIxMzAiIHg9IjM1MyIgeT0iNDg5LjI3MzQiPlVzZXIgc3VibWl0cyBkZXRhaWxzPC90ZXh0PjwvZz48IS0tbGluayAqc3RhcnQqUGVuZGluZ0FwcHJvdmFsIHRvIFdhaXRpbmctLT48ZyBjbGFzcz0ibGluayIgZGF0YS1lbnRpdHktMT0iKnN0YXJ0KlBlbmRpbmdBcHByb3ZhbCIgZGF0YS1lbnRpdHktMj0iV2FpdGluZyIgZGF0YS1zb3VyY2UtbGluZT0iMTQiIGRhdGEtdWlkPSJsbmsxNSIgaWQ9ImxpbmtfKnN0YXJ0KlBlbmRpbmdBcHByb3ZhbF9XYWl0aW5nIj48cGF0aCBkPSJNNjgzLDE5MS45OTQ0IEM2ODMsMjA1Ljg3NDQgNjgzLDIyNi45NTQ0IDY4MywyNDYuODI0NCIgZmlsbD0ibm9uZSIgaWQ9IipzdGFydCpQZW5kaW5nQXBwcm92YWwtdG8tV2FpdGluZyIgc3R5bGU9InN0cm9rZTojMTgxODE4O3N0cm9rZS13aWR0aDoxOyIvPjxwb2x5Z29uIGZpbGw9IiMxODE4MTgiIHBvaW50cz0iNjgzLDI1Mi44MjQ0LDY4NywyNDMuODI0NCw2ODMsMjQ3LjgyNDQsNjc5LDI0My44MjQ0LDY4MywyNTIuODI0NCIgc3R5bGU9InN0cm9rZTojMTgxODE4O3N0cm9rZS13aWR0aDoxOyIvPjwvZz48IS0tbGluayBXYWl0aW5nIHRvIEFwcHJvdmVkLS0+PGcgY2xhc3M9ImxpbmsiIGRhdGEtZW50aXR5LTE9IldhaXRpbmciIGRhdGEtZW50aXR5LTI9IkFwcHJvdmVkIiBkYXRhLXNvdXJjZS1saW5lPSIxNSIgZGF0YS11aWQ9ImxuazE3IiBpZD0ibGlua19XYWl0aW5nX0FwcHJvdmVkIj48cGF0aCBkPSJNNjc4LjgzLDMwMy4yMTQ0IEM2NzcuMywzMTYuNTc0NCA2NzYuNjcsMzMzLjM3NDQgNjgwLDM0Ny45ODQ0IEM2ODIuMzQsMzU4LjIzNDQgNjg0LjE0MDIsMzYzLjQ1NjUgNjg4Ljc4MDIsMzcyLjQ5NjUiIGZpbGw9Im5vbmUiIGlkPSJXYWl0aW5nLXRvLUFwcHJvdmVkIiBzdHlsZT0ic3Ryb2tlOiMxODE4MTg7c3Ryb2tlLXdpZHRoOjE7Ii8+PHBvbHlnb24gZmlsbD0iIzE4MTgxOCIgcG9pbnRzPSI2OTEuNTIsMzc3LjgzNDQsNjkwLjk2ODksMzY4LjAwMDksNjg5LjIzNjgsMzczLjM4NjEsNjgzLjg1MTcsMzcxLjY1NCw2OTEuNTIsMzc3LjgzNDQiIHN0eWxlPSJzdHJva2U6IzE4MTgxODtzdHJva2Utd2lkdGg6MTsiLz48dGV4dCBmaWxsPSIjMDAwMDAwIiBmb250LWZhbWlseT0ic2Fucy1zZXJpZiIgZm9udC1zaXplPSIxMyIgbGVuZ3RoQWRqdXN0PSJzcGFjaW5nIiB0ZXh0TGVuZ3RoPSI5MSIgeD0iNjgxIiB5PSIzNDYuMjczNCI+QWRtaW4gYXBwcm92ZXM8L3RleHQ+PC9nPjwhLS1saW5rIFdhaXRpbmcgdG8gUmVqZWN0ZWQtLT48ZyBjbGFzcz0ibGluayIgZGF0YS1lbnRpdHktMT0iV2FpdGluZyIgZGF0YS1lbnRpdHktMj0iUmVqZWN0ZWQiIGRhdGEtc291cmNlLWxpbmU9IjE2IiBkYXRhLXVpZD0ibG5rMTkiIGlkPSJsaW5rX1dhaXRpbmdfUmVqZWN0ZWQiPjxwYXRoIGQ9Ik03MTcuNjgsMjk1LjYwNDQgQzczNi4xNywzMDUuMjU0NCA3NTguOCwzMTguMzg0NCA3NzcsMzMyLjk4NDQgQzc5My40NSwzNDYuMTg0NCA4MDUuNjAyMSwzNTkuMTUyNCA4MTcuMzUyMSwzNzMuMjcyNCIgZmlsbD0ibm9uZSIgaWQ9IldhaXRpbmctdG8tUmVqZWN0ZWQiIHN0eWxlPSJzdHJva2U6IzE4MTgxODtzdHJva2Utd2lkdGg6MTsiLz48cG9seWdvbiBmaWxsPSIjMTgxODE4IiBwb2ludHM9IjgyMS4xOSwzNzcuODg0NCw4MTguNTA3OCwzNjguNDA3OCw4MTcuOTkxOCwzNzQuMDQxLDgxMi4zNTg1LDM3My41MjUsODIxLjE5LDM3Ny44ODQ0IiBzdHlsZT0ic3Ryb2tlOiMxODE4MTg7c3Ryb2tlLXdpZHRoOjE7Ii8+PHRleHQgZmlsbD0iIzAwMDAwMCIgZm9udC1mYW1pbHk9InNhbnMtc2VyaWYiIGZvbnQtc2l6ZT0iMTMiIGxlbmd0aEFkanVzdD0ic3BhY2luZyIgdGV4dExlbmd0aD0iODQuNSIgeD0iNzkzIiB5PSIzNDYuMjczNCI+QWRtaW4gcmVqZWN0czwvdGV4dD48L2c+PCEtLWxpbmsgV2FpdGluZyB0byBFZGl0ZWQtLT48ZyBjbGFzcz0ibGluayIgZGF0YS1lbnRpdHktMT0iV2FpdGluZyIgZGF0YS1lbnRpdHktMj0iRWRpdGVkIiBkYXRhLXNvdXJjZS1saW5lPSIxNyIgZGF0YS11aWQ9ImxuazIxIiBpZD0ibGlua19XYWl0aW5nX0VkaXRlZCI+PHBhdGggZD0iTTY0OC4yNCwyODQuNjk0NCBDNjE3LjU0LDI5MS4zOTQ0IDU3My4zNiwzMDUuMzI0NCA1NDUsMzMyLjk4NDQgQzUzMi42MywzNDUuMDU0NCA1MjYuOTMyNSwzNTcuNDM2NCA1MjIuNzMyNSwzNzIuMDk2NCIgZmlsbD0ibm9uZSIgaWQ9IldhaXRpbmctdG8tRWRpdGVkIiBzdHlsZT0ic3Ryb2tlOiMxODE4MTg7c3Ryb2tlLXdpZHRoOjE7Ii8+PHBvbHlnb24gZmlsbD0iIzE4MTgxOCIgcG9pbnRzPSI1MjEuMDgsMzc3Ljg2NDQsNTI3LjQwNCwzNzAuMzE0MSw1MjIuNDU3MSwzNzMuMDU3Nyw1MTkuNzEzNCwzNjguMTEwOCw1MjEuMDgsMzc3Ljg2NDQiIHN0eWxlPSJzdHJva2U6IzE4MTgxODtzdHJva2Utd2lkdGg6MTsiLz48dGV4dCBmaWxsPSIjMDAwMDAwIiBmb250LWZhbWlseT0ic2Fucy1zZXJpZiIgZm9udC1zaXplPSIxMyIgbGVuZ3RoQWRqdXN0PSJzcGFjaW5nIiB0ZXh0TGVuZ3RoPSIxMjMuNSIgeD0iNTQ2IiB5PSIzNDYuMjczNCI+QWRtaW4gZWRpdHMgZGV0YWlsczwvdGV4dD48L2c+PCEtLWxpbmsgRWRpdGVkIHRvIFBlbmRpbmdBcHByb3ZhbC0tPjxnIGNsYXNzPSJsaW5rIiBkYXRhLWVudGl0eS0xPSJFZGl0ZWQiIGRhdGEtZW50aXR5LTI9IlBlbmRpbmdBcHByb3ZhbCIgZGF0YS1zb3VyY2UtbGluZT0iMTgiIGRhdGEtdWlkPSJsbmsyMiIgaWQ9ImxpbmtfRWRpdGVkX1BlbmRpbmdBcHByb3ZhbCI+PHBhdGggZD0iTTUxMS4xMiw0MjguMTc0NCBDNDk4LjkyLDQ4OC42NzQ0IDQ2OS4xODMzLDYzNi4yMTQyIDQ2OC4yMTMzLDY0MC45OTQyIiBmaWxsPSJub25lIiBpZD0iRWRpdGVkLXRvLVBlbmRpbmdBcHByb3ZhbCIgc3R5bGU9InN0cm9rZTojMTgxODE4O3N0cm9rZS13aWR0aDoxOyIvPjxwb2x5Z29uIGZpbGw9IiMxODE4MTgiIHBvaW50cz0iNDY3LjAyLDY0Ni44NzQ0LDQ3Mi43Myw2MzguODQ5Nyw0NjguMDE0NCw2NDEuOTc0Myw0NjQuODg5OCw2MzcuMjU4Nyw0NjcuMDIsNjQ2Ljg3NDQiIHN0eWxlPSJzdHJva2U6IzE4MTgxODtzdHJva2Utd2lkdGg6MTsiLz48dGV4dCBmaWxsPSIjMDAwMDAwIiBmb250LWZhbWlseT0ic2Fucy1zZXJpZiIgZm9udC1zaXplPSIxMyIgbGVuZ3RoQWRqdXN0PSJzcGFjaW5nIiB0ZXh0TGVuZ3RoPSIxNTYiIHg9IjUwMiIgeT0iNDg5LjI3MzQiPlJlc3VibWl0dGVkIGZvciBhcHByb3ZhbDwvdGV4dD48L2c+PCEtLWxpbmsgQXBwcm92ZWQgdG8gTGl2ZS0tPjxnIGNsYXNzPSJsaW5rIiBkYXRhLWVudGl0eS0xPSJBcHByb3ZlZCIgZGF0YS1lbnRpdHktMj0iTGl2ZSIgZGF0YS1zb3VyY2UtbGluZT0iMjEiIGRhdGEtdWlkPSJsbmsyMyIgaWQ9ImxpbmtfQXBwcm92ZWRfTGl2ZSI+PHBhdGggZD0iTTcyOC40OSw0MjguMjI0NCBDNzQzLjEzLDQ0Mi4zNTQ0IDc2My40Niw0NTkuMDk0NCA3ODUsNDY3Ljk4NDQgQzgxNy4yMSw0ODEuMjg0NCA4MzAuMDcsNDY0LjU3NDQgODYzLDQ3NS45ODQ0IEM4OTMuNDksNDg2LjU1NDQgOTE4LjMzODUsNDk5LjM0NTEgOTQ1LjkzODUsNTE3LjUxNTEiIGZpbGw9Im5vbmUiIGlkPSJBcHByb3ZlZC10by1MaXZlIiBzdHlsZT0ic3Ryb2tlOiMxODE4MTg7c3Ryb2tlLXdpZHRoOjE7Ii8+PHBvbHlnb24gZmlsbD0iIzE4MTgxOCIgcG9pbnRzPSI5NTAuOTUsNTIwLjgxNDQsOTQ1LjYzMjIsNTEyLjUyNDUsOTQ2Ljc3MzgsNTE4LjA2NSw5NDEuMjMzMyw1MTkuMjA2NSw5NTAuOTUsNTIwLjgxNDQiIHN0eWxlPSJzdHJva2U6IzE4MTgxODtzdHJva2Utd2lkdGg6MTsiLz48dGV4dCBmaWxsPSIjMDAwMDAwIiBmb250LWZhbWlseT0ic2Fucy1zZXJpZiIgZm9udC1zaXplPSIxMyIgbGVuZ3RoQWRqdXN0PSJzcGFjaW5nIiB0ZXh0TGVuZ3RoPSIxNTYiIHg9Ijg5OSIgeT0iNDg5LjI3MzQiPk1vdmUgdG8gR2FtZXMgY29sbGVjdGlvbjwvdGV4dD48L2c+PCEtLWxpbmsgUmVqZWN0ZWQgdG8gKmVuZCotLT48ZyBjbGFzcz0ibGluayIgZGF0YS1lbnRpdHktMT0iUmVqZWN0ZWQiIGRhdGEtZW50aXR5LTI9IiplbmQqIiBkYXRhLXNvdXJjZS1saW5lPSIyMiIgZGF0YS11aWQ9ImxuazI1IiBpZD0ibGlua19SZWplY3RlZF8qZW5kKiI+PHBhdGggZD0iTTg3OC4wMiw0MDMuNDE0NCBDOTU5LjA0LDQwNC4zMTQ0IDExNTAuMDYsNDE3Ljk3NDQgMTI1OCw1MjAuOTg0NCBDMTM1OC43Nyw2MTcuMTU0NCAxNDM2Ljg3LDcwOS41MjQ0IDEzNTIsODE5Ljk4NDQgQzEzMzQuNzYsODQyLjQyNDQgMTI1MC44Mjc5LDg1NC4yNTUxIDEyMTkuMDc3OSw4NTguMDM1MSIgZmlsbD0ibm9uZSIgaWQ9IlJlamVjdGVkLXRvLSplbmQqIiBzdHlsZT0ic3Ryb2tlOiMxODE4MTg7c3Ryb2tlLXdpZHRoOjE7Ii8+PHBvbHlnb24gZmlsbD0iIzE4MTgxOCIgcG9pbnRzPSIxMjEzLjEyLDg1OC43NDQ0LDEyMjIuNTI5OCw4NjEuNjUyMywxMjE4LjA4NDksODU4LjE1MzMsMTIyMS41ODQsODUzLjcwODQsMTIxMy4xMiw4NTguNzQ0NCIgc3R5bGU9InN0cm9rZTojMTgxODE4O3N0cm9rZS13aWR0aDoxOyIvPjx0ZXh0IGZpbGw9IiMwMDAwMDAiIGZvbnQtZmFtaWx5PSJzYW5zLXNlcmlmIiBmb250LXNpemU9IjEzIiBsZW5ndGhBZGp1c3Q9InNwYWNpbmciIHRleHRMZW5ndGg9IjEyMy41IiB4PSIxMzg5IiB5PSI2NTMuNzczNCI+R2FtZSByZXF1ZXN0IGNsb3NlZDwvdGV4dD48L2c+PCEtLWxpbmsgTGl2ZSB0byAqZW5kKi0tPjxnIGNsYXNzPSJsaW5rIiBkYXRhLWVudGl0eS0xPSJMaXZlIiBkYXRhLWVudGl0eS0yPSIqZW5kKiIgZGF0YS1zb3VyY2UtbGluZT0iMzAiIGRhdGEtdWlkPSJsbmszMiIgaWQ9ImxpbmtfTGl2ZV8qZW5kKiI+PHBhdGggZD0iTTEwMTUuNjUsNzc1LjIwNDQgQzEwMTQuMDYsNzkxLjExNDQgMTAxNy4yOCw4MDYuNTE0NCAxMDI4LDgxOS45ODQ0IEMxMDQ4LjU2LDg0NS44MTQ0IDExNDkuMzc4OSw4NTUuODc4MyAxMTg0LjY3ODksODU4LjY4ODMiIGZpbGw9Im5vbmUiIGlkPSJMaXZlLXRvLSplbmQqIiBzdHlsZT0ic3Ryb2tlOiMxODE4MTg7c3Ryb2tlLXdpZHRoOjE7Ii8+PHBvbHlnb24gZmlsbD0iIzE4MTgxOCIgcG9pbnRzPSIxMTkwLjY2LDg1OS4xNjQ0LDExODIuMDA1OCw4NTQuNDYyOCwxMTg1LjY3NTgsODU4Ljc2NzYsMTE4MS4zNzEsODYyLjQzNzYsMTE5MC42Niw4NTkuMTY0NCIgc3R5bGU9InN0cm9rZTojMTgxODE4O3N0cm9rZS13aWR0aDoxOyIvPjx0ZXh0IGZpbGw9IiMwMDAwMDAiIGZvbnQtZmFtaWx5PSJzYW5zLXNlcmlmIiBmb250LXNpemU9IjEzIiBsZW5ndGhBZGp1c3Q9InNwYWNpbmciIHRleHRMZW5ndGg9IjMxOC41IiB4PSIxMDI5IiB5PSI4MTguMjczNCI+R2FtZSBhcmNoaXZlZCBvciByZW1vdmVkIChvcHRpb25hbCBhYm5vcm1hbCBleGl0KTwvdGV4dD48L2c+PCEtLVNSQz1bUkw5MUppQ200QnBkNU5rYUlGcjAzcVlITVgwSUhRVzh6TzB1UjlEalEtSk9uVHU0NEVCbHgzZjlQT0xVOGRqc25mYVBjbXJSV2NUNmZrZzhXTTVmeTEybVdKZFNPS0ZtT0ZQS1ZMVjJrVEJ6aXRVRVU1T0toelRsQzlfVm0zQldkYzQxQnY0MmE2Q0E0R3VnVEY4ZllnVzczd0lWMGMyS0ZTZnFmTW9nMVNyc1FMZ3N4Ni05Z3dGaTV4MGZqdFRHRmpyM1pPb216d3N4ZjVjWlF6NEE0aHhfUVBwZGlvdV9NdExGdjZoWjNrTmY1N283TGhIQmJLSmlYNjNTRURWbUtVSnZSb3hCS25FbnRKTTY4eko0UTZtaVZpU2dmbG95YjJxUWJmYVdtd2VsOHI1SjRzTlRZMkZpV0paWFJVWVRBaXZ1OEc1SnNnZXNFT2RndDJRQ3V5bEhEakpkS2lSVVh5NDlNZXJ0amdkSTF6RUh5RFMyMEZscWFZOUt0YmVuUEJtaHBid0xoRjROX01pQnpENUlQQVlpWl84b1hpeElRTmJIUElUa1NNVDl4dERTem5LUUZjd2VDX0dQZnJTSDRnbmpQOXBfY2hLRkQ3MFpkRURnbWNIWk9YWDNUSklRTWplOHJBRzJobG45R3FmWms3Qy1EQkFXQnlFcEZtMDBdLS0+PC9nPjwvc3ZnPg==;" vertex="1" parent="1">
            <mxGeometry x="-360" y="-130" width="1520" height="877" as="geometry" />
          </mxCell>
        </UserObject>
        <UserObject label="" plantUmlData="{&#xa;  &quot;data&quot;: &quot;@startuml\ntitle Statechart Diagram - User Lifecycle (GameSonnet)\n\n[*] --&gt; Guest : Open website\n\nstate Guest {\n  [*] --&gt; Browsing\n  Browsing --&gt; Register : Click Signup\n  Browsing --&gt; Login : Click Login\n  Register --&gt; LoggedIn : Account created\n  Login --&gt; LoggedIn : Credentials validated\n}\n\nstate LoggedIn {\n  [*] --&gt; Idle\n  Idle --&gt; Contributor : Add game (auto/manual)\n  Idle --&gt; Reviewer : Submit review\n  Idle --&gt; ViewSuggestions : Access \&quot;Your Suggestions\&quot;\n\n  Contributor --&gt; Idle : Game submitted to PendingGames\n  Reviewer --&gt; Idle : Review saved in MongoDB\n\n  state Contributor {\n    [*] --&gt; Suggested\n    Suggested --&gt; WaitingApproval : Game in PendingGames\n    WaitingApproval --&gt; Approved : Admin approves\n    WaitingApproval --&gt; Rejected : Admin rejects\n  }\n\n  state Reviewer {\n    [*] --&gt; WritingReview\n    WritingReview --&gt; Submitted : Review saved\n    Submitted --&gt; WritingReview : Another review\n  }\n\n  Idle --&gt; Admin : User has admin privileges\n}\n\nstate Admin {\n  [*] --&gt; Managing\n  Managing --&gt; Approving : Approve Game\n  Managing --&gt; Rejecting : Reject Game\n  Managing --&gt; Editing : Edit Game Details\n  Approving --&gt; Managing\n  Rejecting --&gt; Managing\n  Editing --&gt; Managing\n}\n\nLoggedIn --&gt; Logout : User logs out\nLogout --&gt; Guest\n\n@enduml\n&quot;,&#xa;  &quot;format&quot;: &quot;svg&quot;&#xa;}" id="5_kCgBCr4Gi-t9478Dj4-2">
          <mxCell style="shape=image;noLabel=1;verticalAlign=top;aspect=fixed;imageAspect=0;image=data:image/svg+xml,PHN2ZyB4bWxucz0iaHR0cDovL3d3dy53My5vcmcvMjAwMC9zdmciIHhtbG5zOnhsaW5rPSJodHRwOi8vd3d3LnczLm9yZy8xOTk5L3hsaW5rIiBjb250ZW50U3R5bGVUeXBlPSJ0ZXh0L2NzcyIgZGF0YS1kaWFncmFtLXR5cGU9IlNUQVRFIiBoZWlnaHQ9IjE0MjVweCIgcHJlc2VydmVBc3BlY3RSYXRpbz0ibm9uZSIgc3R5bGU9IndpZHRoOjEyMjJweDtoZWlnaHQ6MTQyNXB4O2JhY2tncm91bmQ6I0ZGRkZGRjsiIHZlcnNpb249IjEuMSIgdmlld0JveD0iMCAwIDEyMjIgMTQyNSIgd2lkdGg9IjEyMjJweCIgem9vbUFuZFBhbj0ibWFnbmlmeSI+PHRpdGxlPlN0YXRlY2hhcnQgRGlhZ3JhbSAtIFVzZXIgTGlmZWN5Y2xlIChHYW1lU29ubmV0KTwvdGl0bGU+PGRlZnMvPjxnPjx0ZXh0IGZpbGw9IiMwMDAwMDAiIGZvbnQtZmFtaWx5PSJzYW5zLXNlcmlmIiBmb250LXNpemU9IjE0IiBmb250LXdlaWdodD0iYm9sZCIgbGVuZ3RoQWRqdXN0PSJzcGFjaW5nIiB0ZXh0TGVuZ3RoPSIzMzYiIHg9IjQzMi44MiIgeT0iMjMuMjM0NCI+U3RhdGVjaGFydCBEaWFncmFtIC0gVXNlciBMaWZlY3ljbGUgKEdhbWVTb25uZXQpPC90ZXh0PjwhLS1jbHVzdGVyIEd1ZXN0LS0+PGcgY2xhc3M9ImNsdXN0ZXIiIGRhdGEtZW50aXR5PSJHdWVzdCIgZGF0YS1zb3VyY2UtbGluZT0iNSIgZGF0YS11aWQ9ImVudDAwMDIiIGlkPSJjbHVzdGVyX0d1ZXN0Ij48cGF0aCBkPSJNMjQuNSwxNjEuOTg0NCBMMjgzLjUsMTYxLjk4NDQgQTEyLjUsMTIuNSAwIDAgMSAyOTYsMTc0LjQ4NDQgTDI5NiwxODEuOTY4OCBMMTIsMTgxLjk2ODggTDEyLDE3NC40ODQ0IEExMi41LDEyLjUgMCAwIDEgMjQuNSwxNjEuOTg0NCIgZmlsbD0iI0YxRjFGMSIgc3R5bGU9InN0cm9rZTojRjFGMUYxO3N0cm9rZS13aWR0aDoxOyIvPjxyZWN0IGZpbGw9Im5vbmUiIGhlaWdodD0iMzIxIiByeD0iMTIuNSIgcnk9IjEyLjUiIHN0eWxlPSJzdHJva2U6IzE4MTgxODtzdHJva2Utd2lkdGg6MC41OyIgd2lkdGg9IjI4NCIgeD0iMTIiIHk9IjE2MS45ODQ0Ii8+PGxpbmUgc3R5bGU9InN0cm9rZTojMTgxODE4O3N0cm9rZS13aWR0aDowLjU7IiB4MT0iMTIiIHgyPSIyOTYiIHkxPSIxODEuOTY4OCIgeTI9IjE4MS45Njg4Ii8+PHRleHQgZmlsbD0iIzAwMDAwMCIgZm9udC1mYW1pbHk9InNhbnMtc2VyaWYiIGZvbnQtc2l6ZT0iMTQiIGxlbmd0aEFkanVzdD0ic3BhY2luZyIgdGV4dExlbmd0aD0iMzUiIHg9IjEzNi41IiB5PSIxNzkuMjE4OCI+R3Vlc3Q8L3RleHQ+PC9nPjwhLS1jbHVzdGVyIExvZ2dlZEluLS0+PGcgY2xhc3M9ImNsdXN0ZXIiIGRhdGEtZW50aXR5PSJMb2dnZWRJbiIgZGF0YS1zb3VyY2UtbGluZT0iMTMiIGRhdGEtdWlkPSJlbnQwMDAzIiBpZD0iY2x1c3Rlcl9Mb2dnZWRJbiI+PHBhdGggZD0iTTIwMy41LDU0NS45ODQ0IEw3NTAuNSw1NDUuOTg0NCBBMTIuNSwxMi41IDAgMCAxIDc2Myw1NTguNDg0NCBMNzYzLDU2NS45Njg4IEwxOTEsNTY1Ljk2ODggTDE5MSw1NTguNDg0NCBBMTIuNSwxMi41IDAgMCAxIDIwMy41LDU0NS45ODQ0IiBmaWxsPSIjRjFGMUYxIiBzdHlsZT0ic3Ryb2tlOiNGMUYxRjE7c3Ryb2tlLXdpZHRoOjE7Ii8+PHJlY3QgZmlsbD0ibm9uZSIgaGVpZ2h0PSI4NzQiIHJ4PSIxMi41IiByeT0iMTIuNSIgc3R5bGU9InN0cm9rZTojMTgxODE4O3N0cm9rZS13aWR0aDowLjU7IiB3aWR0aD0iNTcyIiB4PSIxOTEiIHk9IjU0NS45ODQ0Ii8+PGxpbmUgc3R5bGU9InN0cm9rZTojMTgxODE4O3N0cm9rZS13aWR0aDowLjU7IiB4MT0iMTkxIiB4Mj0iNzYzIiB5MT0iNTY1Ljk2ODgiIHkyPSI1NjUuOTY4OCIvPjx0ZXh0IGZpbGw9IiMwMDAwMDAiIGZvbnQtZmFtaWx5PSJzYW5zLXNlcmlmIiBmb250LXNpemU9IjE0IiBsZW5ndGhBZGp1c3Q9InNwYWNpbmciIHRleHRMZW5ndGg9IjU2IiB4PSI0NDkiIHk9IjU2My4yMTg4Ij5Mb2dnZWRJbjwvdGV4dD48L2c+PGVsbGlwc2UgY3g9IjE0MCIgY3k9IjIxMi45ODQ0IiBmaWxsPSIjMjIyMjIyIiByeD0iMTAiIHJ5PSIxMCIgc3R5bGU9InN0cm9rZTojMjIyMjIyO3N0cm9rZS13aWR0aDoxOyIvPjxnIGlkPSJHdWVzdC5Ccm93c2luZyI+PHJlY3QgZmlsbD0iI0YxRjFGMSIgaGVpZ2h0PSI1MCIgcng9IjEyLjUiIHJ5PSIxMi41IiBzdHlsZT0ic3Ryb2tlOiMxODE4MTg7c3Ryb2tlLXdpZHRoOjAuNTsiIHdpZHRoPSI3NiIgeD0iMTAyIiB5PSIyODMuOTg0NCIvPjxsaW5lIHN0eWxlPSJzdHJva2U6IzE4MTgxODtzdHJva2Utd2lkdGg6MC41OyIgeDE9IjEwMiIgeDI9IjE3OCIgeTE9IjMwOC45Njg4IiB5Mj0iMzA4Ljk2ODgiLz48dGV4dCBmaWxsPSIjMDAwMDAwIiBmb250LWZhbWlseT0ic2Fucy1zZXJpZiIgZm9udC1zaXplPSIxNCIgbGVuZ3RoQWRqdXN0PSJzcGFjaW5nIiB0ZXh0TGVuZ3RoPSI1NiIgeD0iMTEyIiB5PSIzMDIuMjE4OCI+QnJvd3Npbmc8L3RleHQ+PC9nPjxnIGlkPSJHdWVzdC5SZWdpc3RlciI+PHJlY3QgZmlsbD0iI0YxRjFGMSIgaGVpZ2h0PSI1MCIgcng9IjEyLjUiIHJ5PSIxMi41IiBzdHlsZT0ic3Ryb2tlOiMxODE4MTg7c3Ryb2tlLXdpZHRoOjAuNTsiIHdpZHRoPSI3NiIgeD0iNDQiIHk9IjQwOC45ODQ0Ii8+PGxpbmUgc3R5bGU9InN0cm9rZTojMTgxODE4O3N0cm9rZS13aWR0aDowLjU7IiB4MT0iNDQiIHgyPSIxMjAiIHkxPSI0MzMuOTY4OCIgeTI9IjQzMy45Njg4Ii8+PHRleHQgZmlsbD0iIzAwMDAwMCIgZm9udC1mYW1pbHk9InNhbnMtc2VyaWYiIGZvbnQtc2l6ZT0iMTQiIGxlbmd0aEFkanVzdD0ic3BhY2luZyIgdGV4dExlbmd0aD0iNTYiIHg9IjU0IiB5PSI0MjcuMjE4OCI+UmVnaXN0ZXI8L3RleHQ+PC9nPjxnIGlkPSJHdWVzdC5Mb2dpbiI+PHJlY3QgZmlsbD0iI0YxRjFGMSIgaGVpZ2h0PSI1MCIgcng9IjEyLjUiIHJ5PSIxMi41IiBzdHlsZT0ic3Ryb2tlOiMxODE4MTg7c3Ryb2tlLXdpZHRoOjAuNTsiIHdpZHRoPSI1NSIgeD0iMTcxLjUiIHk9IjQwOC45ODQ0Ii8+PGxpbmUgc3R5bGU9InN0cm9rZTojMTgxODE4O3N0cm9rZS13aWR0aDowLjU7IiB4MT0iMTcxLjUiIHgyPSIyMjYuNSIgeTE9IjQzMy45Njg4IiB5Mj0iNDMzLjk2ODgiLz48dGV4dCBmaWxsPSIjMDAwMDAwIiBmb250LWZhbWlseT0ic2Fucy1zZXJpZiIgZm9udC1zaXplPSIxNCIgbGVuZ3RoQWRqdXN0PSJzcGFjaW5nIiB0ZXh0TGVuZ3RoPSIzNSIgeD0iMTgxLjUiIHk9IjQyNy4yMTg4Ij5Mb2dpbjwvdGV4dD48L2c+PHBhdGggZD0iTTQyOCw1ODYuOTg0NCBMNjUyLDU4Ni45ODQ0IEExMi41LDEyLjUgMCAwIDEgNjY0LjUsNTk5LjQ4NDQgTDY2NC41LDYxMS45Njg4IEw0MTUuNSw2MTEuOTY4OCBMNDE1LjUsNTk5LjQ4NDQgQTEyLjUsMTIuNSAwIDAgMSA0MjgsNTg2Ljk4NDQiIGZpbGw9IiNGMUYxRjEiIHN0eWxlPSJzdHJva2U6I0YxRjFGMTtzdHJva2Utd2lkdGg6MTsiLz48cmVjdCBmaWxsPSJub25lIiBoZWlnaHQ9IjM1NC45ODQ0IiByeD0iMTIuNSIgcnk9IjEyLjUiIHN0eWxlPSJzdHJva2U6IzE4MTgxODtzdHJva2Utd2lkdGg6MC41OyIgd2lkdGg9IjI0OSIgeD0iNDE1LjUiIHk9IjU4Ni45ODQ0Ii8+PGxpbmUgc3R5bGU9InN0cm9rZTojMTgxODE4O3N0cm9rZS13aWR0aDowLjU7IiB4MT0iNDE1LjUiIHgyPSI2NjQuNSIgeTE9IjYxMS45Njg4IiB5Mj0iNjExLjk2ODgiLz48dGV4dCBmaWxsPSIjMDAwMDAwIiBmb250LWZhbWlseT0ic2Fucy1zZXJpZiIgZm9udC1zaXplPSIxNCIgbGVuZ3RoQWRqdXN0PSJzcGFjaW5nIiB0ZXh0TGVuZ3RoPSI3NyIgeD0iNTAxLjUiIHk9IjYwNS4yMTg4Ij5Db250cmlidXRvcjwvdGV4dD48ZWxsaXBzZSBjeD0iNTIzLjUiIGN5PSI2MzIuOTY4OCIgZmlsbD0iIzIyMjIyMiIgcng9IjEwIiByeT0iMTAiIHN0eWxlPSJzdHJva2U6IzIyMjIyMjtzdHJva2Utd2lkdGg6MTsiLz48ZyBpZD0iTG9nZ2VkSW4uQ29udHJpYnV0b3IuU3VnZ2VzdGVkIj48cmVjdCBmaWxsPSIjRjFGMUYxIiBoZWlnaHQ9IjUwIiByeD0iMTIuNSIgcnk9IjEyLjUiIHN0eWxlPSJzdHJva2U6IzE4MTgxODtzdHJva2Utd2lkdGg6MC41OyIgd2lkdGg9IjgzIiB4PSI0ODIiIHk9IjY3OS45Njg4Ii8+PGxpbmUgc3R5bGU9InN0cm9rZTojMTgxODE4O3N0cm9rZS13aWR0aDowLjU7IiB4MT0iNDgyIiB4Mj0iNTY1IiB5MT0iNzA0Ljk1MzEiIHkyPSI3MDQuOTUzMSIvPjx0ZXh0IGZpbGw9IiMwMDAwMDAiIGZvbnQtZmFtaWx5PSJzYW5zLXNlcmlmIiBmb250LXNpemU9IjE0IiBsZW5ndGhBZGp1c3Q9InNwYWNpbmciIHRleHRMZW5ndGg9IjYzIiB4PSI0OTIiIHk9IjY5OC4yMDMxIj5TdWdnZXN0ZWQ8L3RleHQ+PC9nPjxnIGlkPSJMb2dnZWRJbi5Db250cmlidXRvci5XYWl0aW5nQXBwcm92YWwiPjxyZWN0IGZpbGw9IiNGMUYxRjEiIGhlaWdodD0iNTAiIHJ4PSIxMi41IiByeT0iMTIuNSIgc3R5bGU9InN0cm9rZTojMTgxODE4O3N0cm9rZS13aWR0aDowLjU7IiB3aWR0aD0iMTI1IiB4PSI0NjEiIHk9Ijc4MC45Njg4Ii8+PGxpbmUgc3R5bGU9InN0cm9rZTojMTgxODE4O3N0cm9rZS13aWR0aDowLjU7IiB4MT0iNDYxIiB4Mj0iNTg2IiB5MT0iODA1Ljk1MzEiIHkyPSI4MDUuOTUzMSIvPjx0ZXh0IGZpbGw9IiMwMDAwMDAiIGZvbnQtZmFtaWx5PSJzYW5zLXNlcmlmIiBmb250LXNpemU9IjE0IiBsZW5ndGhBZGp1c3Q9InNwYWNpbmciIHRleHRMZW5ndGg9IjEwNSIgeD0iNDcxIiB5PSI3OTkuMjAzMSI+V2FpdGluZ0FwcHJvdmFsPC90ZXh0PjwvZz48ZyBpZD0iTG9nZ2VkSW4uQ29udHJpYnV0b3IuQXBwcm92ZWQiPjxyZWN0IGZpbGw9IiNGMUYxRjEiIGhlaWdodD0iNTAiIHJ4PSIxMi41IiByeT0iMTIuNSIgc3R5bGU9InN0cm9rZTojMTgxODE4O3N0cm9rZS13aWR0aDowLjU7IiB3aWR0aD0iNzYiIHg9IjQyNy41IiB5PSI4ODEuOTY4OCIvPjxsaW5lIHN0eWxlPSJzdHJva2U6IzE4MTgxODtzdHJva2Utd2lkdGg6MC41OyIgeDE9IjQyNy41IiB4Mj0iNTAzLjUiIHkxPSI5MDYuOTUzMSIgeTI9IjkwNi45NTMxIi8+PHRleHQgZmlsbD0iIzAwMDAwMCIgZm9udC1mYW1pbHk9InNhbnMtc2VyaWYiIGZvbnQtc2l6ZT0iMTQiIGxlbmd0aEFkanVzdD0ic3BhY2luZyIgdGV4dExlbmd0aD0iNTYiIHg9IjQzNy41IiB5PSI5MDAuMjAzMSI+QXBwcm92ZWQ8L3RleHQ+PC9nPjxnIGlkPSJMb2dnZWRJbi5Db250cmlidXRvci5SZWplY3RlZCI+PHJlY3QgZmlsbD0iI0YxRjFGMSIgaGVpZ2h0PSI1MCIgcng9IjEyLjUiIHJ5PSIxMi41IiBzdHlsZT0ic3Ryb2tlOiMxODE4MTg7c3Ryb2tlLXdpZHRoOjAuNTsiIHdpZHRoPSI3NiIgeD0iNTQzLjUiIHk9Ijg4MS45Njg4Ii8+PGxpbmUgc3R5bGU9InN0cm9rZTojMTgxODE4O3N0cm9rZS13aWR0aDowLjU7IiB4MT0iNTQzLjUiIHgyPSI2MTkuNSIgeTE9IjkwNi45NTMxIiB5Mj0iOTA2Ljk1MzEiLz48dGV4dCBmaWxsPSIjMDAwMDAwIiBmb250LWZhbWlseT0ic2Fucy1zZXJpZiIgZm9udC1zaXplPSIxNCIgbGVuZ3RoQWRqdXN0PSJzcGFjaW5nIiB0ZXh0TGVuZ3RoPSI1NiIgeD0iNTUzLjUiIHk9IjkwMC4yMDMxIj5SZWplY3RlZDwvdGV4dD48L2c+PCEtLWxpbmsgKnN0YXJ0KkNvbnRyaWJ1dG9yIHRvIFN1Z2dlc3RlZC0tPjxnIGNsYXNzPSJsaW5rIiBkYXRhLWVudGl0eS0xPSIqc3RhcnQqQ29udHJpYnV0b3IiIGRhdGEtZW50aXR5LTI9IlN1Z2dlc3RlZCIgZGF0YS1zb3VyY2UtbGluZT0iMjMiIGRhdGEtdWlkPSJsbmsyNCIgaWQ9ImxpbmtfKnN0YXJ0KkNvbnRyaWJ1dG9yX1N1Z2dlc3RlZCI+PHBhdGggZD0iTTUyMy41LDY0My4xMTg4IEM1MjMuNSw2NTIuMzg4OCA1MjMuNSw2NjEuMTA4OCA1MjMuNSw2NzMuNzQ4OCIgZmlsbD0ibm9uZSIgaWQ9IipzdGFydCpDb250cmlidXRvci10by1TdWdnZXN0ZWQiIHN0eWxlPSJzdHJva2U6IzE4MTgxODtzdHJva2Utd2lkdGg6MTsiLz48cG9seWdvbiBmaWxsPSIjMTgxODE4IiBwb2ludHM9IjUyMy41LDY3OS43NDg4LDUyNy41LDY3MC43NDg4LDUyMy41LDY3NC43NDg4LDUxOS41LDY3MC43NDg4LDUyMy41LDY3OS43NDg4IiBzdHlsZT0ic3Ryb2tlOiMxODE4MTg7c3Ryb2tlLXdpZHRoOjE7Ii8+PC9nPjwhLS1saW5rIFN1Z2dlc3RlZCB0byBXYWl0aW5nQXBwcm92YWwtLT48ZyBjbGFzcz0ibGluayIgZGF0YS1lbnRpdHktMT0iU3VnZ2VzdGVkIiBkYXRhLWVudGl0eS0yPSJXYWl0aW5nQXBwcm92YWwiIGRhdGEtc291cmNlLWxpbmU9IjI0IiBkYXRhLXVpZD0ibG5rMjYiIGlkPSJsaW5rX1N1Z2dlc3RlZF9XYWl0aW5nQXBwcm92YWwiPjxwYXRoIGQ9Ik01MjMuNSw3MzAuMTg4OCBDNTIzLjUsNzQ1LjUyODggNTIzLjUsNzU5LjI5ODggNTIzLjUsNzc0LjY1ODgiIGZpbGw9Im5vbmUiIGlkPSJTdWdnZXN0ZWQtdG8tV2FpdGluZ0FwcHJvdmFsIiBzdHlsZT0ic3Ryb2tlOiMxODE4MTg7c3Ryb2tlLXdpZHRoOjE7Ii8+PHBvbHlnb24gZmlsbD0iIzE4MTgxOCIgcG9pbnRzPSI1MjMuNSw3ODAuNjU4OCw1MjcuNSw3NzEuNjU4OCw1MjMuNSw3NzUuNjU4OCw1MTkuNSw3NzEuNjU4OCw1MjMuNSw3ODAuNjU4OCIgc3R5bGU9InN0cm9rZTojMTgxODE4O3N0cm9rZS13aWR0aDoxOyIvPjx0ZXh0IGZpbGw9IiMwMDAwMDAiIGZvbnQtZmFtaWx5PSJzYW5zLXNlcmlmIiBmb250LXNpemU9IjEzIiBsZW5ndGhBZGp1c3Q9InNwYWNpbmciIHRleHRMZW5ndGg9IjEzMCIgeD0iNTI0LjUiIHk9Ijc2MS4yNTc4Ij5HYW1lIGluIFBlbmRpbmdHYW1lczwvdGV4dD48L2c+PCEtLWxpbmsgV2FpdGluZ0FwcHJvdmFsIHRvIEFwcHJvdmVkLS0+PGcgY2xhc3M9ImxpbmsiIGRhdGEtZW50aXR5LTE9IldhaXRpbmdBcHByb3ZhbCIgZGF0YS1lbnRpdHktMj0iQXBwcm92ZWQiIGRhdGEtc291cmNlLWxpbmU9IjI1IiBkYXRhLXVpZD0ibG5rMjgiIGlkPSJsaW5rX1dhaXRpbmdBcHByb3ZhbF9BcHByb3ZlZCI+PHBhdGggZD0iTTQ4MC45Myw4MzEuMTA4OCBDNDc1LjE0LDgzNi4yMzg4IDQ3MCw4NDIuMTk4OCA0NjYuNSw4NDguOTY4OCBDNDYxLjM3LDg1OC45MDg4IDQ2MC4xNjk0LDg2NS4xOTIxIDQ2MC44Nzk0LDg3NS44MDIxIiBmaWxsPSJub25lIiBpZD0iV2FpdGluZ0FwcHJvdmFsLXRvLUFwcHJvdmVkIiBzdHlsZT0ic3Ryb2tlOiMxODE4MTg7c3Ryb2tlLXdpZHRoOjE7Ii8+PHBvbHlnb24gZmlsbD0iIzE4MTgxOCIgcG9pbnRzPSI0NjEuMjgsODgxLjc4ODcsNDY0LjY3MDIsODcyLjU0MTgsNDYwLjk0NjIsODc2Ljc5OTksNDU2LjY4OCw4NzMuMDc1OSw0NjEuMjgsODgxLjc4ODciIHN0eWxlPSJzdHJva2U6IzE4MTgxODtzdHJva2Utd2lkdGg6MTsiLz48dGV4dCBmaWxsPSIjMDAwMDAwIiBmb250LWZhbWlseT0ic2Fucy1zZXJpZiIgZm9udC1zaXplPSIxMyIgbGVuZ3RoQWRqdXN0PSJzcGFjaW5nIiB0ZXh0TGVuZ3RoPSI5MSIgeD0iNDY3LjUiIHk9Ijg2Mi4yNTc4Ij5BZG1pbiBhcHByb3ZlczwvdGV4dD48L2c+PCEtLWxpbmsgV2FpdGluZ0FwcHJvdmFsIHRvIFJlamVjdGVkLS0+PGcgY2xhc3M9ImxpbmsiIGRhdGEtZW50aXR5LTE9IldhaXRpbmdBcHByb3ZhbCIgZGF0YS1lbnRpdHktMj0iUmVqZWN0ZWQiIGRhdGEtc291cmNlLWxpbmU9IjI2IiBkYXRhLXVpZD0ibG5rMzAiIGlkPSJsaW5rX1dhaXRpbmdBcHByb3ZhbF9SZWplY3RlZCI+PHBhdGggZD0iTTU0Ni42OSw4MzEuMjE4OCBDNTUxLjMxLDgzNi43ODg3IDU1NS44Niw4NDIuODY4OCA1NTkuNSw4NDguOTY4OCBDNTY1LjU5LDg1OS4xNjg4IDU2OC41OTM0LDg2NS42ODM3IDU3Mi4yNTM0LDg3Ni4xNzM3IiBmaWxsPSJub25lIiBpZD0iV2FpdGluZ0FwcHJvdmFsLXRvLVJlamVjdGVkIiBzdHlsZT0ic3Ryb2tlOiMxODE4MTg7c3Ryb2tlLXdpZHRoOjE7Ii8+PHBvbHlnb24gZmlsbD0iIzE4MTgxOCIgcG9pbnRzPSI1NzQuMjMsODgxLjgzODgsNTc1LjA0MTksODcyLjAyMzQsNTcyLjU4MjksODc3LjExNzgsNTY3LjQ4ODQsODc0LjY1ODgsNTc0LjIzLDg4MS44Mzg4IiBzdHlsZT0ic3Ryb2tlOiMxODE4MTg7c3Ryb2tlLXdpZHRoOjE7Ii8+PHRleHQgZmlsbD0iIzAwMDAwMCIgZm9udC1mYW1pbHk9InNhbnMtc2VyaWYiIGZvbnQtc2l6ZT0iMTMiIGxlbmd0aEFkanVzdD0ic3BhY2luZyIgdGV4dExlbmd0aD0iODQuNSIgeD0iNTY3LjUiIHk9Ijg2Mi4yNTc4Ij5BZG1pbiByZWplY3RzPC90ZXh0PjwvZz48cGF0aCBkPSJNMjYxLjUsMTE0MS45ODQ0IEw0MzguNzc1MywxMTQxLjk4NDQgQTEyLjUsMTIuNSAwIDAgMSA0NTEuMjc1MywxMTU0LjQ4NDQgTDQ1MS4yNzUzLDExNjYuOTY4OCBMMjQ5LDExNjYuOTY4OCBMMjQ5LDExNTQuNDg0NCBBMTIuNSwxMi41IDAgMCAxIDI2MS41LDExNDEuOTg0NCIgZmlsbD0iI0YxRjFGMSIgc3R5bGU9InN0cm9rZTojRjFGMUYxO3N0cm9rZS13aWR0aDoxOyIvPjxyZWN0IGZpbGw9Im5vbmUiIGhlaWdodD0iMjUzLjk4NDQiIHJ4PSIxMi41IiByeT0iMTIuNSIgc3R5bGU9InN0cm9rZTojMTgxODE4O3N0cm9rZS13aWR0aDowLjU7IiB3aWR0aD0iMjAyLjI3NTMiIHg9IjI0OSIgeT0iMTE0MS45ODQ0Ii8+PGxpbmUgc3R5bGU9InN0cm9rZTojMTgxODE4O3N0cm9rZS13aWR0aDowLjU7IiB4MT0iMjQ5IiB4Mj0iNDUxLjI3NTMiIHkxPSIxMTY2Ljk2ODgiIHkyPSIxMTY2Ljk2ODgiLz48dGV4dCBmaWxsPSIjMDAwMDAwIiBmb250LWZhbWlseT0ic2Fucy1zZXJpZiIgZm9udC1zaXplPSIxNCIgbGVuZ3RoQWRqdXN0PSJzcGFjaW5nIiB0ZXh0TGVuZ3RoPSI1NiIgeD0iMzIyLjEzNzciIHk9IjExNjAuMjE4OCI+UmV2aWV3ZXI8L3RleHQ+PGVsbGlwc2UgY3g9IjMxOC4yNzUzIiBjeT0iMTE4Ny45Njg4IiBmaWxsPSIjMjIyMjIyIiByeD0iMTAiIHJ5PSIxMCIgc3R5bGU9InN0cm9rZTojMjIyMjIyO3N0cm9rZS13aWR0aDoxOyIvPjxnIGlkPSJMb2dnZWRJbi5SZXZpZXdlci5Xcml0aW5nUmV2aWV3Ij48cmVjdCBmaWxsPSIjRjFGMUYxIiBoZWlnaHQ9IjUwIiByeD0iMTIuNSIgcnk9IjEyLjUiIHN0eWxlPSJzdHJva2U6IzE4MTgxODtzdHJva2Utd2lkdGg6MC41OyIgd2lkdGg9IjExMSIgeD0iMjYyLjc3NTMiIHk9IjEyMzQuOTY4OCIvPjxsaW5lIHN0eWxlPSJzdHJva2U6IzE4MTgxODtzdHJva2Utd2lkdGg6MC41OyIgeDE9IjI2Mi43NzUzIiB4Mj0iMzczLjc3NTMiIHkxPSIxMjU5Ljk1MzEiIHkyPSIxMjU5Ljk1MzEiLz48dGV4dCBmaWxsPSIjMDAwMDAwIiBmb250LWZhbWlseT0ic2Fucy1zZXJpZiIgZm9udC1zaXplPSIxNCIgbGVuZ3RoQWRqdXN0PSJzcGFjaW5nIiB0ZXh0TGVuZ3RoPSI5MSIgeD0iMjcyLjc3NTMiIHk9IjEyNTMuMjAzMSI+V3JpdGluZ1JldmlldzwvdGV4dD48L2c+PGcgaWQ9IkxvZ2dlZEluLlJldmlld2VyLlN1Ym1pdHRlZCI+PHJlY3QgZmlsbD0iI0YxRjFGMSIgaGVpZ2h0PSI1MCIgcng9IjEyLjUiIHJ5PSIxMi41IiBzdHlsZT0ic3Ryb2tlOiMxODE4MTg7c3Ryb2tlLXdpZHRoOjAuNTsiIHdpZHRoPSI4MyIgeD0iMjc2Ljc3NTMiIHk9IjEzMzUuOTY4OCIvPjxsaW5lIHN0eWxlPSJzdHJva2U6IzE4MTgxODtzdHJva2Utd2lkdGg6MC41OyIgeDE9IjI3Ni43NzUzIiB4Mj0iMzU5Ljc3NTMiIHkxPSIxMzYwLjk1MzEiIHkyPSIxMzYwLjk1MzEiLz48dGV4dCBmaWxsPSIjMDAwMDAwIiBmb250LWZhbWlseT0ic2Fucy1zZXJpZiIgZm9udC1zaXplPSIxNCIgbGVuZ3RoQWRqdXN0PSJzcGFjaW5nIiB0ZXh0TGVuZ3RoPSI2MyIgeD0iMjg2Ljc3NTMiIHk9IjEzNTQuMjAzMSI+U3VibWl0dGVkPC90ZXh0PjwvZz48IS0tbGluayAqc3RhcnQqUmV2aWV3ZXIgdG8gV3JpdGluZ1Jldmlldy0tPjxnIGNsYXNzPSJsaW5rIiBkYXRhLWVudGl0eS0xPSIqc3RhcnQqUmV2aWV3ZXIiIGRhdGEtZW50aXR5LTI9IldyaXRpbmdSZXZpZXciIGRhdGEtc291cmNlLWxpbmU9IjMwIiBkYXRhLXVpZD0ibG5rMzMiIGlkPSJsaW5rXypzdGFydCpSZXZpZXdlcl9Xcml0aW5nUmV2aWV3Ij48cGF0aCBkPSJNMzE4LjI3NTMsMTE5OC4xMTg4IEMzMTguMjc1MywxMjA3LjM4ODggMzE4LjI3NTMsMTIxNi4xMDg3IDMxOC4yNzUzLDEyMjguNzQ4OCIgZmlsbD0ibm9uZSIgaWQ9IipzdGFydCpSZXZpZXdlci10by1Xcml0aW5nUmV2aWV3IiBzdHlsZT0ic3Ryb2tlOiMxODE4MTg7c3Ryb2tlLXdpZHRoOjE7Ii8+PHBvbHlnb24gZmlsbD0iIzE4MTgxOCIgcG9pbnRzPSIzMTguMjc1MywxMjM0Ljc0ODgsMzIyLjI3NTMsMTIyNS43NDg4LDMxOC4yNzUzLDEyMjkuNzQ4OCwzMTQuMjc1MywxMjI1Ljc0ODgsMzE4LjI3NTMsMTIzNC43NDg4IiBzdHlsZT0ic3Ryb2tlOiMxODE4MTg7c3Ryb2tlLXdpZHRoOjE7Ii8+PC9nPjwhLS1saW5rIFdyaXRpbmdSZXZpZXcgdG8gU3VibWl0dGVkLS0+PGcgY2xhc3M9ImxpbmsiIGRhdGEtZW50aXR5LTE9IldyaXRpbmdSZXZpZXciIGRhdGEtZW50aXR5LTI9IlN1Ym1pdHRlZCIgZGF0YS1zb3VyY2UtbGluZT0iMzEiIGRhdGEtdWlkPSJsbmszNSIgaWQ9ImxpbmtfV3JpdGluZ1Jldmlld19TdWJtaXR0ZWQiPjxwYXRoIGQ9Ik0yODEuMjU1MywxMjg1LjMwODggQzI3NS45OTUzLDEyOTAuNDc4OCAyNzEuMzM1MywxMjk2LjM4ODggMjY4LjI3NTMsMTMwMi45Njg4IEMyNjIuNjU1MywxMzE1LjAxODggMjY0Ljg3MzQsMTMyMi4zNDAyIDI3NC45MjM0LDEzMzEuNzQwMiIgZmlsbD0ibm9uZSIgaWQ9IldyaXRpbmdSZXZpZXctdG8tU3VibWl0dGVkIiBzdHlsZT0ic3Ryb2tlOiMxODE4MTg7c3Ryb2tlLXdpZHRoOjE7Ii8+PHBvbHlnb24gZmlsbD0iIzE4MTgxOCIgcG9pbnRzPSIyNzkuMzA1MywxMzM1LjgzODgsMjc1LjQ2NDgsMTMyNi43Njk2LDI3NS42NTM3LDEzMzIuNDIzMywyNzAsMTMzMi42MTIyLDI3OS4zMDUzLDEzMzUuODM4OCIgc3R5bGU9InN0cm9rZTojMTgxODE4O3N0cm9rZS13aWR0aDoxOyIvPjx0ZXh0IGZpbGw9IiMwMDAwMDAiIGZvbnQtZmFtaWx5PSJzYW5zLXNlcmlmIiBmb250LXNpemU9IjEzIiBsZW5ndGhBZGp1c3Q9InNwYWNpbmciIHRleHRMZW5ndGg9Ijc4IiB4PSIyNjkuMjc1MyIgeT0iMTMxNi4yNTc4Ij5SZXZpZXcgc2F2ZWQ8L3RleHQ+PC9nPjwhLS1saW5rIFN1Ym1pdHRlZCB0byBXcml0aW5nUmV2aWV3LS0+PGcgY2xhc3M9ImxpbmsiIGRhdGEtZW50aXR5LTE9IlN1Ym1pdHRlZCIgZGF0YS1lbnRpdHktMj0iV3JpdGluZ1JldmlldyIgZGF0YS1zb3VyY2UtbGluZT0iMzIiIGRhdGEtdWlkPSJsbmszNiIgaWQ9ImxpbmtfU3VibWl0dGVkX1dyaXRpbmdSZXZpZXciPjxwYXRoIGQ9Ik0zNDAuODM1MywxMzM1LjgxODggQzM0Ny4zNzUzLDEzMjUuOTY4OCAzNTEuODk1MywxMzE0LjI1ODggMzQ4LjI3NTMsMTMwMi45Njg4IEMzNDYuMzA1MywxMjk2LjgyODggMzQ2LjM5OTMsMTI5NS44MTM5IDM0Mi43NTkzLDEyOTAuMzQzOSIgZmlsbD0ibm9uZSIgaWQ9IlN1Ym1pdHRlZC10by1Xcml0aW5nUmV2aWV3IiBzdHlsZT0ic3Ryb2tlOiMxODE4MTg7c3Ryb2tlLXdpZHRoOjE7Ii8+PHBvbHlnb24gZmlsbD0iIzE4MTgxOCIgcG9pbnRzPSIzMzkuNDM1MywxMjg1LjM0ODgsMzQxLjA5MTMsMTI5NS4wNTc0LDM0Mi4yMDUzLDEyODkuNTExMywzNDcuNzUxNCwxMjkwLjYyNTQsMzM5LjQzNTMsMTI4NS4zNDg4IiBzdHlsZT0ic3Ryb2tlOiMxODE4MTg7c3Ryb2tlLXdpZHRoOjE7Ii8+PHRleHQgZmlsbD0iIzAwMDAwMCIgZm9udC1mYW1pbHk9InNhbnMtc2VyaWYiIGZvbnQtc2l6ZT0iMTMiIGxlbmd0aEFkanVzdD0ic3BhY2luZyIgdGV4dExlbmd0aD0iOTEiIHg9IjM1MC4yNzUzIiB5PSIxMzE2LjI1NzgiPkFub3RoZXIgcmV2aWV3PC90ZXh0PjwvZz48ZWxsaXBzZSBjeD0iMzE2IiBjeT0iNzY0LjQ4NDQiIGZpbGw9IiMyMjIyMjIiIHJ4PSIxMCIgcnk9IjEwIiBzdHlsZT0ic3Ryb2tlOiMyMjIyMjI7c3Ryb2tlLXdpZHRoOjE7Ii8+PGcgaWQ9IkxvZ2dlZEluLklkbGUiPjxyZWN0IGZpbGw9IiNGMUYxRjEiIGhlaWdodD0iNTAiIHJ4PSIxMi41IiByeT0iMTIuNSIgc3R5bGU9InN0cm9rZTojMTgxODE4O3N0cm9rZS13aWR0aDowLjU7IiB3aWR0aD0iNTAiIHg9IjM1OSIgeT0iMTAxNi45ODQ0Ii8+PGxpbmUgc3R5bGU9InN0cm9rZTojMTgxODE4O3N0cm9rZS13aWR0aDowLjU7IiB4MT0iMzU5IiB4Mj0iNDA5IiB5MT0iMTA0MS45Njg4IiB5Mj0iMTA0MS45Njg4Ii8+PHRleHQgZmlsbD0iIzAwMDAwMCIgZm9udC1mYW1pbHk9InNhbnMtc2VyaWYiIGZvbnQtc2l6ZT0iMTQiIGxlbmd0aEFkanVzdD0ic3BhY2luZyIgdGV4dExlbmd0aD0iMjgiIHg9IjM3MCIgeT0iMTAzNS4yMTg4Ij5JZGxlPC90ZXh0PjwvZz48ZyBpZD0iTG9nZ2VkSW4uVmlld1N1Z2dlc3Rpb25zIj48cmVjdCBmaWxsPSIjRjFGMUYxIiBoZWlnaHQ9IjUwIiByeD0iMTIuNSIgcnk9IjEyLjUiIHN0eWxlPSJzdHJva2U6IzE4MTgxODtzdHJva2Utd2lkdGg6MC41OyIgd2lkdGg9IjEyNSIgeD0iNTEyLjUiIHk9IjEyNDMuOTg0NCIvPjxsaW5lIHN0eWxlPSJzdHJva2U6IzE4MTgxODtzdHJva2Utd2lkdGg6MC41OyIgeDE9IjUxMi41IiB4Mj0iNjM3LjUiIHkxPSIxMjY4Ljk2ODgiIHkyPSIxMjY4Ljk2ODgiLz48dGV4dCBmaWxsPSIjMDAwMDAwIiBmb250LWZhbWlseT0ic2Fucy1zZXJpZiIgZm9udC1zaXplPSIxNCIgbGVuZ3RoQWRqdXN0PSJzcGFjaW5nIiB0ZXh0TGVuZ3RoPSIxMDUiIHg9IjUyMi41IiB5PSIxMjYyLjIxODgiPlZpZXdTdWdnZXN0aW9uczwvdGV4dD48L2c+PHBhdGggZD0iTTc5OS41LDExNDEuOTg0NCBMMTE5Ni4xNCwxMTQxLjk4NDQgQTEyLjUsMTIuNSAwIDAgMSAxMjA4LjY0LDExNTQuNDg0NCBMMTIwOC42NCwxMTY2Ljk2ODggTDc4NywxMTY2Ljk2ODggTDc4NywxMTU0LjQ4NDQgQTEyLjUsMTIuNSAwIDAgMSA3OTkuNSwxMTQxLjk4NDQiIGZpbGw9IiNGMUYxRjEiIHN0eWxlPSJzdHJva2U6I0YxRjFGMTtzdHJva2Utd2lkdGg6MTsiLz48cmVjdCBmaWxsPSJub25lIiBoZWlnaHQ9IjI1My45ODQ0IiByeD0iMTIuNSIgcnk9IjEyLjUiIHN0eWxlPSJzdHJva2U6IzE4MTgxODtzdHJva2Utd2lkdGg6MC41OyIgd2lkdGg9IjQyMS42NCIgeD0iNzg3IiB5PSIxMTQxLjk4NDQiLz48bGluZSBzdHlsZT0ic3Ryb2tlOiMxODE4MTg7c3Ryb2tlLXdpZHRoOjAuNTsiIHgxPSI3ODciIHgyPSIxMjA4LjY0IiB5MT0iMTE2Ni45Njg4IiB5Mj0iMTE2Ni45Njg4Ii8+PHRleHQgZmlsbD0iIzAwMDAwMCIgZm9udC1mYW1pbHk9InNhbnMtc2VyaWYiIGZvbnQtc2l6ZT0iMTQiIGxlbmd0aEFkanVzdD0ic3BhY2luZyIgdGV4dExlbmd0aD0iMzUiIHg9Ijk4MC4zMiIgeT0iMTE2MC4yMTg4Ij5BZG1pbjwvdGV4dD48ZWxsaXBzZSBjeD0iOTk5LjUiIGN5PSIxMTg3Ljk2ODgiIGZpbGw9IiMyMjIyMjIiIHJ4PSIxMCIgcnk9IjEwIiBzdHlsZT0ic3Ryb2tlOiMyMjIyMjI7c3Ryb2tlLXdpZHRoOjE7Ii8+PGcgaWQ9IkFkbWluLk1hbmFnaW5nIj48cmVjdCBmaWxsPSIjRjFGMUYxIiBoZWlnaHQ9IjUwIiByeD0iMTIuNSIgcnk9IjEyLjUiIHN0eWxlPSJzdHJva2U6IzE4MTgxODtzdHJva2Utd2lkdGg6MC41OyIgd2lkdGg9Ijc2IiB4PSI5NjEuNSIgeT0iMTIzNC45Njg4Ii8+PGxpbmUgc3R5bGU9InN0cm9rZTojMTgxODE4O3N0cm9rZS13aWR0aDowLjU7IiB4MT0iOTYxLjUiIHgyPSIxMDM3LjUiIHkxPSIxMjU5Ljk1MzEiIHkyPSIxMjU5Ljk1MzEiLz48dGV4dCBmaWxsPSIjMDAwMDAwIiBmb250LWZhbWlseT0ic2Fucy1zZXJpZiIgZm9udC1zaXplPSIxNCIgbGVuZ3RoQWRqdXN0PSJzcGFjaW5nIiB0ZXh0TGVuZ3RoPSI1NiIgeD0iOTcxLjUiIHk9IjEyNTMuMjAzMSI+TWFuYWdpbmc8L3RleHQ+PC9nPjxnIGlkPSJBZG1pbi5BcHByb3ZpbmciPjxyZWN0IGZpbGw9IiNGMUYxRjEiIGhlaWdodD0iNTAiIHJ4PSIxMi41IiByeT0iMTIuNSIgc3R5bGU9InN0cm9rZTojMTgxODE4O3N0cm9rZS13aWR0aDowLjU7IiB3aWR0aD0iODMiIHg9Ijc5OSIgeT0iMTMzNS45Njg4Ii8+PGxpbmUgc3R5bGU9InN0cm9rZTojMTgxODE4O3N0cm9rZS13aWR0aDowLjU7IiB4MT0iNzk5IiB4Mj0iODgyIiB5MT0iMTM2MC45NTMxIiB5Mj0iMTM2MC45NTMxIi8+PHRleHQgZmlsbD0iIzAwMDAwMCIgZm9udC1mYW1pbHk9InNhbnMtc2VyaWYiIGZvbnQtc2l6ZT0iMTQiIGxlbmd0aEFkanVzdD0ic3BhY2luZyIgdGV4dExlbmd0aD0iNjMiIHg9IjgwOSIgeT0iMTM1NC4yMDMxIj5BcHByb3Zpbmc8L3RleHQ+PC9nPjxnIGlkPSJBZG1pbi5SZWplY3RpbmciPjxyZWN0IGZpbGw9IiNGMUYxRjEiIGhlaWdodD0iNTAiIHJ4PSIxMi41IiByeT0iMTIuNSIgc3R5bGU9InN0cm9rZTojMTgxODE4O3N0cm9rZS13aWR0aDowLjU7IiB3aWR0aD0iODMiIHg9IjkyNyIgeT0iMTMzNS45Njg4Ii8+PGxpbmUgc3R5bGU9InN0cm9rZTojMTgxODE4O3N0cm9rZS13aWR0aDowLjU7IiB4MT0iOTI3IiB4Mj0iMTAxMCIgeTE9IjEzNjAuOTUzMSIgeTI9IjEzNjAuOTUzMSIvPjx0ZXh0IGZpbGw9IiMwMDAwMDAiIGZvbnQtZmFtaWx5PSJzYW5zLXNlcmlmIiBmb250LXNpemU9IjE0IiBsZW5ndGhBZGp1c3Q9InNwYWNpbmciIHRleHRMZW5ndGg9IjYzIiB4PSI5MzciIHk9IjEzNTQuMjAzMSI+UmVqZWN0aW5nPC90ZXh0PjwvZz48ZyBpZD0iQWRtaW4uRWRpdGluZyI+PHJlY3QgZmlsbD0iI0YxRjFGMSIgaGVpZ2h0PSI1MCIgcng9IjEyLjUiIHJ5PSIxMi41IiBzdHlsZT0ic3Ryb2tlOiMxODE4MTg7c3Ryb2tlLXdpZHRoOjAuNTsiIHdpZHRoPSI2OSIgeD0iMTEwNSIgeT0iMTMzNS45Njg4Ii8+PGxpbmUgc3R5bGU9InN0cm9rZTojMTgxODE4O3N0cm9rZS13aWR0aDowLjU7IiB4MT0iMTEwNSIgeDI9IjExNzQiIHkxPSIxMzYwLjk1MzEiIHkyPSIxMzYwLjk1MzEiLz48dGV4dCBmaWxsPSIjMDAwMDAwIiBmb250LWZhbWlseT0ic2Fucy1zZXJpZiIgZm9udC1zaXplPSIxNCIgbGVuZ3RoQWRqdXN0PSJzcGFjaW5nIiB0ZXh0TGVuZ3RoPSI0OSIgeD0iMTExNSIgeT0iMTM1NC4yMDMxIj5FZGl0aW5nPC90ZXh0PjwvZz48IS0tbGluayAqc3RhcnQqQWRtaW4gdG8gTWFuYWdpbmctLT48ZyBjbGFzcz0ibGluayIgZGF0YS1lbnRpdHktMT0iKnN0YXJ0KkFkbWluIiBkYXRhLWVudGl0eS0yPSJNYW5hZ2luZyIgZGF0YS1zb3VyY2UtbGluZT0iMzkiIGRhdGEtdWlkPSJsbms0MCIgaWQ9ImxpbmtfKnN0YXJ0KkFkbWluX01hbmFnaW5nIj48cGF0aCBkPSJNOTk5LjUsMTE5OC4xMTg4IEM5OTkuNSwxMjA3LjM4ODggOTk5LjUsMTIxNi4xMDg3IDk5OS41LDEyMjguNzQ4OCIgZmlsbD0ibm9uZSIgaWQ9IipzdGFydCpBZG1pbi10by1NYW5hZ2luZyIgc3R5bGU9InN0cm9rZTojMTgxODE4O3N0cm9rZS13aWR0aDoxOyIvPjxwb2x5Z29uIGZpbGw9IiMxODE4MTgiIHBvaW50cz0iOTk5LjUsMTIzNC43NDg4LDEwMDMuNSwxMjI1Ljc0ODgsOTk5LjUsMTIyOS43NDg4LDk5NS41LDEyMjUuNzQ4OCw5OTkuNSwxMjM0Ljc0ODgiIHN0eWxlPSJzdHJva2U6IzE4MTgxODtzdHJva2Utd2lkdGg6MTsiLz48L2c+PCEtLWxpbmsgTWFuYWdpbmcgdG8gQXBwcm92aW5nLS0+PGcgY2xhc3M9ImxpbmsiIGRhdGEtZW50aXR5LTE9Ik1hbmFnaW5nIiBkYXRhLWVudGl0eS0yPSJBcHByb3ZpbmciIGRhdGEtc291cmNlLWxpbmU9IjQwIiBkYXRhLXVpZD0ibG5rNDIiIGlkPSJsaW5rX01hbmFnaW5nX0FwcHJvdmluZyI+PHBhdGggZD0iTTk2MS4xOSwxMjY0LjkyODggQzkxNS45MiwxMjcwLjQ5ODggODQ0LjY3LDEyODIuMzM4OCA4MjguNSwxMzAyLjk2ODggQzgyMS4yNiwxMzEyLjE5ODggODIwLjk0ODMsMTMxOS4xNDg5IDgyNS4wNTgzLDEzMzAuMTM4OSIgZmlsbD0ibm9uZSIgaWQ9Ik1hbmFnaW5nLXRvLUFwcHJvdmluZyIgc3R5bGU9InN0cm9rZTojMTgxODE4O3N0cm9rZS13aWR0aDoxOyIvPjxwb2x5Z29uIGZpbGw9IiMxODE4MTgiIHBvaW50cz0iODI3LjE2LDEzMzUuNzU4OCw4MjcuNzU0LDEzMjUuOTI3OCw4MjUuNDA4NiwxMzMxLjA3NTUsODIwLjI2MDksMTMyOC43MzAxLDgyNy4xNiwxMzM1Ljc1ODgiIHN0eWxlPSJzdHJva2U6IzE4MTgxODtzdHJva2Utd2lkdGg6MTsiLz48dGV4dCBmaWxsPSIjMDAwMDAwIiBmb250LWZhbWlseT0ic2Fucy1zZXJpZiIgZm9udC1zaXplPSIxMyIgbGVuZ3RoQWRqdXN0PSJzcGFjaW5nIiB0ZXh0TGVuZ3RoPSI3OCIgeD0iODI5LjUiIHk9IjEzMTYuMjU3OCI+QXBwcm92ZSBHYW1lPC90ZXh0PjwvZz48IS0tbGluayBNYW5hZ2luZyB0byBSZWplY3RpbmctLT48ZyBjbGFzcz0ibGluayIgZGF0YS1lbnRpdHktMT0iTWFuYWdpbmciIGRhdGEtZW50aXR5LTI9IlJlamVjdGluZyIgZGF0YS1zb3VyY2UtbGluZT0iNDEiIGRhdGEtdWlkPSJsbms0NCIgaWQ9ImxpbmtfTWFuYWdpbmdfUmVqZWN0aW5nIj48cGF0aCBkPSJNOTY4LjQ1LDEyODUuMDY4OCBDOTYzLjU4LDEyOTAuMzk4OCA5NTkuMjUsMTI5Ni40Mjg4IDk1Ni41LDEzMDIuOTY4OCBDOTUyLjE0LDEzMTMuMzE4OCA5NTIuMDAwNiwxMzE5LjY5MTMgOTU1LjMwMDYsMTMzMC4wNjEzIiBmaWxsPSJub25lIiBpZD0iTWFuYWdpbmctdG8tUmVqZWN0aW5nIiBzdHlsZT0ic3Ryb2tlOiMxODE4MTg7c3Ryb2tlLXdpZHRoOjE7Ii8+PHBvbHlnb24gZmlsbD0iIzE4MTgxOCIgcG9pbnRzPSI5NTcuMTIsMTMzNS43Nzg4LDk1OC4yMDI1LDEzMjUuOTg5Niw5NTUuNjAzOCwxMzMxLjAxNDIsOTUwLjU3OTIsMTMyOC40MTU1LDk1Ny4xMiwxMzM1Ljc3ODgiIHN0eWxlPSJzdHJva2U6IzE4MTgxODtzdHJva2Utd2lkdGg6MTsiLz48dGV4dCBmaWxsPSIjMDAwMDAwIiBmb250LWZhbWlseT0ic2Fucy1zZXJpZiIgZm9udC1zaXplPSIxMyIgbGVuZ3RoQWRqdXN0PSJzcGFjaW5nIiB0ZXh0TGVuZ3RoPSI3MS41IiB4PSI5NTcuNSIgeT0iMTMxNi4yNTc4Ij5SZWplY3QgR2FtZTwvdGV4dD48L2c+PCEtLWxpbmsgTWFuYWdpbmcgdG8gRWRpdGluZy0tPjxnIGNsYXNzPSJsaW5rIiBkYXRhLWVudGl0eS0xPSJNYW5hZ2luZyIgZGF0YS1lbnRpdHktMj0iRWRpdGluZyIgZGF0YS1zb3VyY2UtbGluZT0iNDIiIGRhdGEtdWlkPSJsbms0NiIgaWQ9ImxpbmtfTWFuYWdpbmdfRWRpdGluZyI+PHBhdGggZD0iTTEwMzEuOTUsMTI4NS4wNzg4IEMxMDQ1Ljg5LDEyOTUuMzI4OCAxMDYyLjQxLDEzMDcuMzQ4OCAxMDc3LjUsMTMxNy45Njg4IEMxMDg2LjMyLDEzMjQuMTc4OCAxMDkwLjk3MTcsMTMyNy40MTQ5IDEwOTkuOTUxNywxMzMzLjQ5NDkiIGZpbGw9Im5vbmUiIGlkPSJNYW5hZ2luZy10by1FZGl0aW5nIiBzdHlsZT0ic3Ryb2tlOiMxODE4MTg7c3Ryb2tlLXdpZHRoOjE7Ii8+PHBvbHlnb24gZmlsbD0iIzE4MTgxOCIgcG9pbnRzPSIxMTA0LjkyLDEzMzYuODU4NywxMDk5LjcxMDEsMTMyOC41MDA3LDExMDAuNzc5NywxMzM0LjA1NTUsMTA5NS4yMjQ5LDEzMzUuMTI1MiwxMTA0LjkyLDEzMzYuODU4NyIgc3R5bGU9InN0cm9rZTojMTgxODE4O3N0cm9rZS13aWR0aDoxOyIvPjx0ZXh0IGZpbGw9IiMwMDAwMDAiIGZvbnQtZmFtaWx5PSJzYW5zLXNlcmlmIiBmb250LXNpemU9IjEzIiBsZW5ndGhBZGp1c3Q9InNwYWNpbmciIHRleHRMZW5ndGg9IjExMC41IiB4PSIxMDc4LjUiIHk9IjEzMTYuMjU3OCI+RWRpdCBHYW1lIERldGFpbHM8L3RleHQ+PC9nPjwhLS1saW5rIEFwcHJvdmluZyB0byBNYW5hZ2luZy0tPjxnIGNsYXNzPSJsaW5rIiBkYXRhLWVudGl0eS0xPSJBcHByb3ZpbmciIGRhdGEtZW50aXR5LTI9Ik1hbmFnaW5nIiBkYXRhLXNvdXJjZS1saW5lPSI0MyIgZGF0YS11aWQ9ImxuazQ3IiBpZD0ibGlua19BcHByb3ZpbmdfTWFuYWdpbmciPjxwYXRoIGQ9Ik04NzkuNzIsMTMzNS43OTg4IEM4ODkuMTUsMTMyOS45Nzg4IDg5OS4xOSwxMzIzLjc1ODggOTA4LjUsMTMxNy45Njg4IEM5MjUuOTEsMTMwNy4xMzg4IDk0MC4wNzY2LDEyOTguMjc2IDk1Ni4zNzY2LDEyODguMDU2IiBmaWxsPSJub25lIiBpZD0iQXBwcm92aW5nLXRvLU1hbmFnaW5nIiBzdHlsZT0ic3Ryb2tlOiMxODE4MTg7c3Ryb2tlLXdpZHRoOjE7Ii8+PHBvbHlnb24gZmlsbD0iIzE4MTgxOCIgcG9pbnRzPSI5NjEuNDYsMTI4NC44Njg4LDk1MS43MSwxMjg2LjI2MDcsOTU3LjIyMzgsMTI4Ny41MjQ4LDk1NS45NTk3LDEyOTMuMDM4Niw5NjEuNDYsMTI4NC44Njg4IiBzdHlsZT0ic3Ryb2tlOiMxODE4MTg7c3Ryb2tlLXdpZHRoOjE7Ii8+PC9nPjwhLS1saW5rIFJlamVjdGluZyB0byBNYW5hZ2luZy0tPjxnIGNsYXNzPSJsaW5rIiBkYXRhLWVudGl0eS0xPSJSZWplY3RpbmciIGRhdGEtZW50aXR5LTI9Ik1hbmFnaW5nIiBkYXRhLXNvdXJjZS1saW5lPSI0NCIgZGF0YS11aWQ9ImxuazQ4IiBpZD0ibGlua19SZWplY3RpbmdfTWFuYWdpbmciPjxwYXRoIGQ9Ik0xMDEwLjEzLDEzMzkuNDY4OCBDMTAxNy45MiwxMzMzLjY0ODggMTAyNS4wMSwxMzI2LjUwODggMTAyOS41LDEzMTcuOTY4OCBDMTAzNS4xNywxMzA3LjE3ODggMTAzNC4wMjU0LDEzMDAuMTUzOSAxMDI2Ljg3NTQsMTI5MC4wMDM5IiBmaWxsPSJub25lIiBpZD0iUmVqZWN0aW5nLXRvLU1hbmFnaW5nIiBzdHlsZT0ic3Ryb2tlOiMxODE4MTg7c3Ryb2tlLXdpZHRoOjE7Ii8+PHBvbHlnb24gZmlsbD0iIzE4MTgxOCIgcG9pbnRzPSIxMDIzLjQyLDEyODUuMDk4OCwxMDI1LjMzMjksMTI5NC43NiwxMDI2LjI5OTUsMTI4OS4xODY0LDEwMzEuODczMSwxMjkwLjE1MjksMTAyMy40MiwxMjg1LjA5ODgiIHN0eWxlPSJzdHJva2U6IzE4MTgxODtzdHJva2Utd2lkdGg6MTsiLz48L2c+PCEtLWxpbmsgRWRpdGluZyB0byBNYW5hZ2luZy0tPjxnIGNsYXNzPSJsaW5rIiBkYXRhLWVudGl0eS0xPSJFZGl0aW5nIiBkYXRhLWVudGl0eS0yPSJNYW5hZ2luZyIgZGF0YS1zb3VyY2UtbGluZT0iNDUiIGRhdGEtdWlkPSJsbms0OSIgaWQ9ImxpbmtfRWRpdGluZ19NYW5hZ2luZyI+PHBhdGggZD0iTTExNzQuMTcsMTM0MC4wMTg4IEMxMTg4LjQ5LDEzMjkuMjQ4OCAxMTk5LjY0LDEzMTUuNTg4OCAxMTg5LjUsMTMwMi45Njg4IEMxMTcwLjgzLDEyNzkuNzI4OCAxMDkzLjU2MzcsMTI2OS4xMzAyIDEwNDMuNjYzNywxMjY0LjQ0MDIiIGZpbGw9Im5vbmUiIGlkPSJFZGl0aW5nLXRvLU1hbmFnaW5nIiBzdHlsZT0ic3Ryb2tlOiMxODE4MTg7c3Ryb2tlLXdpZHRoOjE7Ii8+PHBvbHlnb24gZmlsbD0iIzE4MTgxOCIgcG9pbnRzPSIxMDM3LjY5LDEyNjMuODc4OCwxMDQ2LjI3NjIsMTI2OC43MDM0LDEwNDIuNjY4MSwxMjY0LjM0NjYsMTA0Ny4wMjQ4LDEyNjAuNzM4NSwxMDM3LjY5LDEyNjMuODc4OCIgc3R5bGU9InN0cm9rZTojMTgxODE4O3N0cm9rZS13aWR0aDoxOyIvPjwvZz48ZWxsaXBzZSBjeD0iMjAiIGN5PSI2Ny45ODQ0IiBmaWxsPSIjMjIyMjIyIiByeD0iMTAiIHJ5PSIxMCIgc3R5bGU9InN0cm9rZTojMjIyMjIyO3N0cm9rZS13aWR0aDoxOyIvPjxnIGlkPSJMb2dvdXQiPjxyZWN0IGZpbGw9IiNGMUYxRjEiIGhlaWdodD0iNTAiIHJ4PSIxMi41IiByeT0iMTIuNSIgc3R5bGU9InN0cm9rZTojMTgxODE4O3N0cm9rZS13aWR0aDowLjU7IiB3aWR0aD0iNjIiIHg9IjI1OSIgeT0iNDIuOTg0NCIvPjxsaW5lIHN0eWxlPSJzdHJva2U6IzE4MTgxODtzdHJva2Utd2lkdGg6MC41OyIgeDE9IjI1OSIgeDI9IjMyMSIgeTE9IjY3Ljk2ODgiIHkyPSI2Ny45Njg4Ii8+PHRleHQgZmlsbD0iIzAwMDAwMCIgZm9udC1mYW1pbHk9InNhbnMtc2VyaWYiIGZvbnQtc2l6ZT0iMTQiIGxlbmd0aEFkanVzdD0ic3BhY2luZyIgdGV4dExlbmd0aD0iNDIiIHg9IjI2OSIgeT0iNjEuMjE4OCI+TG9nb3V0PC90ZXh0PjwvZz48IS0tbGluayAqc3RhcnQqIHRvIEd1ZXN0LS0+PGcgY2xhc3M9ImxpbmsiIGRhdGEtZW50aXR5LTE9IipzdGFydCoiIGRhdGEtZW50aXR5LTI9Ikd1ZXN0IiBkYXRhLXNvdXJjZS1saW5lPSIzIiBkYXRhLXVpZD0ibG5rMyIgaWQ9ImxpbmtfKnN0YXJ0Kl9HdWVzdCI+PHBhdGggZD0iTTIwLDc4LjM2NDQgQzIwLDk0LjAyNDQgMjAsMTI2LjYzOTQgMjAsMTU1LjcyNTYgQzIwLDE1Ny41NDM1IDIwLDE1OS4zNDc2IDIwLDE2MS4xMzI5IEMyMCwxNjEuMzU2MSAyMCwxNTUuNTc5IDIwLDE1NS44MDE1IiBmaWxsPSJub25lIiBpZD0iKnN0YXJ0Ki10by1HdWVzdCIgc3R5bGU9InN0cm9rZTojMTgxODE4O3N0cm9rZS13aWR0aDoxOyIvPjxwb2x5Z29uIGZpbGw9IiMxODE4MTgiIHBvaW50cz0iMjAsMTYxLjgwMTUsMjQsMTUyLjgwMTUsMjAsMTU2LjgwMTUsMTYsMTUyLjgwMTUsMjAsMTYxLjgwMTUiIHN0eWxlPSJzdHJva2U6IzE4MTgxODtzdHJva2Utd2lkdGg6MTsiLz48dGV4dCBmaWxsPSIjMDAwMDAwIiBmb250LWZhbWlseT0ic2Fucy1zZXJpZiIgZm9udC1zaXplPSIxMyIgbGVuZ3RoQWRqdXN0PSJzcGFjaW5nIiB0ZXh0TGVuZ3RoPSI3OCIgeD0iMjEiIHk9IjEzNi4yNzM0Ij5PcGVuIHdlYnNpdGU8L3RleHQ+PC9nPjwhLS1saW5rICpzdGFydCpHdWVzdCB0byBCcm93c2luZy0tPjxnIGNsYXNzPSJsaW5rIiBkYXRhLWVudGl0eS0xPSIqc3RhcnQqR3Vlc3QiIGRhdGEtZW50aXR5LTI9IkJyb3dzaW5nIiBkYXRhLXNvdXJjZS1saW5lPSI2IiBkYXRhLXVpZD0ibG5rNiIgaWQ9ImxpbmtfKnN0YXJ0Kkd1ZXN0X0Jyb3dzaW5nIj48cGF0aCBkPSJNMTQwLDIyMi45OTQ0IEMxNDAsMjM2Ljg3NDQgMTQwLDI1Ny45NTQ0IDE0MCwyNzcuODI0NCIgZmlsbD0ibm9uZSIgaWQ9IipzdGFydCpHdWVzdC10by1Ccm93c2luZyIgc3R5bGU9InN0cm9rZTojMTgxODE4O3N0cm9rZS13aWR0aDoxOyIvPjxwb2x5Z29uIGZpbGw9IiMxODE4MTgiIHBvaW50cz0iMTQwLDI4My44MjQ0LDE0NCwyNzQuODI0NCwxNDAsMjc4LjgyNDQsMTM2LDI3NC44MjQ0LDE0MCwyODMuODI0NCIgc3R5bGU9InN0cm9rZTojMTgxODE4O3N0cm9rZS13aWR0aDoxOyIvPjwvZz48IS0tbGluayBCcm93c2luZyB0byBSZWdpc3Rlci0tPjxnIGNsYXNzPSJsaW5rIiBkYXRhLWVudGl0eS0xPSJCcm93c2luZyIgZGF0YS1lbnRpdHktMj0iUmVnaXN0ZXIiIGRhdGEtc291cmNlLWxpbmU9IjciIGRhdGEtdWlkPSJsbms4IiBpZD0ibGlua19Ccm93c2luZ19SZWdpc3RlciI+PHBhdGggZD0iTTEwMS43OSwzMzMuMTQ0NCBDOTEuNDksMzQxLjQ3NDQgODEuNjQsMzUxLjg1NDQgNzYsMzYzLjk4NDQgQzY5LjUxLDM3Ny45NDQ0IDY5LjY3OTIsMzg5LjM0MzggNzIuODA5Miw0MDMuMTAzOCIgZmlsbD0ibm9uZSIgaWQ9IkJyb3dzaW5nLXRvLVJlZ2lzdGVyIiBzdHlsZT0ic3Ryb2tlOiMxODE4MTg7c3Ryb2tlLXdpZHRoOjE7Ii8+PHBvbHlnb24gZmlsbD0iIzE4MTgxOCIgcG9pbnRzPSI3NC4xNCw0MDguOTU0NCw3Ni4wNDQxLDM5OS4yOTEzLDczLjAzMSw0MDQuMDc4OSw2OC4yNDM0LDQwMS4wNjU4LDc0LjE0LDQwOC45NTQ0IiBzdHlsZT0ic3Ryb2tlOiMxODE4MTg7c3Ryb2tlLXdpZHRoOjE7Ii8+PHRleHQgZmlsbD0iIzAwMDAwMCIgZm9udC1mYW1pbHk9InNhbnMtc2VyaWYiIGZvbnQtc2l6ZT0iMTMiIGxlbmd0aEFkanVzdD0ic3BhY2luZyIgdGV4dExlbmd0aD0iNzgiIHg9Ijc3IiB5PSIzNzcuMjczNCI+Q2xpY2sgU2lnbnVwPC90ZXh0PjwvZz48IS0tbGluayBCcm93c2luZyB0byBMb2dpbi0tPjxnIGNsYXNzPSJsaW5rIiBkYXRhLWVudGl0eS0xPSJCcm93c2luZyIgZGF0YS1lbnRpdHktMj0iTG9naW4iIGRhdGEtc291cmNlLWxpbmU9IjgiIGRhdGEtdWlkPSJsbmsxMCIgaWQ9ImxpbmtfQnJvd3NpbmdfTG9naW4iPjxwYXRoIGQ9Ik0xNTEuNTIsMzMzLjk5NDQgQzE2MS44NCwzNTUuNTI0NCAxNzQuMzM1MSwzODEuNTY0NSAxODQuNzE1MSw0MDMuMjA0NSIgZmlsbD0ibm9uZSIgaWQ9IkJyb3dzaW5nLXRvLUxvZ2luIiBzdHlsZT0ic3Ryb2tlOiMxODE4MTg7c3Ryb2tlLXdpZHRoOjE7Ii8+PHBvbHlnb24gZmlsbD0iIzE4MTgxOCIgcG9pbnRzPSIxODcuMzEsNDA4LjYxNDQsMTg3LjAyNDIsMzk4Ljc2OTcsMTg1LjE0NzYsNDA0LjEwNjIsMTc5LjgxMTEsNDAyLjIyOTYsMTg3LjMxLDQwOC42MTQ0IiBzdHlsZT0ic3Ryb2tlOiMxODE4MTg7c3Ryb2tlLXdpZHRoOjE7Ii8+PHRleHQgZmlsbD0iIzAwMDAwMCIgZm9udC1mYW1pbHk9InNhbnMtc2VyaWYiIGZvbnQtc2l6ZT0iMTMiIGxlbmd0aEFkanVzdD0ic3BhY2luZyIgdGV4dExlbmd0aD0iNzEuNSIgeD0iMTc1IiB5PSIzNzcuMjczNCI+Q2xpY2sgTG9naW48L3RleHQ+PC9nPjwhLS1saW5rIFJlZ2lzdGVyIHRvIExvZ2dlZEluLS0+PGcgY2xhc3M9ImxpbmsiIGRhdGEtZW50aXR5LTE9IlJlZ2lzdGVyIiBkYXRhLWVudGl0eS0yPSJMb2dnZWRJbiIgZGF0YS1zb3VyY2UtbGluZT0iOSIgZGF0YS11aWQ9ImxuazExIiBpZD0ibGlua19SZWdpc3Rlcl9Mb2dnZWRJbiI+PHBhdGggZD0iTTgxLjcxLDQ1OC45ODQ0IEM4Mi4wMyw0NzYuNjY0NCA4My42LDUwMS4xNTQ0IDg5LDUyMS45ODQ0IEMxMDMuNTgsNTc4LjE3NDQgMTMwLjQ1NSw2MzcuNTU0NCAxNTMuOTksNjgzLjM3MzEgQzE2NS43NTc1LDcwNi4yODI1IDE3Ni42OSw3MjUuODAxNiAxODQuODMzMSw3MzkuODM2NCBDMTg2Ljg2ODksNzQzLjM0NTEgMTg4LjczMDQsNzQ2LjUxMTEgMTkwLjM4NjksNzQ5LjMwMTUgQzE5MC41OTQsNzQ5LjY1MDMgMTg3LjcyODksNzQ0LjgzNzYgMTg3LjkyOTUsNzQ1LjE3NDYiIGZpbGw9Im5vbmUiIGlkPSJSZWdpc3Rlci10by1Mb2dnZWRJbiIgc3R5bGU9InN0cm9rZTojMTgxODE4O3N0cm9rZS13aWR0aDoxOyIvPjxwb2x5Z29uIGZpbGw9IiMxODE4MTgiIHBvaW50cz0iMTkwLjk5ODUsNzUwLjMzMDMsMTg5LjgzMjEsNzQwLjU1MDcsMTg4LjQ0MSw3NDYuMDMzOSwxODIuOTU3OCw3NDQuNjQyNywxOTAuOTk4NSw3NTAuMzMwMyIgc3R5bGU9InN0cm9rZTojMTgxODE4O3N0cm9rZS13aWR0aDoxOyIvPjx0ZXh0IGZpbGw9IiMwMDAwMDAiIGZvbnQtZmFtaWx5PSJzYW5zLXNlcmlmIiBmb250LXNpemU9IjEzIiBsZW5ndGhBZGp1c3Q9InNwYWNpbmciIHRleHRMZW5ndGg9Ijk3LjUiIHg9IjkwIiB5PSI1MjAuMjczNCI+QWNjb3VudCBjcmVhdGVkPC90ZXh0PjwvZz48IS0tbGluayBMb2dpbiB0byBMb2dnZWRJbi0tPjxnIGNsYXNzPSJsaW5rIiBkYXRhLWVudGl0eS0xPSJMb2dpbiIgZGF0YS1lbnRpdHktMj0iTG9nZ2VkSW4iIGRhdGEtc291cmNlLWxpbmU9IjEwIiBkYXRhLXVpZD0ibG5rMTIiIGlkPSJsaW5rX0xvZ2luX0xvZ2dlZEluIj48cGF0aCBkPSJNMTk3LjczLDQ1OS4zMDQ0IEMxOTcuMDcsNDczLjI1NDQgMTk2LjMzLDQ5MS4wOTQ0IDE5Niw1MDYuOTg0NCBDMTk1Ljg1MzgsNTEzLjk5NjkgMTk1LjczNjgsNTIxLjExNzQgMTk1LjY0NjIsNTI4LjMwNjEgQzE5NS42MDA5LDUzMS45MDA0IDE5NS41NjIxLDUzNS41MTE4IDE5NS41Mjk2LDUzOS4xMzUyIEMxOTUuNTEzMyw1NDAuOTQ3IDE5NS40OTg2LDU0Mi43NjE3IDE5NS40ODUzLDU0NC41Nzg4IEMxOTUuNDgyLDU0NS4wMzMxIDE5NS41Miw1MzkuNDg3NyAxOTUuNTE2OSw1MzkuOTQyMyIgZmlsbD0ibm9uZSIgaWQ9IkxvZ2luLXRvLUxvZ2dlZEluIiBzdHlsZT0ic3Ryb2tlOiMxODE4MTg7c3Ryb2tlLXdpZHRoOjE7Ii8+PHBvbHlnb24gZmlsbD0iIzE4MTgxOCIgcG9pbnRzPSIxOTUuNDc1Nyw1NDUuOTQyMSwxOTkuNTM3NCw1MzYuOTY5OCwxOTUuNTEsNTQwLjk0MjMsMTkxLjUzNzYsNTM2LjkxNDksMTk1LjQ3NTcsNTQ1Ljk0MjEiIHN0eWxlPSJzdHJva2U6IzE4MTgxODtzdHJva2Utd2lkdGg6MTsiLz48dGV4dCBmaWxsPSIjMDAwMDAwIiBmb250LWZhbWlseT0ic2Fucy1zZXJpZiIgZm9udC1zaXplPSIxMyIgbGVuZ3RoQWRqdXN0PSJzcGFjaW5nIiB0ZXh0TGVuZ3RoPSIxMzYuNSIgeD0iMTk3IiB5PSI1MjAuMjczNCI+Q3JlZGVudGlhbHMgdmFsaWRhdGVkPC90ZXh0PjwvZz48IS0tbGluayAqc3RhcnQqTG9nZ2VkSW4gdG8gSWRsZS0tPjxnIGNsYXNzPSJsaW5rIiBkYXRhLWVudGl0eS0xPSIqc3RhcnQqTG9nZ2VkSW4iIGRhdGEtZW50aXR5LTI9IklkbGUiIGRhdGEtc291cmNlLWxpbmU9IjE0IiBkYXRhLXVpZD0ibG5rMTUiIGlkPSJsaW5rXypzdGFydCpMb2dnZWRJbl9JZGxlIj48cGF0aCBkPSJNMzE1LjIzLDc3NC42MTQ0IEMzMTIuMyw4MTEuNDA0NCAzMDIuODEsOTQ4LjU3NDQgMzIxLDk4Ni45ODQ0IEMzMjguOTYsMTAwMy43NzQ0IDMzOS45MTcxLDEwMTMuOTk3MiAzNTMuNzY3MSwxMDIzLjM0NzIiIGZpbGw9Im5vbmUiIGlkPSIqc3RhcnQqTG9nZ2VkSW4tdG8tSWRsZSIgc3R5bGU9InN0cm9rZTojMTgxODE4O3N0cm9rZS13aWR0aDoxOyIvPjxwb2x5Z29uIGZpbGw9IiMxODE4MTgiIHBvaW50cz0iMzU4Ljc0LDEwMjYuNzA0NCwzNTMuNTE4OCwxMDE4LjM1MzQsMzU0LjU5NTksMTAyMy45MDY4LDM0OS4wNDI2LDEwMjQuOTgzOSwzNTguNzQsMTAyNi43MDQ0IiBzdHlsZT0ic3Ryb2tlOiMxODE4MTg7c3Ryb2tlLXdpZHRoOjE7Ii8+PC9nPjwhLS1saW5rIElkbGUgdG8gQ29udHJpYnV0b3ItLT48ZyBjbGFzcz0ibGluayIgZGF0YS1lbnRpdHktMT0iSWRsZSIgZGF0YS1lbnRpdHktMj0iQ29udHJpYnV0b3IiIGRhdGEtc291cmNlLWxpbmU9IjE1IiBkYXRhLXVpZD0ibG5rMTYiIGlkPSJsaW5rX0lkbGVfQ29udHJpYnV0b3IiPjxwYXRoIGQ9Ik00MDkuMjUsMTA0MS41MzQ0IEM0NDguMDEsMTA0MC44MjQ0IDUyMS4yMywxMDMzLjA2NDQgNTU1LDk4Ni45ODQ0IEM1NjQuOTEsOTczLjQ2NDQgNTY5LjgxMzIsOTY0LjAxMTggNTczLjEyMzIsOTQ3Ljg5MTgiIGZpbGw9Im5vbmUiIGlkPSJJZGxlLXRvLUNvbnRyaWJ1dG9yIiBzdHlsZT0ic3Ryb2tlOiMxODE4MTg7c3Ryb2tlLXdpZHRoOjE7Ii8+PHBvbHlnb24gZmlsbD0iIzE4MTgxOCIgcG9pbnRzPSI1NzQuMzMsOTQyLjAxNDQsNTY4LjYwMTUsOTUwLjAyNTksNTczLjMyNDMsOTQ2LjkxMjIsNTc2LjQzOCw5NTEuNjM1LDU3NC4zMyw5NDIuMDE0NCIgc3R5bGU9InN0cm9rZTojMTgxODE4O3N0cm9rZS13aWR0aDoxOyIvPjx0ZXh0IGZpbGw9IiMwMDAwMDAiIGZvbnQtZmFtaWx5PSJzYW5zLXNlcmlmIiBmb250LXNpemU9IjEzIiBsZW5ndGhBZGp1c3Q9InNwYWNpbmciIHRleHRMZW5ndGg9IjE0MyIgeD0iNTY1IiB5PSI5ODUuMjczNCI+QWRkIGdhbWUgKGF1dG8vbWFudWFsKTwvdGV4dD48L2c+PCEtLWxpbmsgQ29udHJpYnV0b3IgdG8gSWRsZS0tPjxnIGNsYXNzPSJsaW5rIiBkYXRhLWVudGl0eS0xPSJDb250cmlidXRvciIgZGF0YS1lbnRpdHktMj0iSWRsZSIgZGF0YS1zb3VyY2UtbGluZT0iMTkiIGRhdGEtdWlkPSJsbmsyMCIgaWQ9ImxpbmtfQ29udHJpYnV0b3JfSWRsZSI+PHBhdGggZD0iTTQxNS4zOCw4NzEuMjM0NCBDMzg4Ljc4LDkwMC44MzQ0IDM2NC4zOCw5MzUuMTA0NCAzNTAsOTcxLjk4NDQgQzM0NC4wMyw5ODcuMjg0NCAzNDguMTEyMSw5OTguOTY4NCAzNTcuNjMyMSwxMDEyLjAwODQiIGZpbGw9Im5vbmUiIGlkPSJDb250cmlidXRvci10by1JZGxlIiBzdHlsZT0ic3Ryb2tlOiMxODE4MTg7c3Ryb2tlLXdpZHRoOjE7Ii8+PHBvbHlnb24gZmlsbD0iIzE4MTgxOCIgcG9pbnRzPSIzNjEuMTcsMTAxNi44NTQ0LDM1OS4wOTM5LDEwMDcuMjI2OCwzNTguMjIxOCwxMDEyLjgxNjEsMzUyLjYzMjYsMTAxMS45NDQsMzYxLjE3LDEwMTYuODU0NCIgc3R5bGU9InN0cm9rZTojMTgxODE4O3N0cm9rZS13aWR0aDoxOyIvPjx0ZXh0IGZpbGw9IiMwMDAwMDAiIGZvbnQtZmFtaWx5PSJzYW5zLXNlcmlmIiBmb250LXNpemU9IjEzIiBsZW5ndGhBZGp1c3Q9InNwYWNpbmciIHRleHRMZW5ndGg9IjE5NSIgeD0iMzUxIiB5PSI5ODUuMjczNCI+R2FtZSBzdWJtaXR0ZWQgdG8gUGVuZGluZ0dhbWVzPC90ZXh0PjwvZz48IS0tbGluayBJZGxlIHRvIFJldmlld2VyLS0+PGcgY2xhc3M9ImxpbmsiIGRhdGEtZW50aXR5LTE9IklkbGUiIGRhdGEtZW50aXR5LTI9IlJldmlld2VyIiBkYXRhLXNvdXJjZS1saW5lPSIxNiIgZGF0YS11aWQ9ImxuazE3IiBpZD0ibGlua19JZGxlX1Jldmlld2VyIj48cGF0aCBkPSJNMzU4LjkyLDEwNDUuMzg0NCBDMzI4LjQyLDEwNDkuNzk0NCAyNzguMTQsMTA2Mi4yMTQ0IDI1NSwxMDk2Ljk4NDQgQzI0My4zMywxMTE0LjUxNDQgMjQxLjA2MDEsMTEyNy44NzAyIDI0Ny4wOTAxLDExNDYuNzAwMiIgZmlsbD0ibm9uZSIgaWQ9IklkbGUtdG8tUmV2aWV3ZXIiIHN0eWxlPSJzdHJva2U6IzE4MTgxODtzdHJva2Utd2lkdGg6MTsiLz48cG9seWdvbiBmaWxsPSIjMTgxODE4IiBwb2ludHM9IjI0OC45MiwxMTUyLjQxNDQsMjQ5Ljk4NDYsMTE0Mi42MjMyLDI0Ny4zOTUxLDExNDcuNjUyNiwyNDIuMzY1OCwxMTQ1LjA2MywyNDguOTIsMTE1Mi40MTQ0IiBzdHlsZT0ic3Ryb2tlOiMxODE4MTg7c3Ryb2tlLXdpZHRoOjE7Ii8+PHRleHQgZmlsbD0iIzAwMDAwMCIgZm9udC1mYW1pbHk9InNhbnMtc2VyaWYiIGZvbnQtc2l6ZT0iMTMiIGxlbmd0aEFkanVzdD0ic3BhY2luZyIgdGV4dExlbmd0aD0iODQuNSIgeD0iMjU2IiB5PSIxMTEwLjI3MzQiPlN1Ym1pdCByZXZpZXc8L3RleHQ+PC9nPjwhLS1saW5rIFJldmlld2VyIHRvIElkbGUtLT48ZyBjbGFzcz0ibGluayIgZGF0YS1lbnRpdHktMT0iUmV2aWV3ZXIiIGRhdGEtZW50aXR5LTI9IklkbGUiIGRhdGEtc291cmNlLWxpbmU9IjIwIiBkYXRhLXVpZD0ibG5rMjEiIGlkPSJsaW5rX1Jldmlld2VyX0lkbGUiPjxwYXRoIGQ9Ik0zNjkuMDgsMTE0MS43MjQ0IEMzNzMuNCwxMTEzLjExNDQgMzc2LjY0MywxMDkxLjY0NjkgMzc5LjQ2MywxMDcyLjk5NjkiIGZpbGw9Im5vbmUiIGlkPSJSZXZpZXdlci10by1JZGxlIiBzdHlsZT0ic3Ryb2tlOiMxODE4MTg7c3Ryb2tlLXdpZHRoOjE7Ii8+PHBvbHlnb24gZmlsbD0iIzE4MTgxOCIgcG9pbnRzPSIzODAuMzYsMTA2Ny4wNjQ0LDM3NS4wNTk0LDEwNzUuMzY1MiwzNzkuNjEyNSwxMDcyLjAwODIsMzgyLjk2OTUsMTA3Ni41NjEyLDM4MC4zNiwxMDY3LjA2NDQiIHN0eWxlPSJzdHJva2U6IzE4MTgxODtzdHJva2Utd2lkdGg6MTsiLz48dGV4dCBmaWxsPSIjMDAwMDAwIiBmb250LWZhbWlseT0ic2Fucy1zZXJpZiIgZm9udC1zaXplPSIxMyIgbGVuZ3RoQWRqdXN0PSJzcGFjaW5nIiB0ZXh0TGVuZ3RoPSIxNDkuNSIgeD0iMzc2IiB5PSIxMTEwLjI3MzQiPlJldmlldyBzYXZlZCBpbiBNb25nb0RCPC90ZXh0PjwvZz48IS0tbGluayBJZGxlIHRvIFZpZXdTdWdnZXN0aW9ucy0tPjxnIGNsYXNzPSJsaW5rIiBkYXRhLWVudGl0eS0xPSJJZGxlIiBkYXRhLWVudGl0eS0yPSJWaWV3U3VnZ2VzdGlvbnMiIGRhdGEtc291cmNlLWxpbmU9IjE3IiBkYXRhLXVpZD0ibG5rMTkiIGlkPSJsaW5rX0lkbGVfVmlld1N1Z2dlc3Rpb25zIj48cGF0aCBkPSJNNDA5LjI3LDEwNDQuODc0NCBDNDQyLjc5LDEwNDguNzg0NCA1MDEuNSwxMDYwLjY5NDQgNTM0LDEwOTYuOTg0NCBDNTcxLjA2LDExMzguMzc0NCA1NzYuMTc2NCwxMjAxLjM0NDQgNTc2LjAxNjQsMTIzNy43NTQ0IiBmaWxsPSJub25lIiBpZD0iSWRsZS10by1WaWV3U3VnZ2VzdGlvbnMiIHN0eWxlPSJzdHJva2U6IzE4MTgxODtzdHJva2Utd2lkdGg6MTsiLz48cG9seWdvbiBmaWxsPSIjMTgxODE4IiBwb2ludHM9IjU3NS45OSwxMjQzLjc1NDQsNTgwLjAyOTUsMTIzNC43NzIsNTc2LjAxMiwxMjM4Ljc1NDQsNTcyLjAyOTYsMTIzNC43MzY5LDU3NS45OSwxMjQzLjc1NDQiIHN0eWxlPSJzdHJva2U6IzE4MTgxODtzdHJva2Utd2lkdGg6MTsiLz48dGV4dCBmaWxsPSIjMDAwMDAwIiBmb250LWZhbWlseT0ic2Fucy1zZXJpZiIgZm9udC1zaXplPSIxMyIgbGVuZ3RoQWRqdXN0PSJzcGFjaW5nIiB0ZXh0TGVuZ3RoPSIxNjIuNSIgeD0iNTQ2IiB5PSIxMTEwLjI3MzQiPkFjY2VzcyAiWW91ciBTdWdnZXN0aW9ucyI8L3RleHQ+PC9nPjwhLS1saW5rIElkbGUgdG8gQWRtaW4tLT48ZyBjbGFzcz0ibGluayIgZGF0YS1lbnRpdHktMT0iSWRsZSIgZGF0YS1lbnRpdHktMj0iQWRtaW4iIGRhdGEtc291cmNlLWxpbmU9IjM1IiBkYXRhLXVpZD0ibG5rMzciIGlkPSJsaW5rX0lkbGVfQWRtaW4iPjxwYXRoIGQ9Ik00MDkuMDYsMTA0My43ODQ0IEM0NjUuNjgsMTA0Ni4yNzQ0IDYwNy4xMiwxMDU2LjQxNDQgNzE3LDEwOTYuOTg0NCBDNzQ5LjI4LDExMDguOTA0NCA3NzYuNjc4NiwxMTIxLjc4MjIgODA3LjcyODYsMTEzOC45NDIyIiBmaWxsPSJub25lIiBpZD0iSWRsZS10by1BZG1pbiIgc3R5bGU9InN0cm9rZTojMTgxODE4O3N0cm9rZS13aWR0aDoxOyIvPjxwb2x5Z29uIGZpbGw9IiMxODE4MTgiIHBvaW50cz0iODEyLjk4LDExNDEuODQ0NCw4MDcuMDM3NywxMTMzLjk5MDEsODA4LjYwMzgsMTEzOS40MjU5LDgwMy4xNjgxLDExNDAuOTkyLDgxMi45OCwxMTQxLjg0NDQiIHN0eWxlPSJzdHJva2U6IzE4MTgxODtzdHJva2Utd2lkdGg6MTsiLz48dGV4dCBmaWxsPSIjMDAwMDAwIiBmb250LWZhbWlseT0ic2Fucy1zZXJpZiIgZm9udC1zaXplPSIxMyIgbGVuZ3RoQWRqdXN0PSJzcGFjaW5nIiB0ZXh0TGVuZ3RoPSIxNjIuNSIgeD0iNzUwIiB5PSIxMTEwLjI3MzQiPlVzZXIgaGFzIGFkbWluIHByaXZpbGVnZXM8L3RleHQ+PC9nPjwhLS1saW5rIExvZ2dlZEluIHRvIExvZ291dC0tPjxnIGNsYXNzPSJsaW5rIiBkYXRhLWVudGl0eS0xPSJMb2dnZWRJbiIgZGF0YS1lbnRpdHktMj0iTG9nb3V0IiBkYXRhLXNvdXJjZS1saW5lPSI0OCIgZGF0YS11aWQ9ImxuazUxIiBpZD0ibGlua19Mb2dnZWRJbl9Mb2dvdXQiPjxwYXRoIGQ9Ik0xOTAuOTQ3NCw3NDAuMzI0NiBDMTkwLjg3MzcsNzQwLjA4OSAxOTAuNzk5OCw3MzkuODUxOSAxOTAuNzI1Niw3MzkuNjEzMyBDMTkwLjU3NzMsNzM5LjEzNjEgMTkwLjQyOCw3MzguNjUyOSAxOTAuMjc3OSw3MzguMTYzOSBDMTg5Ljk3NzUsNzM3LjE4NTkgMTg5LjY3MzcsNzM2LjE4NDUgMTg5LjM2Nyw3MzUuMTYwNSBDMTg0LjQ2MDksNzE4Ljc3NjYgMTc4Ljg0MzEsNjk2LjYyMTIgMTc1LjUxMzgsNjcyLjMyODEgQzE2OC44NTUsNjIzLjc0MTkgMTcxLjM1LDU2Ni42MDQ0IDIwNyw1MjkuOTg0NCBDMjI3LjM1LDUwOS4wODQ0IDMxNS41NCw1NDAuNTk0NCAzMzgsNTIxLjk4NDQgQzM2OC43MSw0OTYuNTM0NCAzNjAsNDc0Ljg2NDQgMzYwLDQzNC45ODQ0IEMzNjAsMjExLjk4NDQgMzYwLDIxMS45ODQ0IDM2MCwyMTEuOTg0NCBDMzYwLDE2Ni4zNzQ0IDMzNC41NTg4LDEyNC45MjUxIDMxMy44ODg4LDk3LjgyNTEiIGZpbGw9Im5vbmUiIGlkPSJMb2dnZWRJbi10by1Mb2dvdXQiIHN0eWxlPSJzdHJva2U6IzE4MTgxODtzdHJva2Utd2lkdGg6MTsiLz48cG9seWdvbiBmaWxsPSIjMTgxODE4IiBwb2ludHM9IjMxMC4yNSw5My4wNTQ0LDMxMi41Mjc3LDEwMi42MzYyLDMxMy4yODIzLDk3LjAzLDMxOC44ODg2LDk3Ljc4NDYsMzEwLjI1LDkzLjA1NDQiIHN0eWxlPSJzdHJva2U6IzE4MTgxODtzdHJva2Utd2lkdGg6MTsiLz48dGV4dCBmaWxsPSIjMDAwMDAwIiBmb250LWZhbWlseT0ic2Fucy1zZXJpZiIgZm9udC1zaXplPSIxMyIgbGVuZ3RoQWRqdXN0PSJzcGFjaW5nIiB0ZXh0TGVuZ3RoPSI4NC41IiB4PSIzNjEiIHk9IjMxNC43NzM0Ij5Vc2VyIGxvZ3Mgb3V0PC90ZXh0PjwvZz48IS0tbGluayBMb2dvdXQgdG8gR3Vlc3QtLT48ZyBjbGFzcz0ibGluayIgZGF0YS1lbnRpdHktMT0iTG9nb3V0IiBkYXRhLWVudGl0eS0yPSJHdWVzdCIgZGF0YS1zb3VyY2UtbGluZT0iNDkiIGRhdGEtdWlkPSJsbms1MiIgaWQ9ImxpbmtfTG9nb3V0X0d1ZXN0Ij48cGF0aCBkPSJNMjU4LjksODMuNjY0NCBDMjIzLjI4LDk5Ljc4NDQgMTYyLjc3LDEyNS4xMDQ0IDEwOCwxMzcuOTg0NCBDOTAuNjEsMTQyLjA3NDQgNDAuNzcsMTMzLjQ4NDQgMjgsMTQ1Ljk4NDQgQzI1LjQ0MzgsMTQ4LjQ4ODEgMjMuMzg5MiwxNTEuMzUzMyAyMS43NTI0LDE1NC40NTU2IEMyMC45MzQsMTU2LjAwNjggMjAuMjIsMTU3LjYxNzIgMTkuNTk5OSwxNTkuMjcxNCBDMTkuMjg5OSwxNjAuMDk4NSAyMC43OTEsMTU1LjIwOTEgMjAuNTI2NiwxNTYuMDU2MiIgZmlsbD0ibm9uZSIgaWQ9IkxvZ291dC10by1HdWVzdCIgc3R5bGU9InN0cm9rZTojMTgxODE4O3N0cm9rZS13aWR0aDoxOyIvPjxwb2x5Z29uIGZpbGw9IiMxODE4MTgiIHBvaW50cz0iMTguNzM4OSwxNjEuNzgzNiwyNS4yMzg4LDE1NC4zODQyLDIwLjIyODcsMTU3LjAxMDcsMTcuNjAyMiwxNTIuMDAwNiwxOC43Mzg5LDE2MS43ODM2IiBzdHlsZT0ic3Ryb2tlOiMxODE4MTg7c3Ryb2tlLXdpZHRoOjE7Ii8+PC9nPjwhLS1TUkM9W1RMSjFSamltM0J0eEF1WVVzVzcxeFphQ0k5RVhBRDJZSE9vajY4T1Q1OWpwa0RjSThUNDlYZzdfRmFnb1JDTFRKbjc5SF9BejlvakN0MkFLaDFZaGV4OENFckFETEhzaXU4ajMybV9xNHdpX2JNMmt4ckk3ZlQ0US1RT2VsZF91MFFsTDl4V1JxMzZpdVFiNzNNU3lFNjhpMmtWZFpSTV8xSzEydHJmcFRnR1JJUUxab0UtbjhTVW9SV3RSYmdoVks1QVpYdHU5VXAwRHdHYUo4ZTVDcElFYW1WaFVlcFBMUEdSREs1YUtEaEtXT195MmpoTE9lc1BJaE9FSlFnYUV1RFNhT2FCY0VreGg1WU5xRm83VTZpc00zV0NSQnM1SnJ6MjhNTjJqOUZFbkt0Zkd4S3NFdC1FOXkxcHFiaUVYOG1PUkNaZGNneUpiOENpVGF6NGsyYUJkdUVnUjZJbmFmUWoyLWQ4QVlRQnEtNGkzNXRROEI2MDNwd1hoQ1RHTk43MWxmOThybkhtdVRQOE1TVXBId0NSaVJsc1FRNGctcEZpb0VwRkkyZFIzNzhOUVlvQU1wUGstanFRU0prbmFtTzhKbDg3d3pYWjhCRXptOXJxZzlqeGxzRUNsaDNaaGkyN1g2cnZkQ1BDM2JxZlVSMVl1Sm5TM2J2YkhSSkJzcWhISFYyZy02VVM5UVNEN01KZlRWNjBxdE54YWt1d0Z5QVdTZzkzZUJQc2VISjVyX2E4WkRGeXk3dkxNSk5uY3dQV3Z3QURyU1pEU21IOE5WT2t1VUZ1bHg3REQ4eVlWdWNOa2ExTXJ0azV2c09CSUY3ckhJRkNrcVk5cFVlQlpvcEszOXNUUXFwWUdrMVpKcXJfSUZtMDBdLS0+PC9nPjwvc3ZnPg==;" vertex="1" parent="1">
            <mxGeometry x="1360" y="-490" width="1222" height="1425" as="geometry" />
          </mxCell>
        </UserObject>
        <UserObject label="" plantUmlData="{&#xa;  &quot;data&quot;: &quot;@startuml\ntitle Statechart Diagram - User Lifecycle (GameSonnet)\n\n[*] --&gt; Guest : Open website\n\nstate Guest {\n  [*] --&gt; Browsing\n  Browsing --&gt; Register : Click Signup\n  Browsing --&gt; Login : Click Login\n  Register --&gt; LoggedIn : Account created\n  Login --&gt; LoggedIn : Credentials validated\n}\n\nstate LoggedIn {\n  [*] --&gt; Idle\n  Idle --&gt; Contributor : Add game (auto/manual)\n  Idle --&gt; Reviewer : Submit review\n  Idle --&gt; ViewSuggestions : Access \&quot;Your Suggestions\&quot;\n\n  Contributor --&gt; Idle : Game submitted to PendingGames\n  Reviewer --&gt; Idle : Review saved in MongoDB\n\n  state Contributor {\n    [*] --&gt; Suggested\n    Suggested --&gt; WaitingApproval : Game in PendingGames\n    WaitingApproval --&gt; Approved : Admin approves\n    WaitingApproval --&gt; Rejected : Admin rejects\n    Approved --&gt; [*] : Contribution lifecycle ends\n    Rejected --&gt; [*] : Contribution lifecycle ends\n  }\n\n  state Reviewer {\n    [*] --&gt; WritingReview\n    WritingReview --&gt; Submitted : Review saved\n    Submitted --&gt; [*] : Review lifecycle ends\n  }\n\n  Idle --&gt; Admin : User has admin privileges\n}\n\nstate Admin {\n  [*] --&gt; Managing\n  Managing --&gt; Approving : Approve Game\n  Managing --&gt; Rejecting : Reject Game\n  Managing --&gt; Editing : Edit Game Details\n  Approving --&gt; Managing\n  Rejecting --&gt; Managing\n  Editing --&gt; Managing\n}\n\nLoggedIn --&gt; Logout : User logs out\nLogout --&gt; Guest\nGuest --&gt; [*] : User exits system\nLoggedIn --&gt; [*] : Account Deactivated / Session Expired\n\n@enduml\n&quot;,&#xa;  &quot;format&quot;: &quot;svg&quot;&#xa;}" id="5_kCgBCr4Gi-t9478Dj4-3">
          <mxCell style="shape=image;noLabel=1;verticalAlign=top;aspect=fixed;imageAspect=0;image=data:image/svg+xml,PHN2ZyB4bWxucz0iaHR0cDovL3d3dy53My5vcmcvMjAwMC9zdmciIHhtbG5zOnhsaW5rPSJodHRwOi8vd3d3LnczLm9yZy8xOTk5L3hsaW5rIiBjb250ZW50U3R5bGVUeXBlPSJ0ZXh0L2NzcyIgZGF0YS1kaWFncmFtLXR5cGU9IlNUQVRFIiBoZWlnaHQ9IjE1NzFweCIgcHJlc2VydmVBc3BlY3RSYXRpbz0ibm9uZSIgc3R5bGU9IndpZHRoOjEzMzBweDtoZWlnaHQ6MTU3MXB4O2JhY2tncm91bmQ6I0ZGRkZGRjsiIHZlcnNpb249IjEuMSIgdmlld0JveD0iMCAwIDEzMzAgMTU3MSIgd2lkdGg9IjEzMzBweCIgem9vbUFuZFBhbj0ibWFnbmlmeSI+PHRpdGxlPlN0YXRlY2hhcnQgRGlhZ3JhbSAtIFVzZXIgTGlmZWN5Y2xlIChHYW1lU29ubmV0KTwvdGl0bGU+PGRlZnMvPjxnPjx0ZXh0IGZpbGw9IiMwMDAwMDAiIGZvbnQtZmFtaWx5PSJzYW5zLXNlcmlmIiBmb250LXNpemU9IjE0IiBmb250LXdlaWdodD0iYm9sZCIgbGVuZ3RoQWRqdXN0PSJzcGFjaW5nIiB0ZXh0TGVuZ3RoPSIzMzYiIHg9IjQ4Ni44MiIgeT0iMjMuMjM0NCI+U3RhdGVjaGFydCBEaWFncmFtIC0gVXNlciBMaWZlY3ljbGUgKEdhbWVTb25uZXQpPC90ZXh0PjwhLS1jbHVzdGVyIEd1ZXN0LS0+PGcgY2xhc3M9ImNsdXN0ZXIiIGRhdGEtZW50aXR5PSJHdWVzdCIgZGF0YS1zb3VyY2UtbGluZT0iNSIgZGF0YS11aWQ9ImVudDAwMDIiIGlkPSJjbHVzdGVyX0d1ZXN0Ij48cGF0aCBkPSJNMTMzLjUsMTYxLjk4NDQgTDM5Mi41LDE2MS45ODQ0IEExMi41LDEyLjUgMCAwIDEgNDA1LDE3NC40ODQ0IEw0MDUsMTgxLjk2ODggTDEyMSwxODEuOTY4OCBMMTIxLDE3NC40ODQ0IEExMi41LDEyLjUgMCAwIDEgMTMzLjUsMTYxLjk4NDQiIGZpbGw9IiNGMUYxRjEiIHN0eWxlPSJzdHJva2U6I0YxRjFGMTtzdHJva2Utd2lkdGg6MTsiLz48cmVjdCBmaWxsPSJub25lIiBoZWlnaHQ9IjMyMSIgcng9IjEyLjUiIHJ5PSIxMi41IiBzdHlsZT0ic3Ryb2tlOiMxODE4MTg7c3Ryb2tlLXdpZHRoOjAuNTsiIHdpZHRoPSIyODQiIHg9IjEyMSIgeT0iMTYxLjk4NDQiLz48bGluZSBzdHlsZT0ic3Ryb2tlOiMxODE4MTg7c3Ryb2tlLXdpZHRoOjAuNTsiIHgxPSIxMjEiIHgyPSI0MDUiIHkxPSIxODEuOTY4OCIgeTI9IjE4MS45Njg4Ii8+PHRleHQgZmlsbD0iIzAwMDAwMCIgZm9udC1mYW1pbHk9InNhbnMtc2VyaWYiIGZvbnQtc2l6ZT0iMTQiIGxlbmd0aEFkanVzdD0ic3BhY2luZyIgdGV4dExlbmd0aD0iMzUiIHg9IjI0NS41IiB5PSIxNzkuMjE4OCI+R3Vlc3Q8L3RleHQ+PC9nPjwhLS1jbHVzdGVyIExvZ2dlZEluLS0+PGcgY2xhc3M9ImNsdXN0ZXIiIGRhdGEtZW50aXR5PSJMb2dnZWRJbiIgZGF0YS1zb3VyY2UtbGluZT0iMTMiIGRhdGEtdWlkPSJlbnQwMDAzIiBpZD0iY2x1c3Rlcl9Mb2dnZWRJbiI+PHBhdGggZD0iTTMxMS41LDU0NS45ODQ0IEw4NTguNSw1NDUuOTg0NCBBMTIuNSwxMi41IDAgMCAxIDg3MSw1NTguNDg0NCBMODcxLDU2NS45Njg4IEwyOTksNTY1Ljk2ODggTDI5OSw1NTguNDg0NCBBMTIuNSwxMi41IDAgMCAxIDMxMS41LDU0NS45ODQ0IiBmaWxsPSIjRjFGMUYxIiBzdHlsZT0ic3Ryb2tlOiNGMUYxRjE7c3Ryb2tlLXdpZHRoOjE7Ii8+PHJlY3QgZmlsbD0ibm9uZSIgaGVpZ2h0PSIxMDIwIiByeD0iMTIuNSIgcnk9IjEyLjUiIHN0eWxlPSJzdHJva2U6IzE4MTgxODtzdHJva2Utd2lkdGg6MC41OyIgd2lkdGg9IjU3MiIgeD0iMjk5IiB5PSI1NDUuOTg0NCIvPjxsaW5lIHN0eWxlPSJzdHJva2U6IzE4MTgxODtzdHJva2Utd2lkdGg6MC41OyIgeDE9IjI5OSIgeDI9Ijg3MSIgeTE9IjU2NS45Njg4IiB5Mj0iNTY1Ljk2ODgiLz48dGV4dCBmaWxsPSIjMDAwMDAwIiBmb250LWZhbWlseT0ic2Fucy1zZXJpZiIgZm9udC1zaXplPSIxNCIgbGVuZ3RoQWRqdXN0PSJzcGFjaW5nIiB0ZXh0TGVuZ3RoPSI1NiIgeD0iNTU3IiB5PSI1NjMuMjE4OCI+TG9nZ2VkSW48L3RleHQ+PC9nPjxlbGxpcHNlIGN4PSIyNDkiIGN5PSIyMTIuOTg0NCIgZmlsbD0iIzIyMjIyMiIgcng9IjEwIiByeT0iMTAiIHN0eWxlPSJzdHJva2U6IzIyMjIyMjtzdHJva2Utd2lkdGg6MTsiLz48ZyBpZD0iR3Vlc3QuQnJvd3NpbmciPjxyZWN0IGZpbGw9IiNGMUYxRjEiIGhlaWdodD0iNTAiIHJ4PSIxMi41IiByeT0iMTIuNSIgc3R5bGU9InN0cm9rZTojMTgxODE4O3N0cm9rZS13aWR0aDowLjU7IiB3aWR0aD0iNzYiIHg9IjIxMSIgeT0iMjgzLjk4NDQiLz48bGluZSBzdHlsZT0ic3Ryb2tlOiMxODE4MTg7c3Ryb2tlLXdpZHRoOjAuNTsiIHgxPSIyMTEiIHgyPSIyODciIHkxPSIzMDguOTY4OCIgeTI9IjMwOC45Njg4Ii8+PHRleHQgZmlsbD0iIzAwMDAwMCIgZm9udC1mYW1pbHk9InNhbnMtc2VyaWYiIGZvbnQtc2l6ZT0iMTQiIGxlbmd0aEFkanVzdD0ic3BhY2luZyIgdGV4dExlbmd0aD0iNTYiIHg9IjIyMSIgeT0iMzAyLjIxODgiPkJyb3dzaW5nPC90ZXh0PjwvZz48ZyBpZD0iR3Vlc3QuUmVnaXN0ZXIiPjxyZWN0IGZpbGw9IiNGMUYxRjEiIGhlaWdodD0iNTAiIHJ4PSIxMi41IiByeT0iMTIuNSIgc3R5bGU9InN0cm9rZTojMTgxODE4O3N0cm9rZS13aWR0aDowLjU7IiB3aWR0aD0iNzYiIHg9IjE1MyIgeT0iNDA4Ljk4NDQiLz48bGluZSBzdHlsZT0ic3Ryb2tlOiMxODE4MTg7c3Ryb2tlLXdpZHRoOjAuNTsiIHgxPSIxNTMiIHgyPSIyMjkiIHkxPSI0MzMuOTY4OCIgeTI9IjQzMy45Njg4Ii8+PHRleHQgZmlsbD0iIzAwMDAwMCIgZm9udC1mYW1pbHk9InNhbnMtc2VyaWYiIGZvbnQtc2l6ZT0iMTQiIGxlbmd0aEFkanVzdD0ic3BhY2luZyIgdGV4dExlbmd0aD0iNTYiIHg9IjE2MyIgeT0iNDI3LjIxODgiPlJlZ2lzdGVyPC90ZXh0PjwvZz48ZyBpZD0iR3Vlc3QuTG9naW4iPjxyZWN0IGZpbGw9IiNGMUYxRjEiIGhlaWdodD0iNTAiIHJ4PSIxMi41IiByeT0iMTIuNSIgc3R5bGU9InN0cm9rZTojMTgxODE4O3N0cm9rZS13aWR0aDowLjU7IiB3aWR0aD0iNTUiIHg9IjI3OS41IiB5PSI0MDguOTg0NCIvPjxsaW5lIHN0eWxlPSJzdHJva2U6IzE4MTgxODtzdHJva2Utd2lkdGg6MC41OyIgeDE9IjI3OS41IiB4Mj0iMzM0LjUiIHkxPSI0MzMuOTY4OCIgeTI9IjQzMy45Njg4Ii8+PHRleHQgZmlsbD0iIzAwMDAwMCIgZm9udC1mYW1pbHk9InNhbnMtc2VyaWYiIGZvbnQtc2l6ZT0iMTQiIGxlbmd0aEFkanVzdD0ic3BhY2luZyIgdGV4dExlbmd0aD0iMzUiIHg9IjI4OS41IiB5PSI0MjcuMjE4OCI+TG9naW48L3RleHQ+PC9nPjxwYXRoIGQ9Ik00NDEsNTg2Ljk4NDQgTDgzNC41LDU4Ni45ODQ0IEExMi41LDEyLjUgMCAwIDEgODQ3LDU5OS40ODQ0IEw4NDcsNjExLjk2ODggTDQyOC41LDYxMS45Njg4IEw0MjguNSw1OTkuNDg0NCBBMTIuNSwxMi41IDAgMCAxIDQ0MSw1ODYuOTg0NCIgZmlsbD0iI0YxRjFGMSIgc3R5bGU9InN0cm9rZTojRjFGMUYxO3N0cm9rZS13aWR0aDoxOyIvPjxyZWN0IGZpbGw9Im5vbmUiIGhlaWdodD0iNDI3Ljk4NDQiIHJ4PSIxMi41IiByeT0iMTIuNSIgc3R5bGU9InN0cm9rZTojMTgxODE4O3N0cm9rZS13aWR0aDowLjU7IiB3aWR0aD0iNDE4LjUiIHg9IjQyOC41IiB5PSI1ODYuOTg0NCIvPjxsaW5lIHN0eWxlPSJzdHJva2U6IzE4MTgxODtzdHJva2Utd2lkdGg6MC41OyIgeDE9IjQyOC41IiB4Mj0iODQ3IiB5MT0iNjExLjk2ODgiIHkyPSI2MTEuOTY4OCIvPjx0ZXh0IGZpbGw9IiMwMDAwMDAiIGZvbnQtZmFtaWx5PSJzYW5zLXNlcmlmIiBmb250LXNpemU9IjE0IiBsZW5ndGhBZGp1c3Q9InNwYWNpbmciIHRleHRMZW5ndGg9Ijc3IiB4PSI1OTkuMjUiIHk9IjYwNS4yMTg4Ij5Db250cmlidXRvcjwvdGV4dD48ZWxsaXBzZSBjeD0iNTU3LjUiIGN5PSI2MzIuOTY4OCIgZmlsbD0iIzIyMjIyMiIgcng9IjEwIiByeT0iMTAiIHN0eWxlPSJzdHJva2U6IzIyMjIyMjtzdHJva2Utd2lkdGg6MTsiLz48ZyBpZD0iTG9nZ2VkSW4uQ29udHJpYnV0b3IuU3VnZ2VzdGVkIj48cmVjdCBmaWxsPSIjRjFGMUYxIiBoZWlnaHQ9IjUwIiByeD0iMTIuNSIgcnk9IjEyLjUiIHN0eWxlPSJzdHJva2U6IzE4MTgxODtzdHJva2Utd2lkdGg6MC41OyIgd2lkdGg9IjgzIiB4PSI1MTYiIHk9IjY3OS45Njg4Ii8+PGxpbmUgc3R5bGU9InN0cm9rZTojMTgxODE4O3N0cm9rZS13aWR0aDowLjU7IiB4MT0iNTE2IiB4Mj0iNTk5IiB5MT0iNzA0Ljk1MzEiIHkyPSI3MDQuOTUzMSIvPjx0ZXh0IGZpbGw9IiMwMDAwMDAiIGZvbnQtZmFtaWx5PSJzYW5zLXNlcmlmIiBmb250LXNpemU9IjE0IiBsZW5ndGhBZGp1c3Q9InNwYWNpbmciIHRleHRMZW5ndGg9IjYzIiB4PSI1MjYiIHk9IjY5OC4yMDMxIj5TdWdnZXN0ZWQ8L3RleHQ+PC9nPjxnIGlkPSJMb2dnZWRJbi5Db250cmlidXRvci5XYWl0aW5nQXBwcm92YWwiPjxyZWN0IGZpbGw9IiNGMUYxRjEiIGhlaWdodD0iNTAiIHJ4PSIxMi41IiByeT0iMTIuNSIgc3R5bGU9InN0cm9rZTojMTgxODE4O3N0cm9rZS13aWR0aDowLjU7IiB3aWR0aD0iMTI1IiB4PSI0OTUiIHk9Ijc4MC45Njg4Ii8+PGxpbmUgc3R5bGU9InN0cm9rZTojMTgxODE4O3N0cm9rZS13aWR0aDowLjU7IiB4MT0iNDk1IiB4Mj0iNjIwIiB5MT0iODA1Ljk1MzEiIHkyPSI4MDUuOTUzMSIvPjx0ZXh0IGZpbGw9IiMwMDAwMDAiIGZvbnQtZmFtaWx5PSJzYW5zLXNlcmlmIiBmb250LXNpemU9IjE0IiBsZW5ndGhBZGp1c3Q9InNwYWNpbmciIHRleHRMZW5ndGg9IjEwNSIgeD0iNTA1IiB5PSI3OTkuMjAzMSI+V2FpdGluZ0FwcHJvdmFsPC90ZXh0PjwvZz48ZyBpZD0iTG9nZ2VkSW4uQ29udHJpYnV0b3IuQXBwcm92ZWQiPjxyZWN0IGZpbGw9IiNGMUYxRjEiIGhlaWdodD0iNTAiIHJ4PSIxMi41IiByeT0iMTIuNSIgc3R5bGU9InN0cm9rZTojMTgxODE4O3N0cm9rZS13aWR0aDowLjU7IiB3aWR0aD0iNzYiIHg9IjQ0MC41IiB5PSI4ODEuOTY4OCIvPjxsaW5lIHN0eWxlPSJzdHJva2U6IzE4MTgxODtzdHJva2Utd2lkdGg6MC41OyIgeDE9IjQ0MC41IiB4Mj0iNTE2LjUiIHkxPSI5MDYuOTUzMSIgeTI9IjkwNi45NTMxIi8+PHRleHQgZmlsbD0iIzAwMDAwMCIgZm9udC1mYW1pbHk9InNhbnMtc2VyaWYiIGZvbnQtc2l6ZT0iMTQiIGxlbmd0aEFkanVzdD0ic3BhY2luZyIgdGV4dExlbmd0aD0iNTYiIHg9IjQ1MC41IiB5PSI5MDAuMjAzMSI+QXBwcm92ZWQ8L3RleHQ+PC9nPjxnIGlkPSJMb2dnZWRJbi5Db250cmlidXRvci5SZWplY3RlZCI+PHJlY3QgZmlsbD0iI0YxRjFGMSIgaGVpZ2h0PSI1MCIgcng9IjEyLjUiIHJ5PSIxMi41IiBzdHlsZT0ic3Ryb2tlOiMxODE4MTg7c3Ryb2tlLXdpZHRoOjAuNTsiIHdpZHRoPSI3NiIgeD0iNjI5LjUiIHk9Ijg4MS45Njg4Ii8+PGxpbmUgc3R5bGU9InN0cm9rZTojMTgxODE4O3N0cm9rZS13aWR0aDowLjU7IiB4MT0iNjI5LjUiIHgyPSI3MDUuNSIgeTE9IjkwNi45NTMxIiB5Mj0iOTA2Ljk1MzEiLz48dGV4dCBmaWxsPSIjMDAwMDAwIiBmb250LWZhbWlseT0ic2Fucy1zZXJpZiIgZm9udC1zaXplPSIxNCIgbGVuZ3RoQWRqdXN0PSJzcGFjaW5nIiB0ZXh0TGVuZ3RoPSI1NiIgeD0iNjM5LjUiIHk9IjkwMC4yMDMxIj5SZWplY3RlZDwvdGV4dD48L2c+PGVsbGlwc2UgY3g9IjU3My41IiBjeT0iOTkzLjk2ODgiIGZpbGw9Im5vbmUiIHJ4PSIxMSIgcnk9IjExIiBzdHlsZT0ic3Ryb2tlOiMyMjIyMjI7c3Ryb2tlLXdpZHRoOjE7Ii8+PGVsbGlwc2UgY3g9IjU3My41IiBjeT0iOTkzLjk2ODgiIGZpbGw9IiMyMjIyMjIiIHJ4PSI2IiByeT0iNiIgc3R5bGU9InN0cm9rZTojMjIyMjIyO3N0cm9rZS13aWR0aDoxOyIvPjwhLS1saW5rICpzdGFydCpDb250cmlidXRvciB0byBTdWdnZXN0ZWQtLT48ZyBjbGFzcz0ibGluayIgZGF0YS1lbnRpdHktMT0iKnN0YXJ0KkNvbnRyaWJ1dG9yIiBkYXRhLWVudGl0eS0yPSJTdWdnZXN0ZWQiIGRhdGEtc291cmNlLWxpbmU9IjIzIiBkYXRhLXVpZD0ibG5rMjQiIGlkPSJsaW5rXypzdGFydCpDb250cmlidXRvcl9TdWdnZXN0ZWQiPjxwYXRoIGQ9Ik01NTcuNSw2NDMuMTE4OCBDNTU3LjUsNjUyLjM4ODggNTU3LjUsNjYxLjEwODggNTU3LjUsNjczLjc0ODgiIGZpbGw9Im5vbmUiIGlkPSIqc3RhcnQqQ29udHJpYnV0b3ItdG8tU3VnZ2VzdGVkIiBzdHlsZT0ic3Ryb2tlOiMxODE4MTg7c3Ryb2tlLXdpZHRoOjE7Ii8+PHBvbHlnb24gZmlsbD0iIzE4MTgxOCIgcG9pbnRzPSI1NTcuNSw2NzkuNzQ4OCw1NjEuNSw2NzAuNzQ4OCw1NTcuNSw2NzQuNzQ4OCw1NTMuNSw2NzAuNzQ4OCw1NTcuNSw2NzkuNzQ4OCIgc3R5bGU9InN0cm9rZTojMTgxODE4O3N0cm9rZS13aWR0aDoxOyIvPjwvZz48IS0tbGluayBTdWdnZXN0ZWQgdG8gV2FpdGluZ0FwcHJvdmFsLS0+PGcgY2xhc3M9ImxpbmsiIGRhdGEtZW50aXR5LTE9IlN1Z2dlc3RlZCIgZGF0YS1lbnRpdHktMj0iV2FpdGluZ0FwcHJvdmFsIiBkYXRhLXNvdXJjZS1saW5lPSIyNCIgZGF0YS11aWQ9ImxuazI2IiBpZD0ibGlua19TdWdnZXN0ZWRfV2FpdGluZ0FwcHJvdmFsIj48cGF0aCBkPSJNNTU3LjUsNzMwLjE4ODggQzU1Ny41LDc0NS41Mjg4IDU1Ny41LDc1OS4yOTg4IDU1Ny41LDc3NC42NTg4IiBmaWxsPSJub25lIiBpZD0iU3VnZ2VzdGVkLXRvLVdhaXRpbmdBcHByb3ZhbCIgc3R5bGU9InN0cm9rZTojMTgxODE4O3N0cm9rZS13aWR0aDoxOyIvPjxwb2x5Z29uIGZpbGw9IiMxODE4MTgiIHBvaW50cz0iNTU3LjUsNzgwLjY1ODgsNTYxLjUsNzcxLjY1ODgsNTU3LjUsNzc1LjY1ODgsNTUzLjUsNzcxLjY1ODgsNTU3LjUsNzgwLjY1ODgiIHN0eWxlPSJzdHJva2U6IzE4MTgxODtzdHJva2Utd2lkdGg6MTsiLz48dGV4dCBmaWxsPSIjMDAwMDAwIiBmb250LWZhbWlseT0ic2Fucy1zZXJpZiIgZm9udC1zaXplPSIxMyIgbGVuZ3RoQWRqdXN0PSJzcGFjaW5nIiB0ZXh0TGVuZ3RoPSIxMzAiIHg9IjU1OC41IiB5PSI3NjEuMjU3OCI+R2FtZSBpbiBQZW5kaW5nR2FtZXM8L3RleHQ+PC9nPjwhLS1saW5rIFdhaXRpbmdBcHByb3ZhbCB0byBBcHByb3ZlZC0tPjxnIGNsYXNzPSJsaW5rIiBkYXRhLWVudGl0eS0xPSJXYWl0aW5nQXBwcm92YWwiIGRhdGEtZW50aXR5LTI9IkFwcHJvdmVkIiBkYXRhLXNvdXJjZS1saW5lPSIyNSIgZGF0YS11aWQ9ImxuazI4IiBpZD0ibGlua19XYWl0aW5nQXBwcm92YWxfQXBwcm92ZWQiPjxwYXRoIGQ9Ik01MjcuMjEsODMxLjM0ODggQzUyMS4zMSw4MzYuODE4OCA1MTUuNDMsODQyLjgyODggNTEwLjUsODQ4Ljk2ODggQzUwMi40Nyw4NTguOTY4OCA0OTguMDczMyw4NjUuOTI4MiA0OTIuNTUzMyw4NzYuNTE4MiIgZmlsbD0ibm9uZSIgaWQ9IldhaXRpbmdBcHByb3ZhbC10by1BcHByb3ZlZCIgc3R5bGU9InN0cm9rZTojMTgxODE4O3N0cm9rZS13aWR0aDoxOyIvPjxwb2x5Z29uIGZpbGw9IiMxODE4MTgiIHBvaW50cz0iNDg5Ljc4LDg4MS44Mzg4LDQ5Ny40ODcxLDg3NS43MDY4LDQ5Mi4wOTExLDg3Ny40MDQ5LDQ5MC4zOTI5LDg3Mi4wMDksNDg5Ljc4LDg4MS44Mzg4IiBzdHlsZT0ic3Ryb2tlOiMxODE4MTg7c3Ryb2tlLXdpZHRoOjE7Ii8+PHRleHQgZmlsbD0iIzAwMDAwMCIgZm9udC1mYW1pbHk9InNhbnMtc2VyaWYiIGZvbnQtc2l6ZT0iMTMiIGxlbmd0aEFkanVzdD0ic3BhY2luZyIgdGV4dExlbmd0aD0iOTEiIHg9IjUxMS41IiB5PSI4NjIuMjU3OCI+QWRtaW4gYXBwcm92ZXM8L3RleHQ+PC9nPjwhLS1saW5rIFdhaXRpbmdBcHByb3ZhbCB0byBSZWplY3RlZC0tPjxnIGNsYXNzPSJsaW5rIiBkYXRhLWVudGl0eS0xPSJXYWl0aW5nQXBwcm92YWwiIGRhdGEtZW50aXR5LTI9IlJlamVjdGVkIiBkYXRhLXNvdXJjZS1saW5lPSIyNiIgZGF0YS11aWQ9ImxuazMwIiBpZD0ibGlua19XYWl0aW5nQXBwcm92YWxfUmVqZWN0ZWQiPjxwYXRoIGQ9Ik01ODQuNDEsODMxLjE4ODggQzYwMS40NSw4NDYuNTI4OCA2MTguOTU5OCw4NjIuMjg1NCA2MzYuMDI5OCw4NzcuNjQ1NCIgZmlsbD0ibm9uZSIgaWQ9IldhaXRpbmdBcHByb3ZhbC10by1SZWplY3RlZCIgc3R5bGU9InN0cm9rZTojMTgxODE4O3N0cm9rZS13aWR0aDoxOyIvPjxwb2x5Z29uIGZpbGw9IiMxODE4MTgiIHBvaW50cz0iNjQwLjQ5LDg4MS42NTg4LDYzNi40NzUzLDg3Mi42NjUzLDYzNi43NzMyLDg3OC4zMTQzLDYzMS4xMjQyLDg3OC42MTIyLDY0MC40OSw4ODEuNjU4OCIgc3R5bGU9InN0cm9rZTojMTgxODE4O3N0cm9rZS13aWR0aDoxOyIvPjx0ZXh0IGZpbGw9IiMwMDAwMDAiIGZvbnQtZmFtaWx5PSJzYW5zLXNlcmlmIiBmb250LXNpemU9IjEzIiBsZW5ndGhBZGp1c3Q9InNwYWNpbmciIHRleHRMZW5ndGg9Ijg0LjUiIHg9IjYxOS41IiB5PSI4NjIuMjU3OCI+QWRtaW4gcmVqZWN0czwvdGV4dD48L2c+PCEtLWxpbmsgQXBwcm92ZWQgdG8gKmVuZCpDb250cmlidXRvci0tPjxnIGNsYXNzPSJsaW5rIiBkYXRhLWVudGl0eS0xPSJBcHByb3ZlZCIgZGF0YS1lbnRpdHktMj0iKmVuZCpDb250cmlidXRvciIgZGF0YS1zb3VyY2UtbGluZT0iMjciIGRhdGEtdWlkPSJsbmszMiIgaWQ9ImxpbmtfQXBwcm92ZWRfKmVuZCpDb250cmlidXRvciI+PHBhdGggZD0iTTQ2Ny42Miw5MzIuMTk4OCBDNDY0LjQ0LDk0My4xODg4IDQ2My40Niw5NTUuNzU4OCA0NzAuNSw5NjQuOTY4OCBDNDgxLjc1LDk3OS42ODg4IDUzMi4zNDAyLDk4Ny43MjQzIDU1Ni41NDAyLDk5MC44NzQzIiBmaWxsPSJub25lIiBpZD0iQXBwcm92ZWQtdG8tKmVuZCpDb250cmlidXRvciIgc3R5bGU9InN0cm9rZTojMTgxODE4O3N0cm9rZS13aWR0aDoxOyIvPjxwb2x5Z29uIGZpbGw9IiMxODE4MTgiIHBvaW50cz0iNTYyLjQ5LDk5MS42NDg4LDU1NC4wODE2LDk4Ni41MjA1LDU1Ny41MzE4LDk5MS4wMDM0LDU1My4wNDksOTk0LjQ1MzYsNTYyLjQ5LDk5MS42NDg4IiBzdHlsZT0ic3Ryb2tlOiMxODE4MTg7c3Ryb2tlLXdpZHRoOjE7Ii8+PHRleHQgZmlsbD0iIzAwMDAwMCIgZm9udC1mYW1pbHk9InNhbnMtc2VyaWYiIGZvbnQtc2l6ZT0iMTMiIGxlbmd0aEFkanVzdD0ic3BhY2luZyIgdGV4dExlbmd0aD0iMTc1LjUiIHg9IjQ3MS41IiB5PSI5NjMuMjU3OCI+Q29udHJpYnV0aW9uIGxpZmVjeWNsZSBlbmRzPC90ZXh0PjwvZz48IS0tbGluayBSZWplY3RlZCB0byAqZW5kKkNvbnRyaWJ1dG9yLS0+PGcgY2xhc3M9ImxpbmsiIGRhdGEtZW50aXR5LTE9IlJlamVjdGVkIiBkYXRhLWVudGl0eS0yPSIqZW5kKkNvbnRyaWJ1dG9yIiBkYXRhLXNvdXJjZS1saW5lPSIyOCIgZGF0YS11aWQ9ImxuazMzIiBpZD0ibGlua19SZWplY3RlZF8qZW5kKkNvbnRyaWJ1dG9yIj48cGF0aCBkPSJNNjY1Ljc3LDkzMi4wNjg4IEM2NjMuODEsOTQzLjI4ODcgNjU5Ljc3LDk1Ni4wODg4IDY1MS41LDk2NC45Njg4IEM2MzMuNTUsOTg0LjIzODggNjA3LjM3MzUsOTg5LjYwODEgNTkwLjQ5MzUsOTkxLjQ3ODEiIGZpbGw9Im5vbmUiIGlkPSJSZWplY3RlZC10by0qZW5kKkNvbnRyaWJ1dG9yIiBzdHlsZT0ic3Ryb2tlOiMxODE4MTg7c3Ryb2tlLXdpZHRoOjE7Ii8+PHBvbHlnb24gZmlsbD0iIzE4MTgxOCIgcG9pbnRzPSI1ODQuNTMsOTkyLjEzODgsNTkzLjkxNTcsOTk1LjEyMzUsNTg5LjQ5OTYsOTkxLjU4ODIsNTkzLjAzNDgsOTg3LjE3MjEsNTg0LjUzLDk5Mi4xMzg4IiBzdHlsZT0ic3Ryb2tlOiMxODE4MTg7c3Ryb2tlLXdpZHRoOjE7Ii8+PHRleHQgZmlsbD0iIzAwMDAwMCIgZm9udC1mYW1pbHk9InNhbnMtc2VyaWYiIGZvbnQtc2l6ZT0iMTMiIGxlbmd0aEFkanVzdD0ic3BhY2luZyIgdGV4dExlbmd0aD0iMTc1LjUiIHg9IjY2MS41IiB5PSI5NjMuMjU3OCI+Q29udHJpYnV0aW9uIGxpZmVjeWNsZSBlbmRzPC90ZXh0PjwvZz48cGF0aCBkPSJNMzY0LDEyMTQuOTg0NCBMNTU0LDEyMTQuOTg0NCBBMTIuNSwxMi41IDAgMCAxIDU2Ni41LDEyMjcuNDg0NCBMNTY2LjUsMTIzOS45Njg4IEwzNTEuNSwxMjM5Ljk2ODggTDM1MS41LDEyMjcuNDg0NCBBMTIuNSwxMi41IDAgMCAxIDM2NCwxMjE0Ljk4NDQiIGZpbGw9IiNGMUYxRjEiIHN0eWxlPSJzdHJva2U6I0YxRjFGMTtzdHJva2Utd2lkdGg6MTsiLz48cmVjdCBmaWxsPSJub25lIiBoZWlnaHQ9IjMyNi45ODQ0IiByeD0iMTIuNSIgcnk9IjEyLjUiIHN0eWxlPSJzdHJva2U6IzE4MTgxODtzdHJva2Utd2lkdGg6MC41OyIgd2lkdGg9IjIxNSIgeD0iMzUxLjUiIHk9IjEyMTQuOTg0NCIvPjxsaW5lIHN0eWxlPSJzdHJva2U6IzE4MTgxODtzdHJva2Utd2lkdGg6MC41OyIgeDE9IjM1MS41IiB4Mj0iNTY2LjUiIHkxPSIxMjM5Ljk2ODgiIHkyPSIxMjM5Ljk2ODgiLz48dGV4dCBmaWxsPSIjMDAwMDAwIiBmb250LWZhbWlseT0ic2Fucy1zZXJpZiIgZm9udC1zaXplPSIxNCIgbGVuZ3RoQWRqdXN0PSJzcGFjaW5nIiB0ZXh0TGVuZ3RoPSI1NiIgeD0iNDMxIiB5PSIxMjMzLjIxODgiPlJldmlld2VyPC90ZXh0PjxlbGxpcHNlIGN4PSI0MTkiIGN5PSIxMjYwLjk2ODgiIGZpbGw9IiMyMjIyMjIiIHJ4PSIxMCIgcnk9IjEwIiBzdHlsZT0ic3Ryb2tlOiMyMjIyMjI7c3Ryb2tlLXdpZHRoOjE7Ii8+PGcgaWQ9IkxvZ2dlZEluLlJldmlld2VyLldyaXRpbmdSZXZpZXciPjxyZWN0IGZpbGw9IiNGMUYxRjEiIGhlaWdodD0iNTAiIHJ4PSIxMi41IiByeT0iMTIuNSIgc3R5bGU9InN0cm9rZTojMTgxODE4O3N0cm9rZS13aWR0aDowLjU7IiB3aWR0aD0iMTExIiB4PSIzNjMuNSIgeT0iMTMwNy45Njg4Ii8+PGxpbmUgc3R5bGU9InN0cm9rZTojMTgxODE4O3N0cm9rZS13aWR0aDowLjU7IiB4MT0iMzYzLjUiIHgyPSI0NzQuNSIgeTE9IjEzMzIuOTUzMSIgeTI9IjEzMzIuOTUzMSIvPjx0ZXh0IGZpbGw9IiMwMDAwMDAiIGZvbnQtZmFtaWx5PSJzYW5zLXNlcmlmIiBmb250LXNpemU9IjE0IiBsZW5ndGhBZGp1c3Q9InNwYWNpbmciIHRleHRMZW5ndGg9IjkxIiB4PSIzNzMuNSIgeT0iMTMyNi4yMDMxIj5Xcml0aW5nUmV2aWV3PC90ZXh0PjwvZz48ZyBpZD0iTG9nZ2VkSW4uUmV2aWV3ZXIuU3VibWl0dGVkIj48cmVjdCBmaWxsPSIjRjFGMUYxIiBoZWlnaHQ9IjUwIiByeD0iMTIuNSIgcnk9IjEyLjUiIHN0eWxlPSJzdHJva2U6IzE4MTgxODtzdHJva2Utd2lkdGg6MC41OyIgd2lkdGg9IjgzIiB4PSIzNzcuNSIgeT0iMTQwOC45Njg4Ii8+PGxpbmUgc3R5bGU9InN0cm9rZTojMTgxODE4O3N0cm9rZS13aWR0aDowLjU7IiB4MT0iMzc3LjUiIHgyPSI0NjAuNSIgeTE9IjE0MzMuOTUzMSIgeTI9IjE0MzMuOTUzMSIvPjx0ZXh0IGZpbGw9IiMwMDAwMDAiIGZvbnQtZmFtaWx5PSJzYW5zLXNlcmlmIiBmb250LXNpemU9IjE0IiBsZW5ndGhBZGp1c3Q9InNwYWNpbmciIHRleHRMZW5ndGg9IjYzIiB4PSIzODcuNSIgeT0iMTQyNy4yMDMxIj5TdWJtaXR0ZWQ8L3RleHQ+PC9nPjxlbGxpcHNlIGN4PSI0MTkiIGN5PSIxNTIwLjk2ODgiIGZpbGw9Im5vbmUiIHJ4PSIxMSIgcnk9IjExIiBzdHlsZT0ic3Ryb2tlOiMyMjIyMjI7c3Ryb2tlLXdpZHRoOjE7Ii8+PGVsbGlwc2UgY3g9IjQxOSIgY3k9IjE1MjAuOTY4OCIgZmlsbD0iIzIyMjIyMiIgcng9IjYiIHJ5PSI2IiBzdHlsZT0ic3Ryb2tlOiMyMjIyMjI7c3Ryb2tlLXdpZHRoOjE7Ii8+PCEtLWxpbmsgKnN0YXJ0KlJldmlld2VyIHRvIFdyaXRpbmdSZXZpZXctLT48ZyBjbGFzcz0ibGluayIgZGF0YS1lbnRpdHktMT0iKnN0YXJ0KlJldmlld2VyIiBkYXRhLWVudGl0eS0yPSJXcml0aW5nUmV2aWV3IiBkYXRhLXNvdXJjZS1saW5lPSIzMiIgZGF0YS11aWQ9ImxuazM2IiBpZD0ibGlua18qc3RhcnQqUmV2aWV3ZXJfV3JpdGluZ1JldmlldyI+PHBhdGggZD0iTTQxOSwxMjcxLjExODggQzQxOSwxMjgwLjM4ODggNDE5LDEyODkuMTA4NyA0MTksMTMwMS43NDg4IiBmaWxsPSJub25lIiBpZD0iKnN0YXJ0KlJldmlld2VyLXRvLVdyaXRpbmdSZXZpZXciIHN0eWxlPSJzdHJva2U6IzE4MTgxODtzdHJva2Utd2lkdGg6MTsiLz48cG9seWdvbiBmaWxsPSIjMTgxODE4IiBwb2ludHM9IjQxOSwxMzA3Ljc0ODgsNDIzLDEyOTguNzQ4OCw0MTksMTMwMi43NDg4LDQxNSwxMjk4Ljc0ODgsNDE5LDEzMDcuNzQ4OCIgc3R5bGU9InN0cm9rZTojMTgxODE4O3N0cm9rZS13aWR0aDoxOyIvPjwvZz48IS0tbGluayBXcml0aW5nUmV2aWV3IHRvIFN1Ym1pdHRlZC0tPjxnIGNsYXNzPSJsaW5rIiBkYXRhLWVudGl0eS0xPSJXcml0aW5nUmV2aWV3IiBkYXRhLWVudGl0eS0yPSJTdWJtaXR0ZWQiIGRhdGEtc291cmNlLWxpbmU9IjMzIiBkYXRhLXVpZD0ibG5rMzgiIGlkPSJsaW5rX1dyaXRpbmdSZXZpZXdfU3VibWl0dGVkIj48cGF0aCBkPSJNNDE5LDEzNTguMTg4OCBDNDE5LDEzNzMuNTI4OCA0MTksMTM4Ny4yOTg4IDQxOSwxNDAyLjY1ODgiIGZpbGw9Im5vbmUiIGlkPSJXcml0aW5nUmV2aWV3LXRvLVN1Ym1pdHRlZCIgc3R5bGU9InN0cm9rZTojMTgxODE4O3N0cm9rZS13aWR0aDoxOyIvPjxwb2x5Z29uIGZpbGw9IiMxODE4MTgiIHBvaW50cz0iNDE5LDE0MDguNjU4OCw0MjMsMTM5OS42NTg4LDQxOSwxNDAzLjY1ODgsNDE1LDEzOTkuNjU4OCw0MTksMTQwOC42NTg4IiBzdHlsZT0ic3Ryb2tlOiMxODE4MTg7c3Ryb2tlLXdpZHRoOjE7Ii8+PHRleHQgZmlsbD0iIzAwMDAwMCIgZm9udC1mYW1pbHk9InNhbnMtc2VyaWYiIGZvbnQtc2l6ZT0iMTMiIGxlbmd0aEFkanVzdD0ic3BhY2luZyIgdGV4dExlbmd0aD0iNzgiIHg9IjQyMCIgeT0iMTM4OS4yNTc4Ij5SZXZpZXcgc2F2ZWQ8L3RleHQ+PC9nPjwhLS1saW5rIFN1Ym1pdHRlZCB0byAqZW5kKlJldmlld2VyLS0+PGcgY2xhc3M9ImxpbmsiIGRhdGEtZW50aXR5LTE9IlN1Ym1pdHRlZCIgZGF0YS1lbnRpdHktMj0iKmVuZCpSZXZpZXdlciIgZGF0YS1zb3VyY2UtbGluZT0iMzQiIGRhdGEtdWlkPSJsbms0MCIgaWQ9ImxpbmtfU3VibWl0dGVkXyplbmQqUmV2aWV3ZXIiPjxwYXRoIGQ9Ik00MTksMTQ1OS4wOTg4IEM0MTksMTQ3NS43ODg4IDQxOSwxNDkxLjE0ODggNDE5LDE1MDMuNjI4OCIgZmlsbD0ibm9uZSIgaWQ9IlN1Ym1pdHRlZC10by0qZW5kKlJldmlld2VyIiBzdHlsZT0ic3Ryb2tlOiMxODE4MTg7c3Ryb2tlLXdpZHRoOjE7Ii8+PHBvbHlnb24gZmlsbD0iIzE4MTgxOCIgcG9pbnRzPSI0MTksMTUwOS42Mjg4LDQyMywxNTAwLjYyODgsNDE5LDE1MDQuNjI4OCw0MTUsMTUwMC42Mjg4LDQxOSwxNTA5LjYyODgiIHN0eWxlPSJzdHJva2U6IzE4MTgxODtzdHJva2Utd2lkdGg6MTsiLz48dGV4dCBmaWxsPSIjMDAwMDAwIiBmb250LWZhbWlseT0ic2Fucy1zZXJpZiIgZm9udC1zaXplPSIxMyIgbGVuZ3RoQWRqdXN0PSJzcGFjaW5nIiB0ZXh0TGVuZ3RoPSIxMzYuNSIgeD0iNDIwIiB5PSIxNDkwLjI1NzgiPlJldmlldyBsaWZlY3ljbGUgZW5kczwvdGV4dD48L2c+PGVsbGlwc2UgY3g9IjM4NCIgY3k9IjgwMC45ODQ0IiBmaWxsPSIjMjIyMjIyIiByeD0iMTAiIHJ5PSIxMCIgc3R5bGU9InN0cm9rZTojMjIyMjIyO3N0cm9rZS13aWR0aDoxOyIvPjxnIGlkPSJMb2dnZWRJbi5JZGxlIj48cmVjdCBmaWxsPSIjRjFGMUYxIiBoZWlnaHQ9IjUwIiByeD0iMTIuNSIgcnk9IjEyLjUiIHN0eWxlPSJzdHJva2U6IzE4MTgxODtzdHJva2Utd2lkdGg6MC41OyIgd2lkdGg9IjUwIiB4PSI0NjciIHk9IjEwODkuOTg0NCIvPjxsaW5lIHN0eWxlPSJzdHJva2U6IzE4MTgxODtzdHJva2Utd2lkdGg6MC41OyIgeDE9IjQ2NyIgeDI9IjUxNyIgeTE9IjExMTQuOTY4OCIgeTI9IjExMTQuOTY4OCIvPjx0ZXh0IGZpbGw9IiMwMDAwMDAiIGZvbnQtZmFtaWx5PSJzYW5zLXNlcmlmIiBmb250LXNpemU9IjE0IiBsZW5ndGhBZGp1c3Q9InNwYWNpbmciIHRleHRMZW5ndGg9IjI4IiB4PSI0NzgiIHk9IjExMDguMjE4OCI+SWRsZTwvdGV4dD48L2c+PGcgaWQ9IkxvZ2dlZEluLlZpZXdTdWdnZXN0aW9ucyI+PHJlY3QgZmlsbD0iI0YxRjFGMSIgaGVpZ2h0PSI1MCIgcng9IjEyLjUiIHJ5PSIxMi41IiBzdHlsZT0ic3Ryb2tlOiMxODE4MTg7c3Ryb2tlLXdpZHRoOjAuNTsiIHdpZHRoPSIxMjUiIHg9IjYyMC41IiB5PSIxMzUzLjQ4NDQiLz48bGluZSBzdHlsZT0ic3Ryb2tlOiMxODE4MTg7c3Ryb2tlLXdpZHRoOjAuNTsiIHgxPSI2MjAuNSIgeDI9Ijc0NS41IiB5MT0iMTM3OC40Njg4IiB5Mj0iMTM3OC40Njg4Ii8+PHRleHQgZmlsbD0iIzAwMDAwMCIgZm9udC1mYW1pbHk9InNhbnMtc2VyaWYiIGZvbnQtc2l6ZT0iMTQiIGxlbmd0aEFkanVzdD0ic3BhY2luZyIgdGV4dExlbmd0aD0iMTA1IiB4PSI2MzAuNSIgeT0iMTM3MS43MTg4Ij5WaWV3U3VnZ2VzdGlvbnM8L3RleHQ+PC9nPjxwYXRoIGQ9Ik05MDcuNSwxMjUxLjQ4NDQgTDEzMDQuMTQsMTI1MS40ODQ0IEExMi41LDEyLjUgMCAwIDEgMTMxNi42NCwxMjYzLjk4NDQgTDEzMTYuNjQsMTI3Ni40Njg4IEw4OTUsMTI3Ni40Njg4IEw4OTUsMTI2My45ODQ0IEExMi41LDEyLjUgMCAwIDEgOTA3LjUsMTI1MS40ODQ0IiBmaWxsPSIjRjFGMUYxIiBzdHlsZT0ic3Ryb2tlOiNGMUYxRjE7c3Ryb2tlLXdpZHRoOjE7Ii8+PHJlY3QgZmlsbD0ibm9uZSIgaGVpZ2h0PSIyNTMuOTg0NCIgcng9IjEyLjUiIHJ5PSIxMi41IiBzdHlsZT0ic3Ryb2tlOiMxODE4MTg7c3Ryb2tlLXdpZHRoOjAuNTsiIHdpZHRoPSI0MjEuNjQiIHg9Ijg5NSIgeT0iMTI1MS40ODQ0Ii8+PGxpbmUgc3R5bGU9InN0cm9rZTojMTgxODE4O3N0cm9rZS13aWR0aDowLjU7IiB4MT0iODk1IiB4Mj0iMTMxNi42NCIgeTE9IjEyNzYuNDY4OCIgeTI9IjEyNzYuNDY4OCIvPjx0ZXh0IGZpbGw9IiMwMDAwMDAiIGZvbnQtZmFtaWx5PSJzYW5zLXNlcmlmIiBmb250LXNpemU9IjE0IiBsZW5ndGhBZGp1c3Q9InNwYWNpbmciIHRleHRMZW5ndGg9IjM1IiB4PSIxMDg4LjMyIiB5PSIxMjY5LjcxODgiPkFkbWluPC90ZXh0PjxlbGxpcHNlIGN4PSIxMTA3LjUiIGN5PSIxMjk3LjQ2ODgiIGZpbGw9IiMyMjIyMjIiIHJ4PSIxMCIgcnk9IjEwIiBzdHlsZT0ic3Ryb2tlOiMyMjIyMjI7c3Ryb2tlLXdpZHRoOjE7Ii8+PGcgaWQ9IkFkbWluLk1hbmFnaW5nIj48cmVjdCBmaWxsPSIjRjFGMUYxIiBoZWlnaHQ9IjUwIiByeD0iMTIuNSIgcnk9IjEyLjUiIHN0eWxlPSJzdHJva2U6IzE4MTgxODtzdHJva2Utd2lkdGg6MC41OyIgd2lkdGg9Ijc2IiB4PSIxMDY5LjUiIHk9IjEzNDQuNDY4OCIvPjxsaW5lIHN0eWxlPSJzdHJva2U6IzE4MTgxODtzdHJva2Utd2lkdGg6MC41OyIgeDE9IjEwNjkuNSIgeDI9IjExNDUuNSIgeTE9IjEzNjkuNDUzMSIgeTI9IjEzNjkuNDUzMSIvPjx0ZXh0IGZpbGw9IiMwMDAwMDAiIGZvbnQtZmFtaWx5PSJzYW5zLXNlcmlmIiBmb250LXNpemU9IjE0IiBsZW5ndGhBZGp1c3Q9InNwYWNpbmciIHRleHRMZW5ndGg9IjU2IiB4PSIxMDc5LjUiIHk9IjEzNjIuNzAzMSI+TWFuYWdpbmc8L3RleHQ+PC9nPjxnIGlkPSJBZG1pbi5BcHByb3ZpbmciPjxyZWN0IGZpbGw9IiNGMUYxRjEiIGhlaWdodD0iNTAiIHJ4PSIxMi41IiByeT0iMTIuNSIgc3R5bGU9InN0cm9rZTojMTgxODE4O3N0cm9rZS13aWR0aDowLjU7IiB3aWR0aD0iODMiIHg9IjkwNyIgeT0iMTQ0NS40Njg4Ii8+PGxpbmUgc3R5bGU9InN0cm9rZTojMTgxODE4O3N0cm9rZS13aWR0aDowLjU7IiB4MT0iOTA3IiB4Mj0iOTkwIiB5MT0iMTQ3MC40NTMxIiB5Mj0iMTQ3MC40NTMxIi8+PHRleHQgZmlsbD0iIzAwMDAwMCIgZm9udC1mYW1pbHk9InNhbnMtc2VyaWYiIGZvbnQtc2l6ZT0iMTQiIGxlbmd0aEFkanVzdD0ic3BhY2luZyIgdGV4dExlbmd0aD0iNjMiIHg9IjkxNyIgeT0iMTQ2My43MDMxIj5BcHByb3Zpbmc8L3RleHQ+PC9nPjxnIGlkPSJBZG1pbi5SZWplY3RpbmciPjxyZWN0IGZpbGw9IiNGMUYxRjEiIGhlaWdodD0iNTAiIHJ4PSIxMi41IiByeT0iMTIuNSIgc3R5bGU9InN0cm9rZTojMTgxODE4O3N0cm9rZS13aWR0aDowLjU7IiB3aWR0aD0iODMiIHg9IjEwMzUiIHk9IjE0NDUuNDY4OCIvPjxsaW5lIHN0eWxlPSJzdHJva2U6IzE4MTgxODtzdHJva2Utd2lkdGg6MC41OyIgeDE9IjEwMzUiIHgyPSIxMTE4IiB5MT0iMTQ3MC40NTMxIiB5Mj0iMTQ3MC40NTMxIi8+PHRleHQgZmlsbD0iIzAwMDAwMCIgZm9udC1mYW1pbHk9InNhbnMtc2VyaWYiIGZvbnQtc2l6ZT0iMTQiIGxlbmd0aEFkanVzdD0ic3BhY2luZyIgdGV4dExlbmd0aD0iNjMiIHg9IjEwNDUiIHk9IjE0NjMuNzAzMSI+UmVqZWN0aW5nPC90ZXh0PjwvZz48ZyBpZD0iQWRtaW4uRWRpdGluZyI+PHJlY3QgZmlsbD0iI0YxRjFGMSIgaGVpZ2h0PSI1MCIgcng9IjEyLjUiIHJ5PSIxMi41IiBzdHlsZT0ic3Ryb2tlOiMxODE4MTg7c3Ryb2tlLXdpZHRoOjAuNTsiIHdpZHRoPSI2OSIgeD0iMTIxMyIgeT0iMTQ0NS40Njg4Ii8+PGxpbmUgc3R5bGU9InN0cm9rZTojMTgxODE4O3N0cm9rZS13aWR0aDowLjU7IiB4MT0iMTIxMyIgeDI9IjEyODIiIHkxPSIxNDcwLjQ1MzEiIHkyPSIxNDcwLjQ1MzEiLz48dGV4dCBmaWxsPSIjMDAwMDAwIiBmb250LWZhbWlseT0ic2Fucy1zZXJpZiIgZm9udC1zaXplPSIxNCIgbGVuZ3RoQWRqdXN0PSJzcGFjaW5nIiB0ZXh0TGVuZ3RoPSI0OSIgeD0iMTIyMyIgeT0iMTQ2My43MDMxIj5FZGl0aW5nPC90ZXh0PjwvZz48IS0tbGluayAqc3RhcnQqQWRtaW4gdG8gTWFuYWdpbmctLT48ZyBjbGFzcz0ibGluayIgZGF0YS1lbnRpdHktMT0iKnN0YXJ0KkFkbWluIiBkYXRhLWVudGl0eS0yPSJNYW5hZ2luZyIgZGF0YS1zb3VyY2UtbGluZT0iNDEiIGRhdGEtdWlkPSJsbms0NCIgaWQ9ImxpbmtfKnN0YXJ0KkFkbWluX01hbmFnaW5nIj48cGF0aCBkPSJNMTEwNy41LDEzMDcuNjE4OCBDMTEwNy41LDEzMTYuODg4OCAxMTA3LjUsMTMyNS42MDg3IDExMDcuNSwxMzM4LjI0ODgiIGZpbGw9Im5vbmUiIGlkPSIqc3RhcnQqQWRtaW4tdG8tTWFuYWdpbmciIHN0eWxlPSJzdHJva2U6IzE4MTgxODtzdHJva2Utd2lkdGg6MTsiLz48cG9seWdvbiBmaWxsPSIjMTgxODE4IiBwb2ludHM9IjExMDcuNSwxMzQ0LjI0ODgsMTExMS41LDEzMzUuMjQ4OCwxMTA3LjUsMTMzOS4yNDg4LDExMDMuNSwxMzM1LjI0ODgsMTEwNy41LDEzNDQuMjQ4OCIgc3R5bGU9InN0cm9rZTojMTgxODE4O3N0cm9rZS13aWR0aDoxOyIvPjwvZz48IS0tbGluayBNYW5hZ2luZyB0byBBcHByb3ZpbmctLT48ZyBjbGFzcz0ibGluayIgZGF0YS1lbnRpdHktMT0iTWFuYWdpbmciIGRhdGEtZW50aXR5LTI9IkFwcHJvdmluZyIgZGF0YS1zb3VyY2UtbGluZT0iNDIiIGRhdGEtdWlkPSJsbms0NiIgaWQ9ImxpbmtfTWFuYWdpbmdfQXBwcm92aW5nIj48cGF0aCBkPSJNMTA2OS4xOSwxMzc0LjQyODggQzEwMjMuOTIsMTM3OS45OTg4IDk1Mi42NywxMzkxLjgzODggOTM2LjUsMTQxMi40Njg4IEM5MjkuMjYsMTQyMS42OTg4IDkyOC45NDgzLDE0MjguNjQ4OSA5MzMuMDU4MywxNDM5LjYzODkiIGZpbGw9Im5vbmUiIGlkPSJNYW5hZ2luZy10by1BcHByb3ZpbmciIHN0eWxlPSJzdHJva2U6IzE4MTgxODtzdHJva2Utd2lkdGg6MTsiLz48cG9seWdvbiBmaWxsPSIjMTgxODE4IiBwb2ludHM9IjkzNS4xNiwxNDQ1LjI1ODgsOTM1Ljc1NCwxNDM1LjQyNzgsOTMzLjQwODYsMTQ0MC41NzU1LDkyOC4yNjA5LDE0MzguMjMwMSw5MzUuMTYsMTQ0NS4yNTg4IiBzdHlsZT0ic3Ryb2tlOiMxODE4MTg7c3Ryb2tlLXdpZHRoOjE7Ii8+PHRleHQgZmlsbD0iIzAwMDAwMCIgZm9udC1mYW1pbHk9InNhbnMtc2VyaWYiIGZvbnQtc2l6ZT0iMTMiIGxlbmd0aEFkanVzdD0ic3BhY2luZyIgdGV4dExlbmd0aD0iNzgiIHg9IjkzNy41IiB5PSIxNDI1Ljc1NzgiPkFwcHJvdmUgR2FtZTwvdGV4dD48L2c+PCEtLWxpbmsgTWFuYWdpbmcgdG8gUmVqZWN0aW5nLS0+PGcgY2xhc3M9ImxpbmsiIGRhdGEtZW50aXR5LTE9Ik1hbmFnaW5nIiBkYXRhLWVudGl0eS0yPSJSZWplY3RpbmciIGRhdGEtc291cmNlLWxpbmU9IjQzIiBkYXRhLXVpZD0ibG5rNDgiIGlkPSJsaW5rX01hbmFnaW5nX1JlamVjdGluZyI+PHBhdGggZD0iTTEwNzYuNDUsMTM5NC41Njg4IEMxMDcxLjU4LDEzOTkuODk4OCAxMDY3LjI1LDE0MDUuOTI4OCAxMDY0LjUsMTQxMi40Njg4IEMxMDYwLjE0LDE0MjIuODE4OCAxMDYwLjAwMDYsMTQyOS4xOTEzIDEwNjMuMzAwNiwxNDM5LjU2MTMiIGZpbGw9Im5vbmUiIGlkPSJNYW5hZ2luZy10by1SZWplY3RpbmciIHN0eWxlPSJzdHJva2U6IzE4MTgxODtzdHJva2Utd2lkdGg6MTsiLz48cG9seWdvbiBmaWxsPSIjMTgxODE4IiBwb2ludHM9IjEwNjUuMTIsMTQ0NS4yNzg4LDEwNjYuMjAyNSwxNDM1LjQ4OTYsMTA2My42MDM4LDE0NDAuNTE0MiwxMDU4LjU3OTIsMTQzNy45MTU1LDEwNjUuMTIsMTQ0NS4yNzg4IiBzdHlsZT0ic3Ryb2tlOiMxODE4MTg7c3Ryb2tlLXdpZHRoOjE7Ii8+PHRleHQgZmlsbD0iIzAwMDAwMCIgZm9udC1mYW1pbHk9InNhbnMtc2VyaWYiIGZvbnQtc2l6ZT0iMTMiIGxlbmd0aEFkanVzdD0ic3BhY2luZyIgdGV4dExlbmd0aD0iNzEuNSIgeD0iMTA2NS41IiB5PSIxNDI1Ljc1NzgiPlJlamVjdCBHYW1lPC90ZXh0PjwvZz48IS0tbGluayBNYW5hZ2luZyB0byBFZGl0aW5nLS0+PGcgY2xhc3M9ImxpbmsiIGRhdGEtZW50aXR5LTE9Ik1hbmFnaW5nIiBkYXRhLWVudGl0eS0yPSJFZGl0aW5nIiBkYXRhLXNvdXJjZS1saW5lPSI0NCIgZGF0YS11aWQ9ImxuazUwIiBpZD0ibGlua19NYW5hZ2luZ19FZGl0aW5nIj48cGF0aCBkPSJNMTEzOS45NSwxMzk0LjU3ODggQzExNTMuODksMTQwNC44Mjg4IDExNzAuNDEsMTQxNi44NDg4IDExODUuNSwxNDI3LjQ2ODggQzExOTQuMzIsMTQzMy42Nzg4IDExOTguOTcxNywxNDM2LjkxNDkgMTIwNy45NTE3LDE0NDIuOTk0OSIgZmlsbD0ibm9uZSIgaWQ9Ik1hbmFnaW5nLXRvLUVkaXRpbmciIHN0eWxlPSJzdHJva2U6IzE4MTgxODtzdHJva2Utd2lkdGg6MTsiLz48cG9seWdvbiBmaWxsPSIjMTgxODE4IiBwb2ludHM9IjEyMTIuOTIsMTQ0Ni4zNTg3LDEyMDcuNzEwMSwxNDM4LjAwMDcsMTIwOC43Nzk3LDE0NDMuNTU1NSwxMjAzLjIyNDksMTQ0NC42MjUyLDEyMTIuOTIsMTQ0Ni4zNTg3IiBzdHlsZT0ic3Ryb2tlOiMxODE4MTg7c3Ryb2tlLXdpZHRoOjE7Ii8+PHRleHQgZmlsbD0iIzAwMDAwMCIgZm9udC1mYW1pbHk9InNhbnMtc2VyaWYiIGZvbnQtc2l6ZT0iMTMiIGxlbmd0aEFkanVzdD0ic3BhY2luZyIgdGV4dExlbmd0aD0iMTEwLjUiIHg9IjExODYuNSIgeT0iMTQyNS43NTc4Ij5FZGl0IEdhbWUgRGV0YWlsczwvdGV4dD48L2c+PCEtLWxpbmsgQXBwcm92aW5nIHRvIE1hbmFnaW5nLS0+PGcgY2xhc3M9ImxpbmsiIGRhdGEtZW50aXR5LTE9IkFwcHJvdmluZyIgZGF0YS1lbnRpdHktMj0iTWFuYWdpbmciIGRhdGEtc291cmNlLWxpbmU9IjQ1IiBkYXRhLXVpZD0ibG5rNTEiIGlkPSJsaW5rX0FwcHJvdmluZ19NYW5hZ2luZyI+PHBhdGggZD0iTTk4Ny43MiwxNDQ1LjI5ODggQzk5Ny4xNSwxNDM5LjQ3ODggMTAwNy4xOSwxNDMzLjI1ODggMTAxNi41LDE0MjcuNDY4OCBDMTAzMy45MSwxNDE2LjYzODggMTA0OC4wNzY2LDE0MDcuNzc2IDEwNjQuMzc2NiwxMzk3LjU1NiIgZmlsbD0ibm9uZSIgaWQ9IkFwcHJvdmluZy10by1NYW5hZ2luZyIgc3R5bGU9InN0cm9rZTojMTgxODE4O3N0cm9rZS13aWR0aDoxOyIvPjxwb2x5Z29uIGZpbGw9IiMxODE4MTgiIHBvaW50cz0iMTA2OS40NiwxMzk0LjM2ODgsMTA1OS43MSwxMzk1Ljc2MDcsMTA2NS4yMjM4LDEzOTcuMDI0OCwxMDYzLjk1OTcsMTQwMi41Mzg2LDEwNjkuNDYsMTM5NC4zNjg4IiBzdHlsZT0ic3Ryb2tlOiMxODE4MTg7c3Ryb2tlLXdpZHRoOjE7Ii8+PC9nPjwhLS1saW5rIFJlamVjdGluZyB0byBNYW5hZ2luZy0tPjxnIGNsYXNzPSJsaW5rIiBkYXRhLWVudGl0eS0xPSJSZWplY3RpbmciIGRhdGEtZW50aXR5LTI9Ik1hbmFnaW5nIiBkYXRhLXNvdXJjZS1saW5lPSI0NiIgZGF0YS11aWQ9ImxuazUyIiBpZD0ibGlua19SZWplY3RpbmdfTWFuYWdpbmciPjxwYXRoIGQ9Ik0xMTE4LjEzLDE0NDguOTY4OCBDMTEyNS45MiwxNDQzLjE0ODggMTEzMy4wMSwxNDM2LjAwODggMTEzNy41LDE0MjcuNDY4OCBDMTE0My4xNywxNDE2LjY3ODggMTE0Mi4wMjU0LDE0MDkuNjUzOSAxMTM0Ljg3NTQsMTM5OS41MDM5IiBmaWxsPSJub25lIiBpZD0iUmVqZWN0aW5nLXRvLU1hbmFnaW5nIiBzdHlsZT0ic3Ryb2tlOiMxODE4MTg7c3Ryb2tlLXdpZHRoOjE7Ii8+PHBvbHlnb24gZmlsbD0iIzE4MTgxOCIgcG9pbnRzPSIxMTMxLjQyLDEzOTQuNTk4OCwxMTMzLjMzMjksMTQwNC4yNiwxMTM0LjI5OTUsMTM5OC42ODY0LDExMzkuODczMSwxMzk5LjY1MjksMTEzMS40MiwxMzk0LjU5ODgiIHN0eWxlPSJzdHJva2U6IzE4MTgxODtzdHJva2Utd2lkdGg6MTsiLz48L2c+PCEtLWxpbmsgRWRpdGluZyB0byBNYW5hZ2luZy0tPjxnIGNsYXNzPSJsaW5rIiBkYXRhLWVudGl0eS0xPSJFZGl0aW5nIiBkYXRhLWVudGl0eS0yPSJNYW5hZ2luZyIgZGF0YS1zb3VyY2UtbGluZT0iNDciIGRhdGEtdWlkPSJsbms1MyIgaWQ9ImxpbmtfRWRpdGluZ19NYW5hZ2luZyI+PHBhdGggZD0iTTEyODIuMTcsMTQ0OS41MTg4IEMxMjk2LjQ5LDE0MzguNzQ4OCAxMzA3LjY0LDE0MjUuMDg4OCAxMjk3LjUsMTQxMi40Njg4IEMxMjc4LjgzLDEzODkuMjI4OCAxMjAxLjU2MzcsMTM3OC42MzAyIDExNTEuNjYzNywxMzczLjk0MDIiIGZpbGw9Im5vbmUiIGlkPSJFZGl0aW5nLXRvLU1hbmFnaW5nIiBzdHlsZT0ic3Ryb2tlOiMxODE4MTg7c3Ryb2tlLXdpZHRoOjE7Ii8+PHBvbHlnb24gZmlsbD0iIzE4MTgxOCIgcG9pbnRzPSIxMTQ1LjY5LDEzNzMuMzc4OCwxMTU0LjI3NjIsMTM3OC4yMDM0LDExNTAuNjY4MSwxMzczLjg0NjYsMTE1NS4wMjQ4LDEzNzAuMjM4NSwxMTQ1LjY5LDEzNzMuMzc4OCIgc3R5bGU9InN0cm9rZTojMTgxODE4O3N0cm9rZS13aWR0aDoxOyIvPjwvZz48ZWxsaXBzZSBjeD0iMTI5IiBjeT0iNjcuOTg0NCIgZmlsbD0iIzIyMjIyMiIgcng9IjEwIiByeT0iMTAiIHN0eWxlPSJzdHJva2U6IzIyMjIyMjtzdHJva2Utd2lkdGg6MTsiLz48ZyBpZD0iTG9nb3V0Ij48cmVjdCBmaWxsPSIjRjFGMUYxIiBoZWlnaHQ9IjUwIiByeD0iMTIuNSIgcnk9IjEyLjUiIHN0eWxlPSJzdHJva2U6IzE4MTgxODtzdHJva2Utd2lkdGg6MC41OyIgd2lkdGg9IjYyIiB4PSIzNjciIHk9IjQyLjk4NDQiLz48bGluZSBzdHlsZT0ic3Ryb2tlOiMxODE4MTg7c3Ryb2tlLXdpZHRoOjAuNTsiIHgxPSIzNjciIHgyPSI0MjkiIHkxPSI2Ny45Njg4IiB5Mj0iNjcuOTY4OCIvPjx0ZXh0IGZpbGw9IiMwMDAwMDAiIGZvbnQtZmFtaWx5PSJzYW5zLXNlcmlmIiBmb250LXNpemU9IjE0IiBsZW5ndGhBZGp1c3Q9InNwYWNpbmciIHRleHRMZW5ndGg9IjQyIiB4PSIzNzciIHk9IjYxLjIxODgiPkxvZ291dDwvdGV4dD48L2c+PGVsbGlwc2UgY3g9IjM1IiBjeT0iMTExNC45ODQ0IiBmaWxsPSJub25lIiByeD0iMTEiIHJ5PSIxMSIgc3R5bGU9InN0cm9rZTojMjIyMjIyO3N0cm9rZS13aWR0aDoxOyIvPjxlbGxpcHNlIGN4PSIzNSIgY3k9IjExMTQuOTg0NCIgZmlsbD0iIzIyMjIyMiIgcng9IjYiIHJ5PSI2IiBzdHlsZT0ic3Ryb2tlOiMyMjIyMjI7c3Ryb2tlLXdpZHRoOjE7Ii8+PCEtLWxpbmsgKnN0YXJ0KiB0byBHdWVzdC0tPjxnIGNsYXNzPSJsaW5rIiBkYXRhLWVudGl0eS0xPSIqc3RhcnQqIiBkYXRhLWVudGl0eS0yPSJHdWVzdCIgZGF0YS1zb3VyY2UtbGluZT0iMyIgZGF0YS11aWQ9ImxuazMiIGlkPSJsaW5rXypzdGFydCpfR3Vlc3QiPjxwYXRoIGQ9Ik0xMjksNzguMzY0NCBDMTI5LDk0LjAyNDQgMTI5LDEyNi42Mzk0IDEyOSwxNTUuNzI1NiBDMTI5LDE1Ny41NDM1IDEyOSwxNTkuMzQ3NiAxMjksMTYxLjEzMjkgQzEyOSwxNjEuMzU2MSAxMjksMTU1LjU3OSAxMjksMTU1LjgwMTUiIGZpbGw9Im5vbmUiIGlkPSIqc3RhcnQqLXRvLUd1ZXN0IiBzdHlsZT0ic3Ryb2tlOiMxODE4MTg7c3Ryb2tlLXdpZHRoOjE7Ii8+PHBvbHlnb24gZmlsbD0iIzE4MTgxOCIgcG9pbnRzPSIxMjksMTYxLjgwMTUsMTMzLDE1Mi44MDE1LDEyOSwxNTYuODAxNSwxMjUsMTUyLjgwMTUsMTI5LDE2MS44MDE1IiBzdHlsZT0ic3Ryb2tlOiMxODE4MTg7c3Ryb2tlLXdpZHRoOjE7Ii8+PHRleHQgZmlsbD0iIzAwMDAwMCIgZm9udC1mYW1pbHk9InNhbnMtc2VyaWYiIGZvbnQtc2l6ZT0iMTMiIGxlbmd0aEFkanVzdD0ic3BhY2luZyIgdGV4dExlbmd0aD0iNzgiIHg9IjEzMCIgeT0iMTM2LjI3MzQiPk9wZW4gd2Vic2l0ZTwvdGV4dD48L2c+PCEtLWxpbmsgKnN0YXJ0Kkd1ZXN0IHRvIEJyb3dzaW5nLS0+PGcgY2xhc3M9ImxpbmsiIGRhdGEtZW50aXR5LTE9IipzdGFydCpHdWVzdCIgZGF0YS1lbnRpdHktMj0iQnJvd3NpbmciIGRhdGEtc291cmNlLWxpbmU9IjYiIGRhdGEtdWlkPSJsbms2IiBpZD0ibGlua18qc3RhcnQqR3Vlc3RfQnJvd3NpbmciPjxwYXRoIGQ9Ik0yNDksMjIyLjk5NDQgQzI0OSwyMzYuODc0NCAyNDksMjU3Ljk1NDQgMjQ5LDI3Ny44MjQ0IiBmaWxsPSJub25lIiBpZD0iKnN0YXJ0Kkd1ZXN0LXRvLUJyb3dzaW5nIiBzdHlsZT0ic3Ryb2tlOiMxODE4MTg7c3Ryb2tlLXdpZHRoOjE7Ii8+PHBvbHlnb24gZmlsbD0iIzE4MTgxOCIgcG9pbnRzPSIyNDksMjgzLjgyNDQsMjUzLDI3NC44MjQ0LDI0OSwyNzguODI0NCwyNDUsMjc0LjgyNDQsMjQ5LDI4My44MjQ0IiBzdHlsZT0ic3Ryb2tlOiMxODE4MTg7c3Ryb2tlLXdpZHRoOjE7Ii8+PC9nPjwhLS1saW5rIEJyb3dzaW5nIHRvIFJlZ2lzdGVyLS0+PGcgY2xhc3M9ImxpbmsiIGRhdGEtZW50aXR5LTE9IkJyb3dzaW5nIiBkYXRhLWVudGl0eS0yPSJSZWdpc3RlciIgZGF0YS1zb3VyY2UtbGluZT0iNyIgZGF0YS11aWQ9ImxuazgiIGlkPSJsaW5rX0Jyb3dzaW5nX1JlZ2lzdGVyIj48cGF0aCBkPSJNMjEwLjc5LDMzMy4xNDQ0IEMyMDAuNDksMzQxLjQ3NDQgMTkwLjY0LDM1MS44NTQ0IDE4NSwzNjMuOTg0NCBDMTc4LjUxLDM3Ny45NDQ0IDE3OC42NzkyLDM4OS4zNDM4IDE4MS44MDkyLDQwMy4xMDM4IiBmaWxsPSJub25lIiBpZD0iQnJvd3NpbmctdG8tUmVnaXN0ZXIiIHN0eWxlPSJzdHJva2U6IzE4MTgxODtzdHJva2Utd2lkdGg6MTsiLz48cG9seWdvbiBmaWxsPSIjMTgxODE4IiBwb2ludHM9IjE4My4xNCw0MDguOTU0NCwxODUuMDQ0MSwzOTkuMjkxMywxODIuMDMxLDQwNC4wNzg5LDE3Ny4yNDM0LDQwMS4wNjU4LDE4My4xNCw0MDguOTU0NCIgc3R5bGU9InN0cm9rZTojMTgxODE4O3N0cm9rZS13aWR0aDoxOyIvPjx0ZXh0IGZpbGw9IiMwMDAwMDAiIGZvbnQtZmFtaWx5PSJzYW5zLXNlcmlmIiBmb250LXNpemU9IjEzIiBsZW5ndGhBZGp1c3Q9InNwYWNpbmciIHRleHRMZW5ndGg9Ijc4IiB4PSIxODYiIHk9IjM3Ny4yNzM0Ij5DbGljayBTaWdudXA8L3RleHQ+PC9nPjwhLS1saW5rIEJyb3dzaW5nIHRvIExvZ2luLS0+PGcgY2xhc3M9ImxpbmsiIGRhdGEtZW50aXR5LTE9IkJyb3dzaW5nIiBkYXRhLWVudGl0eS0yPSJMb2dpbiIgZGF0YS1zb3VyY2UtbGluZT0iOCIgZGF0YS11aWQ9ImxuazEwIiBpZD0ibGlua19Ccm93c2luZ19Mb2dpbiI+PHBhdGggZD0iTTI2MC4zMiwzMzMuOTk0NCBDMjcwLjQ3LDM1NS41MjQ0IDI4Mi43Mzk4LDM4MS41NDggMjkyLjk0OTgsNDAzLjE4OCIgZmlsbD0ibm9uZSIgaWQ9IkJyb3dzaW5nLXRvLUxvZ2luIiBzdHlsZT0ic3Ryb2tlOiMxODE4MTg7c3Ryb2tlLXdpZHRoOjE7Ii8+PHBvbHlnb24gZmlsbD0iIzE4MTgxOCIgcG9pbnRzPSIyOTUuNTEsNDA4LjYxNDQsMjk1LjI4NzIsMzk4Ljc2OCwyOTMuMzc2NSw0MDQuMDkyNCwyODguMDUyMSw0MDIuMTgxNywyOTUuNTEsNDA4LjYxNDQiIHN0eWxlPSJzdHJva2U6IzE4MTgxODtzdHJva2Utd2lkdGg6MTsiLz48dGV4dCBmaWxsPSIjMDAwMDAwIiBmb250LWZhbWlseT0ic2Fucy1zZXJpZiIgZm9udC1zaXplPSIxMyIgbGVuZ3RoQWRqdXN0PSJzcGFjaW5nIiB0ZXh0TGVuZ3RoPSI3MS41IiB4PSIyODIiIHk9IjM3Ny4yNzM0Ij5DbGljayBMb2dpbjwvdGV4dD48L2c+PCEtLWxpbmsgUmVnaXN0ZXIgdG8gTG9nZ2VkSW4tLT48ZyBjbGFzcz0ibGluayIgZGF0YS1lbnRpdHktMT0iUmVnaXN0ZXIiIGRhdGEtZW50aXR5LTI9IkxvZ2dlZEluIiBkYXRhLXNvdXJjZS1saW5lPSI5IiBkYXRhLXVpZD0ibG5rMTEiIGlkPSJsaW5rX1JlZ2lzdGVyX0xvZ2dlZEluIj48cGF0aCBkPSJNMTkwLjMyLDQ1OS4yNzQ0IEMxOTAuMzMsNDc2Ljg4NDQgMTkxLjM3LDUwMS4xNjQ0IDE5Niw1MjEuOTg0NCBDMjEwLjIwNSw1ODUuOTA0NCAyMzcuMzE3NSw2NTQuMjQ5NCAyNjEuMTksNzA3LjE3ODEgQzI3My4xMjYzLDczMy42NDI1IDI4NC4yNTI1LDc1Ni4yNTI4IDI5Mi41NTAzLDc3Mi41Mjg5IEMyOTQuNjI0OCw3NzYuNTk3OSAyOTYuNTIyNCw3ODAuMjcxMSAyOTguMjExOCw3ODMuNTA5NiBDMjk4LjQyMyw3ODMuOTE0NCAyOTUuODUsNzc4Ljk5NTggMjk2LjA1NDYsNzc5LjM4NjkiIGZpbGw9Im5vbmUiIGlkPSJSZWdpc3Rlci10by1Mb2dnZWRJbiIgc3R5bGU9InN0cm9rZTojMTgxODE4O3N0cm9rZS13aWR0aDoxOyIvPjxwb2x5Z29uIGZpbGw9IiMxODE4MTgiIHBvaW50cz0iMjk4LjgzNTUsNzg0LjcwMzUsMjk4LjIwODUsNzc0Ljg3NDcsMjk2LjUxOCw3ODAuMjczLDI5MS4xMTk3LDc3OC41ODI2LDI5OC44MzU1LDc4NC43MDM1IiBzdHlsZT0ic3Ryb2tlOiMxODE4MTg7c3Ryb2tlLXdpZHRoOjE7Ii8+PHRleHQgZmlsbD0iIzAwMDAwMCIgZm9udC1mYW1pbHk9InNhbnMtc2VyaWYiIGZvbnQtc2l6ZT0iMTMiIGxlbmd0aEFkanVzdD0ic3BhY2luZyIgdGV4dExlbmd0aD0iOTcuNSIgeD0iMTk3IiB5PSI1MjAuMjczNCI+QWNjb3VudCBjcmVhdGVkPC90ZXh0PjwvZz48IS0tbGluayBMb2dpbiB0byBMb2dnZWRJbi0tPjxnIGNsYXNzPSJsaW5rIiBkYXRhLWVudGl0eS0xPSJMb2dpbiIgZGF0YS1lbnRpdHktMj0iTG9nZ2VkSW4iIGRhdGEtc291cmNlLWxpbmU9IjEwIiBkYXRhLXVpZD0ibG5rMTIiIGlkPSJsaW5rX0xvZ2luX0xvZ2dlZEluIj48cGF0aCBkPSJNMzA1LjczLDQ1OS4zMDQ0IEMzMDUuMDcsNDczLjI1NDQgMzA0LjMzLDQ5MS4wOTQ0IDMwNCw1MDYuOTg0NCBDMzAzLjgzMzEsNTE0Ljk5NSAzMDMuNjk4MSw1MjMuMTI5IDMwMy41OTE3LDUzMS4zNDA4IEMzMDMuNTM4NSw1MzUuNDQ2NyAzMDMuNDkyNCw1MzkuNTcyMSAzMDMuNDUzMSw1NDMuNzExMyBDMzAzLjQ0ODIsNTQ0LjIyODcgMzAzLjQ5NzksNTM4Ljc0NjYgMzAzLjQ5MzIsNTM5LjI2NDQiIGZpbGw9Im5vbmUiIGlkPSJMb2dpbi10by1Mb2dnZWRJbiIgc3R5bGU9InN0cm9rZTojMTgxODE4O3N0cm9rZS13aWR0aDoxOyIvPjxwb2x5Z29uIGZpbGw9IiMxODE4MTgiIHBvaW50cz0iMzAzLjQzODcsNTQ1LjI2NDEsMzA3LjUyMDMsNTM2LjMwMDgsMzAzLjQ4NDEsNTQwLjI2NDMsMjk5LjUyMDYsNTM2LjIyODEsMzAzLjQzODcsNTQ1LjI2NDEiIHN0eWxlPSJzdHJva2U6IzE4MTgxODtzdHJva2Utd2lkdGg6MTsiLz48dGV4dCBmaWxsPSIjMDAwMDAwIiBmb250LWZhbWlseT0ic2Fucy1zZXJpZiIgZm9udC1zaXplPSIxMyIgbGVuZ3RoQWRqdXN0PSJzcGFjaW5nIiB0ZXh0TGVuZ3RoPSIxMzYuNSIgeD0iMzA1IiB5PSI1MjAuMjczNCI+Q3JlZGVudGlhbHMgdmFsaWRhdGVkPC90ZXh0PjwvZz48IS0tbGluayAqc3RhcnQqTG9nZ2VkSW4gdG8gSWRsZS0tPjxnIGNsYXNzPSJsaW5rIiBkYXRhLWVudGl0eS0xPSIqc3RhcnQqTG9nZ2VkSW4iIGRhdGEtZW50aXR5LTI9IklkbGUiIGRhdGEtc291cmNlLWxpbmU9IjE0IiBkYXRhLXVpZD0ibG5rMTUiIGlkPSJsaW5rXypzdGFydCpMb2dnZWRJbl9JZGxlIj48cGF0aCBkPSJNMzgzLjU0LDgxMS4wNjQ0IEMzODEuNjUsODUxLjczNDQgMzc1LjcxLDEwMTcuMTE0NCA0MDIsMTA1OS45ODQ0IEM0MTYuNDgsMTA4My41OTQ0IDQzOS44NzUsMTA5Ni4wODk4IDQ2MS4wNjUsMTEwNC4wNjk4IiBmaWxsPSJub25lIiBpZD0iKnN0YXJ0KkxvZ2dlZEluLXRvLUlkbGUiIHN0eWxlPSJzdHJva2U6IzE4MTgxODtzdHJva2Utd2lkdGg6MTsiLz48cG9seWdvbiBmaWxsPSIjMTgxODE4IiBwb2ludHM9IjQ2Ni42OCwxMTA2LjE4NDQsNDU5LjY2NzIsMTA5OS4yNjkyLDQ2Mi4wMDA4LDExMDQuNDIyMiw0NTYuODQ3NywxMTA2Ljc1NTksNDY2LjY4LDExMDYuMTg0NCIgc3R5bGU9InN0cm9rZTojMTgxODE4O3N0cm9rZS13aWR0aDoxOyIvPjwvZz48IS0tbGluayBJZGxlIHRvIENvbnRyaWJ1dG9yLS0+PGcgY2xhc3M9ImxpbmsiIGRhdGEtZW50aXR5LTE9IklkbGUiIGRhdGEtZW50aXR5LTI9IkNvbnRyaWJ1dG9yIiBkYXRhLXNvdXJjZS1saW5lPSIxNSIgZGF0YS11aWQ9ImxuazE2IiBpZD0ibGlua19JZGxlX0NvbnRyaWJ1dG9yIj48cGF0aCBkPSJNNTE3LjI3LDExMTMuMzA0NCBDNTUyLjI2LDExMTAuODM0NCA2MTQuMzgsMTEwMC42MTQ0IDY0MywxMDU5Ljk4NDQgQzY1Mi42MSwxMDQ2LjM0NDQgNjU3LjcwNjMsMTAzNi45ODMzIDY2Mi4xNDYzLDEwMjEuMDgzMyIgZmlsbD0ibm9uZSIgaWQ9IklkbGUtdG8tQ29udHJpYnV0b3IiIHN0eWxlPSJzdHJva2U6IzE4MTgxODtzdHJva2Utd2lkdGg6MTsiLz48cG9seWdvbiBmaWxsPSIjMTgxODE4IiBwb2ludHM9IjY2My43NiwxMDE1LjMwNDQsNjU3LjQ4NjgsMTAyMi44OTY5LDY2Mi40MTUyLDEwMjAuMTIwMSw2NjUuMTkyLDEwMjUuMDQ4Niw2NjMuNzYsMTAxNS4zMDQ0IiBzdHlsZT0ic3Ryb2tlOiMxODE4MTg7c3Ryb2tlLXdpZHRoOjE7Ii8+PHRleHQgZmlsbD0iIzAwMDAwMCIgZm9udC1mYW1pbHk9InNhbnMtc2VyaWYiIGZvbnQtc2l6ZT0iMTMiIGxlbmd0aEFkanVzdD0ic3BhY2luZyIgdGV4dExlbmd0aD0iMTQzIiB4PSI2NTEiIHk9IjEwNTguMjczNCI+QWRkIGdhbWUgKGF1dG8vbWFudWFsKTwvdGV4dD48L2c+PCEtLWxpbmsgQ29udHJpYnV0b3IgdG8gSWRsZS0tPjxnIGNsYXNzPSJsaW5rIiBkYXRhLWVudGl0eS0xPSJDb250cmlidXRvciIgZGF0YS1lbnRpdHktMj0iSWRsZSIgZGF0YS1zb3VyY2UtbGluZT0iMTkiIGRhdGEtdWlkPSJsbmsyMCIgaWQ9ImxpbmtfQ29udHJpYnV0b3JfSWRsZSI+PHBhdGggZD0iTTQ1MC41MSwxMDE1LjI5NDQgQzQ0NS44MSwxMDI1LjA0NDQgNDQxLjYsMTAzNC45NTQ0IDQzOCwxMDQ0Ljk4NDQgQzQzMC40NSwxMDY2LjAzNDQgNDQ0LjU1MSwxMDgyLjEwMzQgNDYyLjAzMSwxMDk0Ljk5MzQiIGZpbGw9Im5vbmUiIGlkPSJDb250cmlidXRvci10by1JZGxlIiBzdHlsZT0ic3Ryb2tlOiMxODE4MTg7c3Ryb2tlLXdpZHRoOjE7Ii8+PHBvbHlnb24gZmlsbD0iIzE4MTgxOCIgcG9pbnRzPSI0NjYuODYsMTA5OC41NTQ0LDQ2MS45OTA1LDEwODkuOTkzNiw0NjIuODM1OCwxMDk1LjU4NjksNDU3LjI0MjUsMTA5Ni40MzIyLDQ2Ni44NiwxMDk4LjU1NDQiIHN0eWxlPSJzdHJva2U6IzE4MTgxODtzdHJva2Utd2lkdGg6MTsiLz48dGV4dCBmaWxsPSIjMDAwMDAwIiBmb250LWZhbWlseT0ic2Fucy1zZXJpZiIgZm9udC1zaXplPSIxMyIgbGVuZ3RoQWRqdXN0PSJzcGFjaW5nIiB0ZXh0TGVuZ3RoPSIxOTUiIHg9IjQzOSIgeT0iMTA1OC4yNzM0Ij5HYW1lIHN1Ym1pdHRlZCB0byBQZW5kaW5nR2FtZXM8L3RleHQ+PC9nPjwhLS1saW5rIElkbGUgdG8gUmV2aWV3ZXItLT48ZyBjbGFzcz0ibGluayIgZGF0YS1lbnRpdHktMT0iSWRsZSIgZGF0YS1lbnRpdHktMj0iUmV2aWV3ZXIiIGRhdGEtc291cmNlLWxpbmU9IjE2IiBkYXRhLXVpZD0ibG5rMTciIGlkPSJsaW5rX0lkbGVfUmV2aWV3ZXIiPjxwYXRoIGQ9Ik00NjYuOTIsMTExOC4zODQ0IEM0MzYuNDIsMTEyMi43OTQ0IDM4Ni4xNCwxMTM1LjIxNDQgMzYzLDExNjkuOTg0NCBDMzUxLjU2LDExODcuMTY0NCAzNDcuODgwMSwxMTk5Ljk5NjMgMzUwLjYzMDEsMTIxOC45ODYzIiBmaWxsPSJub25lIiBpZD0iSWRsZS10by1SZXZpZXdlciIgc3R5bGU9InN0cm9rZTojMTgxODE4O3N0cm9rZS13aWR0aDoxOyIvPjxwb2x5Z29uIGZpbGw9IiMxODE4MTgiIHBvaW50cz0iMzUxLjQ5LDEyMjQuOTI0NCwzNTQuMTU4OCwxMjE1LjQ0NCwzNTAuNzczNCwxMjE5Ljk3NiwzNDYuMjQxNCwxMjE2LjU5MDYsMzUxLjQ5LDEyMjQuOTI0NCIgc3R5bGU9InN0cm9rZTojMTgxODE4O3N0cm9rZS13aWR0aDoxOyIvPjx0ZXh0IGZpbGw9IiMwMDAwMDAiIGZvbnQtZmFtaWx5PSJzYW5zLXNlcmlmIiBmb250LXNpemU9IjEzIiBsZW5ndGhBZGp1c3Q9InNwYWNpbmciIHRleHRMZW5ndGg9Ijg0LjUiIHg9IjM2NCIgeT0iMTE4My4yNzM0Ij5TdWJtaXQgcmV2aWV3PC90ZXh0PjwvZz48IS0tbGluayBSZXZpZXdlciB0byBJZGxlLS0+PGcgY2xhc3M9ImxpbmsiIGRhdGEtZW50aXR5LTE9IlJldmlld2VyIiBkYXRhLWVudGl0eS0yPSJJZGxlIiBkYXRhLXNvdXJjZS1saW5lPSIyMCIgZGF0YS11aWQ9ImxuazIxIiBpZD0ibGlua19SZXZpZXdlcl9JZGxlIj48cGF0aCBkPSJNNDc5LjU0LDEyMTQuNzA0NCBDNDgzLjI0LDExODUuNDM0NCA0ODUuODkwMiwxMTY0LjQwNzMgNDg4LjIwMDIsMTE0Ni4wNjczIiBmaWxsPSJub25lIiBpZD0iUmV2aWV3ZXItdG8tSWRsZSIgc3R5bGU9InN0cm9rZTojMTgxODE4O3N0cm9rZS13aWR0aDoxOyIvPjxwb2x5Z29uIGZpbGw9IiMxODE4MTgiIHBvaW50cz0iNDg4Ljk1LDExNDAuMTE0NCw0ODMuODU2NywxMTQ4LjU0NCw0ODguMzI1MiwxMTQ1LjA3NTIsNDkxLjc5MzksMTE0OS41NDM3LDQ4OC45NSwxMTQwLjExNDQiIHN0eWxlPSJzdHJva2U6IzE4MTgxODtzdHJva2Utd2lkdGg6MTsiLz48dGV4dCBmaWxsPSIjMDAwMDAwIiBmb250LWZhbWlseT0ic2Fucy1zZXJpZiIgZm9udC1zaXplPSIxMyIgbGVuZ3RoQWRqdXN0PSJzcGFjaW5nIiB0ZXh0TGVuZ3RoPSIxNDkuNSIgeD0iNDg1IiB5PSIxMTgzLjI3MzQiPlJldmlldyBzYXZlZCBpbiBNb25nb0RCPC90ZXh0PjwvZz48IS0tbGluayBJZGxlIHRvIFZpZXdTdWdnZXN0aW9ucy0tPjxnIGNsYXNzPSJsaW5rIiBkYXRhLWVudGl0eS0xPSJJZGxlIiBkYXRhLWVudGl0eS0yPSJWaWV3U3VnZ2VzdGlvbnMiIGRhdGEtc291cmNlLWxpbmU9IjE3IiBkYXRhLXVpZD0ibG5rMTkiIGlkPSJsaW5rX0lkbGVfVmlld1N1Z2dlc3Rpb25zIj48cGF0aCBkPSJNNTE3LjEsMTExNy41NTQ0IEM1NTEuMDIsMTEyMS4wODQ0IDYxMC45MiwxMTMyLjU3NDQgNjQzLDExNjkuOTg0NCBDNjg4LjI2LDEyMjIuNzU0NCA2ODguODQ4NSwxMzA1LjExOSA2ODUuODg4NSwxMzQ3LjQ0OSIgZmlsbD0ibm9uZSIgaWQ9IklkbGUtdG8tVmlld1N1Z2dlc3Rpb25zIiBzdHlsZT0ic3Ryb2tlOiMxODE4MTg7c3Ryb2tlLXdpZHRoOjE7Ii8+PHBvbHlnb24gZmlsbD0iIzE4MTgxOCIgcG9pbnRzPSI2ODUuNDcsMTM1My40MzQ0LDY5MC4wODgxLDEzNDQuNzM1Myw2ODUuODE4OCwxMzQ4LjQ0NjYsNjgyLjEwNzYsMTM0NC4xNzczLDY4NS40NywxMzUzLjQzNDQiIHN0eWxlPSJzdHJva2U6IzE4MTgxODtzdHJva2Utd2lkdGg6MTsiLz48dGV4dCBmaWxsPSIjMDAwMDAwIiBmb250LWZhbWlseT0ic2Fucy1zZXJpZiIgZm9udC1zaXplPSIxMyIgbGVuZ3RoQWRqdXN0PSJzcGFjaW5nIiB0ZXh0TGVuZ3RoPSIxNjIuNSIgeD0iNjU0IiB5PSIxMTgzLjI3MzQiPkFjY2VzcyAiWW91ciBTdWdnZXN0aW9ucyI8L3RleHQ+PC9nPjwhLS1saW5rIElkbGUgdG8gQWRtaW4tLT48ZyBjbGFzcz0ibGluayIgZGF0YS1lbnRpdHktMT0iSWRsZSIgZGF0YS1lbnRpdHktMj0iQWRtaW4iIGRhdGEtc291cmNlLWxpbmU9IjM3IiBkYXRhLXVpZD0ibG5rNDEiIGlkPSJsaW5rX0lkbGVfQWRtaW4iPjxwYXRoIGQ9Ik01MTcuMzMsMTExNi4wODQ0IEM1NzQuNTIsMTExNy4xNDQ0IDcxNy4wNCwxMTI0LjU0NDQgODI1LDExNjkuOTg0NCBDODczLjA3LDExOTAuMjE0NCA5MTUuNzI3OCwxMjE2LjcwNDEgOTU3LjU5NzgsMTI0Ny43MDQxIiBmaWxsPSJub25lIiBpZD0iSWRsZS10by1BZG1pbiIgc3R5bGU9InN0cm9rZTojMTgxODE4O3N0cm9rZS13aWR0aDoxOyIvPjxwb2x5Z29uIGZpbGw9IiMxODE4MTgiIHBvaW50cz0iOTYyLjQyLDEyNTEuMjc0NCw5NTcuNTY2OSwxMjQyLjcwNDIsOTU4LjQwMTUsMTI0OC4yOTkyLDk1Mi44MDY2LDEyNDkuMTMzOCw5NjIuNDIsMTI1MS4yNzQ0IiBzdHlsZT0ic3Ryb2tlOiMxODE4MTg7c3Ryb2tlLXdpZHRoOjE7Ii8+PHRleHQgZmlsbD0iIzAwMDAwMCIgZm9udC1mYW1pbHk9InNhbnMtc2VyaWYiIGZvbnQtc2l6ZT0iMTMiIGxlbmd0aEFkanVzdD0ic3BhY2luZyIgdGV4dExlbmd0aD0iMTYyLjUiIHg9Ijg1MSIgeT0iMTE4My4yNzM0Ij5Vc2VyIGhhcyBhZG1pbiBwcml2aWxlZ2VzPC90ZXh0PjwvZz48IS0tbGluayBMb2dnZWRJbiB0byBMb2dvdXQtLT48ZyBjbGFzcz0ibGluayIgZGF0YS1lbnRpdHktMT0iTG9nZ2VkSW4iIGRhdGEtZW50aXR5LTI9IkxvZ291dCIgZGF0YS1zb3VyY2UtbGluZT0iNTAiIGRhdGEtdWlkPSJsbms1NSIgaWQ9ImxpbmtfTG9nZ2VkSW5fTG9nb3V0Ij48cGF0aCBkPSJNMjk4LjgyMTIsNzc3LjE4MDggQzI5OC40ODc5LDc3Ni4xNjMgMjk4LjE0ODcsNzc1LjExNjIgMjk3LjgwNDUsNzc0LjA0MTIgQzI5Ny4xMTYsNzcxLjg5MTMgMjk2LjQwNzIsNzY5LjYyODkgMjk1LjY4NTIsNzY3LjI2MjMgQzI4OS45MDg0LDc0OC4zMjk3IDI4My4yNzU2LDcyMi43MjYyIDI3OS4yODM4LDY5NC42NDU2IEMyNzEuMyw2MzguNDg0NCAyNzMuODgsNTcyLjQxNDQgMzE1LDUyOS45ODQ0IEMzMzUuMyw1MDkuMDQ0NCA0MjMuNTQsNTQwLjU5NDQgNDQ2LDUyMS45ODQ0IEM0NzYuNzEsNDk2LjUzNDQgNDY4LDQ3NC44NjQ0IDQ2OCw0MzQuOTg0NCBDNDY4LDIxMS45ODQ0IDQ2OCwyMTEuOTg0NCA0NjgsMjExLjk4NDQgQzQ2OCwxNjYuMzc0NCA0NDIuNTU4OCwxMjQuOTI1MSA0MjEuODg4OCw5Ny44MjUxIiBmaWxsPSJub25lIiBpZD0iTG9nZ2VkSW4tdG8tTG9nb3V0IiBzdHlsZT0ic3Ryb2tlOiMxODE4MTg7c3Ryb2tlLXdpZHRoOjE7Ii8+PHBvbHlnb24gZmlsbD0iIzE4MTgxOCIgcG9pbnRzPSI0MTguMjUsOTMuMDU0NCw0MjAuNTI3NywxMDIuNjM2Miw0MjEuMjgyMyw5Ny4wMyw0MjYuODg4Niw5Ny43ODQ2LDQxOC4yNSw5My4wNTQ0IiBzdHlsZT0ic3Ryb2tlOiMxODE4MTg7c3Ryb2tlLXdpZHRoOjE7Ii8+PHRleHQgZmlsbD0iIzAwMDAwMCIgZm9udC1mYW1pbHk9InNhbnMtc2VyaWYiIGZvbnQtc2l6ZT0iMTMiIGxlbmd0aEFkanVzdD0ic3BhY2luZyIgdGV4dExlbmd0aD0iODQuNSIgeD0iNDY5IiB5PSIzMTQuNzczNCI+VXNlciBsb2dzIG91dDwvdGV4dD48L2c+PCEtLWxpbmsgTG9nb3V0IHRvIEd1ZXN0LS0+PGcgY2xhc3M9ImxpbmsiIGRhdGEtZW50aXR5LTE9IkxvZ291dCIgZGF0YS1lbnRpdHktMj0iR3Vlc3QiIGRhdGEtc291cmNlLWxpbmU9IjUxIiBkYXRhLXVpZD0ibG5rNTYiIGlkPSJsaW5rX0xvZ291dF9HdWVzdCI+PHBhdGggZD0iTTM2Ni43Niw4My44MTQ0IEMzMzEuMzEsOTkuOTQ0NCAyNzEuMzMsMTI1LjE1NDQgMjE3LDEzNy45ODQ0IEMxOTkuNjEsMTQyLjA5NDQgMTQ5Ljc3LDEzMy40ODQ0IDEzNywxNDUuOTg0NCBDMTM0LjQ0MzgsMTQ4LjQ4ODEgMTMyLjM4OTIsMTUxLjM1MzMgMTMwLjc1MjQsMTU0LjQ1NTYgQzEyOS45MzQsMTU2LjAwNjggMTI5LjIyLDE1Ny42MTcyIDEyOC41OTk5LDE1OS4yNzE0IEMxMjguMjg5OSwxNjAuMDk4NSAxMjkuNzkxLDE1NS4yMDkxIDEyOS41MjY2LDE1Ni4wNTYyIiBmaWxsPSJub25lIiBpZD0iTG9nb3V0LXRvLUd1ZXN0IiBzdHlsZT0ic3Ryb2tlOiMxODE4MTg7c3Ryb2tlLXdpZHRoOjE7Ii8+PHBvbHlnb24gZmlsbD0iIzE4MTgxOCIgcG9pbnRzPSIxMjcuNzM4OSwxNjEuNzgzNiwxMzQuMjM4OCwxNTQuMzg0MiwxMjkuMjI4NywxNTcuMDEwNywxMjYuNjAyMiwxNTIuMDAwNiwxMjcuNzM4OSwxNjEuNzgzNiIgc3R5bGU9InN0cm9rZTojMTgxODE4O3N0cm9rZS13aWR0aDoxOyIvPjwvZz48IS0tbGluayBHdWVzdCB0byAqZW5kKi0tPjxnIGNsYXNzPSJsaW5rIiBkYXRhLWVudGl0eS0xPSJHdWVzdCIgZGF0YS1lbnRpdHktMj0iKmVuZCoiIGRhdGEtc291cmNlLWxpbmU9IjUyIiBkYXRhLXVpZD0ibG5rNTgiIGlkPSJsaW5rX0d1ZXN0XyplbmQqIj48cGF0aCBkPSJNMTIwLjc2OTIsMjE1Ljk0MjkgQzEyMC42NDM1LDIxNS45NzUzIDEyMC41MTY1LDIxNi4wMDggMTIwLjM4ODIsMjE2LjA0MTIgQzEyMC4xMzE3LDIxNi4xMDc2IDExOS44NzAzLDIxNi4xNzU3IDExOS42MDQxLDIxNi4yNDU0IEMxMTguNTM5MywyMTYuNTI0MyAxMTcuMzk3NSwyMTYuODMgMTE2LjE4NTksMjE3LjE2MyBDMTEzLjc2MjYsMjE3LjgyOSAxMTEuMDYwMiwyMTguNjA0MyAxMDguMTM1OSwyMTkuNDkzMyBDOTYuNDM4OCwyMjMuMDQ5MSA4MS4xOTEzLDIyOC40MjI1IDY2LjA2LDIzNS44ODgxIEMzNS43OTc1LDI1MC44MTk0IDYsMjc0LjExOTQgNiwzMDcuOTg0NCBDNiwzMDcuOTg0NCA2LDMwNy45ODQ0IDYsODAxLjk4NDQgQzYsOTIxLjM5NDQgMjYuMzg3NCwxMDU5LjQ3NzMgMzIuNDY3NCwxMDk4LjExNzMiIGZpbGw9Im5vbmUiIGlkPSJHdWVzdC10by0qZW5kKiIgc3R5bGU9InN0cm9rZTojMTgxODE4O3N0cm9rZS13aWR0aDoxOyIvPjxwb2x5Z29uIGZpbGw9IiMxODE4MTgiIHBvaW50cz0iMzMuNCwxMTA0LjA0NDQsMzUuOTUyNCwxMDk0LjUzMiwzMi42MjI4LDEwOTkuMTA1MSwyOC4wNDk3LDEwOTUuNzc1NSwzMy40LDExMDQuMDQ0NCIgc3R5bGU9InN0cm9rZTojMTgxODE4O3N0cm9rZS13aWR0aDoxOyIvPjx0ZXh0IGZpbGw9IiMwMDAwMDAiIGZvbnQtZmFtaWx5PSJzYW5zLXNlcmlmIiBmb250LXNpemU9IjEzIiBsZW5ndGhBZGp1c3Q9InNwYWNpbmciIHRleHRMZW5ndGg9IjExMC41IiB4PSI3IiB5PSI0MzkuNzczNCI+VXNlciBleGl0cyBzeXN0ZW08L3RleHQ+PC9nPjwhLS1saW5rIExvZ2dlZEluIHRvICplbmQqLS0+PGcgY2xhc3M9ImxpbmsiIGRhdGEtZW50aXR5LTE9IkxvZ2dlZEluIiBkYXRhLWVudGl0eS0yPSIqZW5kKiIgZGF0YS1zb3VyY2UtbGluZT0iNTMiIGRhdGEtdWlkPSJsbms1OSIgaWQ9ImxpbmtfTG9nZ2VkSW5fKmVuZCoiPjxwYXRoIGQ9Ik0yOTguNzM5OCw4MDkuMDc3OCBDMjk4LjU5NjUsODA5LjIwMjEgMjk4LjQ1MTUsODA5LjMyOCAyOTguMzA0OCw4MDkuNDU1NSBDMjk4LjAxMTQsODA5LjcxMDQgMjk3LjcxMTEsODA5Ljk3MTQgMjk3LjQwNDEsODEwLjIzODYgQzI5Ni43OTAyLDgxMC43NzI5IDI5Ni4xNDkyLDgxMS4zMzE2IDI5NS40ODIsODExLjkxNDMgQzI5NC4xNDc1LDgxMy4wNzk2IDI5Mi43MDgxLDgxNC4zNDA5IDI5MS4xNjk0LDgxNS42OTQ0IEMyODguMDkyMiw4MTguNDAxNCAyODQuNjE4Miw4MjEuNDc3NCAyODAuNzk0NSw4MjQuODkzNiBDMjY1LjQ5OTcsODM4LjU1ODQgMjQ0LjYwODEsODU3LjY2NjMgMjIxLjExODcsODgwLjM3MDYgQzE3NC4xNCw5MjUuNzc5NCAxMTYuNzcsOTg1LjU3NDQgNzMsMTA0NC45ODQ0IEM1OC40LDEwNjQuODA0NCA0OC4wNTU0LDEwODUuNDE3MSA0MS43MTU0LDEwOTkuMTQ3MSIgZmlsbD0ibm9uZSIgaWQ9IkxvZ2dlZEluLXRvLSplbmQqIiBzdHlsZT0ic3Ryb2tlOiMxODE4MTg7c3Ryb2tlLXdpZHRoOjE7Ii8+PHBvbHlnb24gZmlsbD0iIzE4MTgxOCIgcG9pbnRzPSIzOS4yLDExMDQuNTk0NCw0Ni42MDQ2LDEwOTguMTAwMyw0MS4yOTYxLDExMDAuMDU1LDM5LjM0MTUsMTA5NC43NDY1LDM5LjIsMTEwNC41OTQ0IiBzdHlsZT0ic3Ryb2tlOiMxODE4MTg7c3Ryb2tlLXdpZHRoOjE7Ii8+PHRleHQgZmlsbD0iIzAwMDAwMCIgZm9udC1mYW1pbHk9InNhbnMtc2VyaWYiIGZvbnQtc2l6ZT0iMTMiIGxlbmd0aEFkanVzdD0ic3BhY2luZyIgdGV4dExlbmd0aD0iMjQwLjUiIHg9Ijc0IiB5PSIxMDU4LjI3MzQiPkFjY291bnQgRGVhY3RpdmF0ZWQgLyBTZXNzaW9uIEV4cGlyZWQ8L3RleHQ+PC9nPjwhLS1TUkM9W1pMSERSemltM0J0eExuMHpqR0UydGRDT2EyUDVLUTM1WFhYUkNHbXhBM1JoaWhDYkd3QUo1YUZfLW9aOXliU3hPMlVScjJGdi0yWUhZTWs0ZDFMWnlRR2ltdXZLUExLM0FfWmNxQzhURk1Cbk1XWmNfNE9yYzFramFJLW94RVVkTngxUVZPUVIzWHQzNmh3cWdFNjQxcVVDTVVQeWxseGlKbVFHcTVWTWQxcGZJYnBmRF9adE05NVpBUlU2Ukt0NVJ5WWZxYnN4WERzUFlsSTAyUFAwWGswVUtjNXZ3cjZSZVoyVFBZV2kyZmpJYTM1LTBUalFCNTRwZ1RoMUtUTEsxbDFSUWM5MEpsa3VCTWlLcXQtMmxKTVFCSHF3RGh3NUpMYjI5TUIxa0hCRlBRRHFmLWdCQU53Rkh5OUp3M1ZsM1dxbnNFMlBPaHdCZE5USXQzNFB4TTkzdzFvU19KMlRYU2RITUlQbkttZzllaUp1ZU80QkRRR2pPMERWS1BTWWczem1HUnNVb1lHZS1pMmZldUk4T2xUNkxzUHR2U2o0S1FSNWwyd1pDWnNqODNVQ0xaWHhLQ0hJVVRFc3JlWklZUHFLTTcyMlRyMFY3V3Q5dkhMazk0ZjVueHlaemxZQzFLeVlSNzM0VzI2VEh0aHd3eDRqS0hOZ3VVT0JrSFdvdkZsVmFCVEhpYTdka0x1RkRqM1VmXzczdEREaGNpT3Q3cXFsU0plU0lWTVdaLWFDNW9uQWlleGxfNGF2S0M3SE1aZklaSkF0eUg1NHdGRzV0MmtqZ2xZSXEtemFJRHZROXVOM2I5VXVBNk40blZ5Rk9UU2J6STNfNS1fQjNiYkh4VmlQWW9xZVpUYU4xb2RWcDJyajNnLXlObXdjdXdIQ1JJZTdPY1V6VXpYd01UbmxlLW0xWllfNDNqb2h0RmZjZFpRMnFiUlFlSEE2SHh6aXUxOW9VVFotMWJzX2oySnh3MnkwXS0tPjwvZz48L3N2Zz4=;" vertex="1" parent="1">
            <mxGeometry x="-10" y="-1890" width="1330" height="1571" as="geometry" />
          </mxCell>
        </UserObject>
      </root>
    </mxGraphModel>
  </diagram>
</mxfile>
